<svg width="750" height="500" viewBox="0 0 750 500" fill="none" xmlns="http://www.w3.org/2000/svg">
<g id="cloud 1" clip-path="url(#clip0_3_953)">
<g id="BACKGROUND">
<path id="Vector" d="M750 0H0V500H750V0Z" fill="white"/>
</g>
<g id="OBJECTS">
<g id="Girl">
<g id="Group">
<g id="Group_2">
<path id="Vector_2" d="M91.34 274.729C89.003 271.889 87.861 268.168 87.965 264.511C88.04 261.884 88.954 255.848 92.49 255.7C93.318 255.665 94.122 255.958 94.89 256.272C99.191 258.027 103.136 260.544 106.783 263.402C108.594 264.821 110.337 266.326 112.036 267.877C113.638 269.339 115.23 271.446 117.053 272.574C119.431 268.302 122.802 264.339 125.639 260.324C128.683 256.016 131.708 251.694 134.712 247.357C134.954 247.007 135.209 246.646 135.579 246.436C136.348 246 137.308 246.356 138.11 246.728C140.409 247.792 142.662 248.955 144.862 250.212C142.259 255.518 139.238 260.619 135.837 265.452C134.193 267.789 132.295 269.957 130.857 272.423C129.256 275.168 127.652 277.91 126.054 280.656C124.717 282.948 123.186 285.407 120.688 286.306C118.686 287.026 116.469 286.58 114.41 286.045C110.01 284.901 105.711 283.376 101.544 281.557C97.756 279.903 93.965 277.919 91.34 274.729Z" fill="#FFCC99"/>
<path id="Vector_3" d="M113.874 285.787C113.4 285.956 112.931 285.377 113.008 284.879C113.084 284.381 113.49 284.007 113.884 283.693C117.325 280.955 121.846 279.615 126.223 280.035C125.4 282.626 123.426 284.828 120.94 285.929C118.454 287.03 115.497 287.01 113.025 285.878" fill="#C29E7A"/>
<path id="Vector_4" d="M117.77 277.556C117.844 277.711 117.929 277.867 118.063 277.975C118.197 278.083 118.39 278.134 118.545 278.059C118.776 277.947 118.812 277.634 118.793 277.377C118.726 276.434 118.371 275.547 118.033 274.675C117.863 274.235 117.691 273.795 117.559 273.341C117.462 273.009 117.449 272.603 117.312 272.296C117.073 272.87 117.162 273.773 117.166 274.383C117.172 275.465 117.3 276.568 117.77 277.556Z" fill="#C29E7A"/>
</g>
<g id="Group_3">
<g id="Group_4">
<path id="Vector_5" d="M117.72 463.192C118.037 461.8 118.375 460.363 119.225 459.215C120.942 456.898 124.362 456.422 127.093 457.346C129.825 458.27 132.024 460.291 134.106 462.286C136.189 464.281 138.318 466.353 140.996 467.423C142.892 468.181 144.978 468.397 146.839 469.237C148.7 470.077 150.399 471.858 150.176 473.888C150.12 474.4 142.121 474.983 141.284 475.058C138.225 475.332 135.155 475.476 132.084 475.489C129.053 475.502 126.022 475.389 123.001 475.149C121.511 475.031 120.023 474.881 118.538 474.701C117.345 474.556 115.497 474.8 115.367 473.507C115.223 472.071 116.194 469.886 116.518 468.466C116.919 466.708 117.319 464.95 117.72 463.192Z" fill="#13DCF2"/>
<path id="Vector_6" d="M115.947 470.789C121.817 471.956 127.877 471.184 133.859 471.381C139.086 471.553 144.349 472.465 149.513 471.638" stroke="#351B6B" stroke-width="0.5" stroke-miterlimit="10" stroke-linecap="round" stroke-linejoin="round"/>
<g id="Group_5">
<path id="Vector_7" d="M130.539 461.824C130.094 461.898 129.654 462.154 129.477 462.569C129.3 462.984 129.477 463.55 129.903 463.698C130.282 463.83 130.689 463.615 131.018 463.386C132.201 462.562 133.202 461.429 134.553 460.927C134.996 460.762 135.496 460.674 135.939 460.838C136.383 461.002 136.732 461.484 136.615 461.942C136.516 462.33 136.122 462.586 135.726 462.646C135.33 462.706 134.929 462.61 134.54 462.515C133.195 462.186 131.925 461.824 130.539 461.824Z" stroke="#351B6B" stroke-width="0.5" stroke-miterlimit="10" stroke-linecap="round" stroke-linejoin="round"/>
<path id="Vector_8" d="M132.757 464.284C134.287 463.575 136.053 463.39 137.696 463.767" stroke="#351B6B" stroke-width="0.5" stroke-miterlimit="10" stroke-linecap="round" stroke-linejoin="round"/>
<path id="Vector_9" d="M133.947 465.67C135.66 465.05 137.537 464.888 139.331 465.208" stroke="#351B6B" stroke-width="0.5" stroke-miterlimit="10" stroke-linecap="round" stroke-linejoin="round"/>
<path id="Vector_10" d="M135.551 466.873C136.853 466.172 138.373 465.882 139.842 466.054" stroke="#351B6B" stroke-width="0.5" stroke-miterlimit="10" stroke-linecap="round" stroke-linejoin="round"/>
</g>
</g>
<g id="Group_6">
<path id="Vector_11" d="M108.185 323.843C119.393 368.533 129.144 414.498 132.198 460.379C129.182 460.111 125.849 460.793 122.911 460.284C119.656 459.72 119.087 457.084 117.733 454.264C113.957 446.405 110.379 438.417 107.824 430.066C104.697 419.847 103.132 408.992 104.727 398.425C105.208 395.242 105.944 391.843 104.595 388.92C103.6 386.765 101.63 385.254 99.8 383.743C91.096 376.555 84.114 367.344 79.365 357.114C76.955 351.922 75.116 346.463 73.918 340.864C73.316 338.05 73.012 335.227 72.609 332.384C72.237 329.758 71.019 327.957 70.232 325.453C70.401 325.991 70.57 326.529 70.739 327.067" fill="#281450"/>
<path id="Vector_12" d="M83.95 328.024C88.444 345.597 93.353 363.953 105.666 377.272C107.508 379.265 109.544 381.187 110.617 383.68C111.92 386.706 111.627 390.144 111.439 393.434C110.767 405.143 111.726 416.942 114.262 428.392C115.428 433.658 117.609 438.437 118.898 443.567C120.295 449.124 121.587 454.71 122.837 460.302" stroke="#46248F" stroke-miterlimit="10"/>
</g>
</g>
<g id="Group_7">
<g id="Group_8">
<path id="Vector_13" d="M59.067 463.201C59.424 461.818 59.802 460.392 60.685 459.269C62.467 457.002 65.899 456.625 68.604 457.626C71.308 458.628 73.448 460.711 75.473 462.765C77.498 464.819 79.567 466.951 82.213 468.097C84.086 468.908 86.165 469.185 88.001 470.078C89.837 470.971 91.485 472.801 91.203 474.823C91.132 475.333 83.12 475.686 82.282 475.737C79.217 475.923 76.143 475.979 73.073 475.904C70.043 475.831 67.017 475.63 64.004 475.304C62.518 475.143 61.035 474.951 59.556 474.728C58.368 474.549 56.514 474.739 56.421 473.444C56.318 472.005 57.351 469.848 57.715 468.438C58.165 466.693 58.616 464.947 59.067 463.201Z" fill="#13DCF2"/>
<g id="Group_9">
<path id="Vector_14" d="M71.498 463.425C71.154 463.656 70.837 464.015 70.864 464.429C70.898 464.96 71.504 465.3 72.034 465.252C72.564 465.204 73.025 464.886 73.465 464.586C74.702 463.743 76 462.958 77.427 462.507C77.95 462.342 78.503 462.222 79.044 462.308C79.585 462.394 80.115 462.72 80.316 463.23C80.438 463.538 80.414 463.929 80.169 464.152C79.87 464.424 79.404 464.342 79.012 464.244C77.574 463.882 76.138 463.512 74.699 463.157C73.763 462.925 72.278 462.646 71.498 463.425Z" stroke="#351B6B" stroke-width="0.5" stroke-miterlimit="10" stroke-linecap="round" stroke-linejoin="round"/>
<path id="Vector_15" d="M75.257 466.122C75.965 465.748 76.779 465.607 77.58 465.6C78.381 465.593 79.177 465.713 79.97 465.833" stroke="#351B6B" stroke-width="0.5" stroke-miterlimit="10" stroke-linecap="round" stroke-linejoin="round"/>
<path id="Vector_16" d="M77.305 467.097C78.569 466.873 79.854 466.766 81.138 466.775" stroke="#351B6B" stroke-width="0.5" stroke-miterlimit="10" stroke-linecap="round" stroke-linejoin="round"/>
<path id="Vector_17" d="M79.161 468.416C80.208 468.08 81.303 467.895 82.402 467.868" stroke="#351B6B" stroke-width="0.5" stroke-miterlimit="10" stroke-linecap="round" stroke-linejoin="round"/>
</g>
<path id="Vector_18" d="M56.94 471.081C67.918 472.884 79.074 473.593 90.192 473.194" stroke="#351B6B" stroke-width="0.5" stroke-miterlimit="10" stroke-linecap="round" stroke-linejoin="round"/>
</g>
<g id="Group_10">
<path id="Vector_19" d="M89.179 323.982C88.745 338.049 87.982 352.107 86.891 366.138C85.518 383.794 84.394 387.634 81.759 414.958C81.726 415.304 80.864 423.2 79.14 438.99C78.846 441.686 78.356 446.125 77.442 451.975C76.784 456.185 76.133 459.683 75.644 462.163C73.428 461.475 70.547 460.804 67.141 460.562C65.055 460.414 63.087 460.738 61.021 460.485C59.622 449.002 58.221 437.461 58.649 425.901C59.077 414.341 61.419 402.661 67.083 392.575C68.028 390.891 69.094 389.151 69.11 387.22C69.127 385.18 67.97 383.344 66.923 381.593C61.356 372.287 57.897 361.755 56.699 350.985C56.1 345.599 56.066 340.149 56.616 334.758C57.123 329.798 58.492 326.224 60.358 321.742" fill="#351B6B"/>
<path id="Vector_20" d="M68.22 327.475C66.841 341.026 67.744 354.807 70.88 368.063C72.022 372.889 73.463 377.683 73.793 382.631C74.269 389.768 72.414 396.825 70.889 403.813C66.842 422.362 65.928 440.966 65.093 459.819" stroke="#46248F" stroke-miterlimit="10"/>
</g>
</g>
<g id="Group_11">
<path id="Vector_21" d="M80.133 333.926C75.634 333.919 71.128 333.531 66.711 332.661C65.098 332.343 63.501 331.87 61.914 331.443C60.248 330.995 57.135 330.885 56.693 328.86C56.337 327.228 57.184 325.914 57.708 324.479C58.257 322.973 58.473 321.315 58.988 319.784C60.012 316.738 61.377 313.822 62.761 310.928C65.463 305.279 68.397 299.533 69.054 293.212C69.633 287.639 68.387 282.06 67.936 276.476C67.485 270.892 67.98 264.84 71.471 260.459C74.004 257.281 77.975 255.103 81.685 253.582C85.526 252.007 90.328 253.528 93.989 255.091C105.061 259.819 107.857 271.83 106.319 282.759C105.628 287.667 104.437 292.511 104.104 297.456C103.362 308.465 106.885 319.264 110.363 329.736C110.363 329.736 105.754 330.571 105.379 330.658C103.075 331.194 100.76 331.685 98.434 332.115C93.688 332.992 88.889 333.615 84.066 333.838C82.755 333.898 81.444 333.929 80.133 333.926Z" fill="#13DCF2"/>
<path id="Vector_22" d="M69.976 283.857C72.463 289.233 75.889 294.112 79.335 298.931C81.168 301.494 83.167 304.174 86.091 305.349C89.346 306.657 93.023 305.821 96.426 304.969C99.048 304.313 101.702 303.645 104.075 302.351C104.703 302.009 105.374 301.52 105.429 300.808C105.487 300.06 104.843 299.465 104.257 298.997C95.641 292.108 87.026 285.218 78.41 278.328C74.646 275.319 70.67 272.043 68.831 267.446C68.079 265.566 67.59 265.523 66.921 267.576C66.184 269.838 66.501 272.207 66.923 274.499C67.517 277.735 68.596 280.874 69.976 283.857Z" fill="#0EA5B5"/>
</g>
<g id="Group_12">
<path id="Vector_23" d="M94.99 258.562C94.959 259.329 94.934 259.859 94.93 259.859C90.613 259.378 86.372 258.21 82.418 256.412C81.818 256.139 81.18 255.807 80.908 255.207C80.71 254.769 80.745 254.266 80.785 253.786C81.15 249.35 81.524 244.916 81.881 240.48C81.945 239.689 81.812 239.034 81.779 238.264C81.734 237.232 81.944 236.133 82.02 235.102C82.178 232.961 82.317 230.818 82.492 228.678C82.669 226.506 84.903 224.388 87.207 224.809C89.161 225.166 90.333 227.151 91.093 228.987C93.228 234.146 93.923 239.388 94.505 244.929C94.786 247.605 95.004 250.288 95.159 252.975C95.184 253.429 95.066 256.697 94.99 258.562Z" fill="#FFCC99"/>
<path id="Vector_24" d="M95.239 254.513C92.513 254.036 90.26 252.587 88.457 250.488C86.654 248.388 85.607 245.653 85.547 242.886C85.577 242.925 85.607 242.964 85.638 243.002C86.657 244.285 88.063 245.241 89.607 245.776C90.38 246.044 91.189 246.208 92.006 246.255C92.414 246.278 92.823 246.273 93.23 246.237C93.504 246.213 94.042 245.973 94.254 246.176C94.368 246.286 94.415 246.446 94.456 246.599C94.806 247.91 95.035 249.254 95.142 250.607C95.243 251.911 95.158 253.212 95.239 254.513Z" fill="#C29E7A"/>
</g>
<g id="girlhead">
<g id="Group_13">
<path id="Vector_25" d="M108.469 238.117C108.844 240.543 108.725 243.19 107.352 245.305C106.218 247.053 104.376 248.143 102.395 248.679C97.749 249.936 91.493 248.899 87.861 245.72C87.482 245.388 87.117 245.04 86.769 244.676C83.101 240.844 81.382 235.396 81.491 230.092C81.571 226.222 82.601 222.308 84.853 219.16C87.105 216.012 90.652 213.707 94.509 213.387C97.647 213.127 100.937 214.297 103.105 216.603C104.966 218.582 105.873 221.715 106.597 224.286C107.861 228.776 108.358 233.464 108.469 238.117Z" fill="#FFCC99"/>
<g id="Group_14">
<g id="Group_15">
<path id="Vector_26" d="M59.833 202.667C57.046 204.538 55.4 207.758 54.706 211.042C54.012 214.326 54.158 217.721 54.267 221.076C54.376 224.431 54.438 227.839 53.585 231.085C52.993 233.339 51.957 235.466 50.602 237.358C49.946 238.274 49.201 239.314 48.317 240.025C47.563 240.631 46.778 240.944 46.132 241.724C49.332 243.21 52.131 244.668 54.504 247.395C55.612 248.669 56.56 250.084 57.31 251.598C57.684 252.354 58.008 253.134 58.278 253.934C58.369 254.205 59.087 256.081 58.894 256.258C64.036 251.353 67.094 244.331 67.184 237.226C67.277 229.847 64.327 222.576 65.155 215.243C65.347 213.545 65.779 211.793 66.913 210.514C67.852 209.453 69.394 208.802 70.805 209.149C72.117 209.472 73.084 211.006 74.452 210.971C75.552 210.943 76.3 209.685 76.158 208.594C76.016 207.503 75.249 206.602 74.439 205.859C71.171 202.863 67.799 200.314 63.066 201.319C61.915 201.562 60.809 202.012 59.833 202.667Z" fill="#351B6B"/>
<path id="Vector_27" d="M75.17 215.918C74.453 214.24 73.552 212.4 72.587 210.853C72.585 210.898 72.584 210.943 72.582 210.988C72.411 209.938 72.742 208.817 73.455 208.027C74.169 207.237 75.25 206.795 76.312 206.859C77.63 208.136 78.937 209.55 80.255 210.827" fill="#13DCF2"/>
</g>
<path id="Vector_28" d="M91.348 223.665C91.381 223.2 91.395 222.734 91.408 222.274C91.423 221.746 91.348 221.234 91.229 220.71C91.159 220.401 91.001 219.278 90.725 219.107C93.198 220.639 95.983 221.659 98.855 222.116C100.31 222.347 101.788 222.434 103.26 222.37C104.511 222.315 106.082 222.162 107.174 221.499C109.065 220.352 108.36 216.998 107.702 215.374C106.845 213.26 105.288 211.443 103.42 210.151C100.485 208.121 96.894 207.262 93.349 206.85C90.401 206.507 87.39 206.448 84.487 207.069C81.585 207.69 78.784 209.028 76.737 211.177C74.529 213.497 73.32 216.623 72.792 219.782C72.316 222.634 72.354 225.539 72.444 228.42C72.525 231 72.855 233.493 74.06 235.833C75.437 238.506 77.961 240.714 80.94 241.117C81.758 241.228 82.657 241.182 83.311 240.677C84.123 240.05 84.323 238.915 84.349 237.89C84.387 236.404 84.19 234.909 84.373 233.433C84.556 231.957 85.207 230.434 86.496 229.693C87.244 229.263 88.133 229.137 88.889 228.721C89.956 228.134 90.651 227.016 90.992 225.847C91.2 225.14 91.297 224.404 91.348 223.665Z" fill="#351B6B"/>
</g>
<g id="Group_16">
<g id="Group_17">
<path id="Vector_29" d="M95.9 231.612C95.868 231.863 95.803 232.115 95.66 232.324C95.517 232.533 95.288 232.692 95.035 232.704C94.733 232.717 94.458 232.522 94.265 232.289C93.823 231.756 93.698 231.031 93.659 230.34C93.643 230.053 93.639 229.759 93.727 229.485C93.814 229.211 94.008 228.957 94.28 228.864C95.514 228.438 95.992 230.887 95.9 231.612Z" fill="#351B6B"/>
<path id="Vector_30" d="M96.175 225.923C95.394 225.401 94.342 225.311 93.484 225.693C92.626 226.076 91.99 226.918 91.856 227.848" stroke="#351B6B" stroke-width="0.5" stroke-miterlimit="10" stroke-linecap="round" stroke-linejoin="round"/>
</g>
<g id="Group_18">
<path id="Vector_31" d="M105.443 229.934C105.411 230.185 105.346 230.437 105.203 230.646C105.06 230.855 104.831 231.014 104.578 231.026C104.276 231.039 104.001 230.844 103.808 230.611C103.366 230.078 103.241 229.353 103.202 228.662C103.186 228.375 103.182 228.081 103.27 227.807C103.358 227.533 103.551 227.279 103.823 227.186C105.058 226.76 105.535 229.209 105.443 229.934Z" fill="#351B6B"/>
<path id="Vector_32" d="M101.259 225.046C101.73 224.413 102.47 223.987 103.254 223.899C104.038 223.811 104.855 224.061 105.454 224.574" stroke="#351B6B" stroke-width="0.5" stroke-miterlimit="10" stroke-linecap="round" stroke-linejoin="round"/>
</g>
<path id="Vector_33" d="M102.971 241.573C101.539 242.038 99.956 242.025 98.531 241.539C97.106 241.052 95.846 240.093 94.998 238.849C94.774 238.52 94.57 238.122 94.68 237.739C96.974 238.765 99.763 238.605 101.924 237.322C101.925 238.814 102.274 240.254 102.971 241.573Z" fill="white"/>
<path id="Vector_34" d="M102.29 231.904C102.819 232.305 103.397 232.652 103.846 233.141C104.295 233.63 104.606 234.309 104.453 234.954C104.341 235.425 103.991 235.819 103.563 236.044C102.593 236.555 101.329 236.19 100.561 235.407C99.793 234.624 99.447 233.516 99.312 232.427C99.21 231.604 99.213 230.772 99.216 229.943C99.217 229.685 99.219 229.42 99.311 229.178C99.433 228.859 99.84 228.519 100.189 228.752C100.448 228.925 100.414 229.381 100.505 229.652C100.813 230.573 101.533 231.33 102.29 231.904Z" fill="#F2862C"/>
</g>
<g id="Group_19">
<path id="Vector_35" d="M84.685 228.437C83.789 227.095 82.047 226.197 80.526 226.735C79.139 227.225 78.353 228.704 78.005 230.133C77.674 231.492 77.623 232.942 78.039 234.277C78.455 235.612 79.371 236.82 80.632 237.425C81.893 238.03 83.496 237.96 84.606 237.11C86.834 235.404 86.034 230.457 84.685 228.437Z" fill="#FFCC99"/>
<path id="Vector_36" d="M82.769 229.788C82.667 229.626 82.536 229.46 82.35 229.416C82.093 229.356 81.848 229.551 81.686 229.758C81.216 230.357 81.052 231.159 81.128 231.917C81.204 232.675 81.502 233.395 81.877 234.059C82.037 234.342 82.22 234.627 82.498 234.796C82.775 234.965 83.17 234.983 83.401 234.756C83.682 234.48 83.595 233.994 83.369 233.672C83.142 233.35 82.807 233.118 82.573 232.801C82.355 232.506 82.235 232.148 82.182 231.785C82.132 231.444 82.14 231.095 82.183 230.753C82.198 230.638 82.226 230.508 82.325 230.449C82.452 230.374 82.624 230.465 82.689 230.597C82.755 230.729 82.745 230.884 82.739 231.031C82.73 231.246 82.757 231.654 83.052 231.682C83.265 231.702 83.297 231.548 83.31 231.362C83.349 230.832 83.043 230.222 82.769 229.788Z" fill="#573C20"/>
</g>
</g>
</g>
<g id="Group_20">
<g id="Group_21">
<path id="Vector_37" d="M182.961 278.498H130.348C129.565 278.498 128.93 277.863 128.93 277.08C128.93 276.297 129.565 275.662 130.348 275.662H182.961C183.744 275.662 184.379 276.297 184.379 277.08C184.379 277.863 183.744 278.498 182.961 278.498Z" fill="#351B6B"/>
<g id="Group_22">
<path id="Vector_38" d="M166.965 244.275H130.349C129.566 244.275 128.931 244.91 128.931 245.693V274.244C128.931 275.027 129.566 275.662 130.349 275.662H166.965C167.748 275.662 168.383 275.027 168.383 274.244V245.693C168.383 244.91 167.748 244.275 166.965 244.275Z" fill="#46248F"/>
<path id="Vector_39" d="M133.61 272.638V247.3C133.61 246.724 134.077 246.257 134.653 246.257H165.528C166.104 246.257 166.571 246.724 166.571 247.3V272.637C166.571 273.213 166.104 273.68 165.528 273.68H134.653C134.077 273.681 133.61 273.214 133.61 272.638Z" fill="white"/>
<g id="Group_23">
<path id="Vector_40" d="M163.18 250.962H138.025C137.278 250.962 136.673 250.357 136.673 249.61V249.517C136.673 248.77 137.278 248.165 138.025 248.165H163.18C163.927 248.165 164.532 248.77 164.532 249.517V249.61C164.532 250.357 163.927 250.962 163.18 250.962Z" fill="#46248F"/>
<g id="Group_24">
<path id="Vector_41" d="M162.524 270.889H158.065C157.284 270.889 156.65 270.255 156.65 269.474V255.624C156.65 254.842 157.284 254.209 158.065 254.209H162.524C163.306 254.209 163.939 254.842 163.939 255.624V269.474C163.939 270.255 163.305 270.889 162.524 270.889Z" fill="#13DCF2"/>
<path id="Vector_42" d="M161.81 258.237H159.213C158.753 258.237 158.381 257.864 158.381 257.405C158.381 256.945 158.754 256.573 159.213 256.573H161.81C162.27 256.573 162.642 256.946 162.642 257.405C162.642 257.865 162.27 258.237 161.81 258.237Z" fill="white"/>
<path id="Vector_43" d="M161.81 261.567H159.213C158.753 261.567 158.381 261.194 158.381 260.735C158.381 260.275 158.754 259.903 159.213 259.903H161.81C162.27 259.903 162.642 260.276 162.642 260.735C162.642 261.194 162.27 261.567 161.81 261.567Z" fill="white"/>
<path id="Vector_44" d="M161.81 264.896H159.213C158.753 264.896 158.381 264.523 158.381 264.064C158.381 263.604 158.754 263.232 159.213 263.232H161.81C162.27 263.232 162.642 263.605 162.642 264.064C162.642 264.523 162.27 264.896 161.81 264.896Z" fill="white"/>
<path id="Vector_45" d="M161.81 268.225H159.213C158.753 268.225 158.381 267.852 158.381 267.393C158.381 266.933 158.754 266.561 159.213 266.561H161.81C162.27 266.561 162.642 266.934 162.642 267.393C162.642 267.853 162.27 268.225 161.81 268.225Z" fill="white"/>
</g>
<g id="Group_25">
<path id="Vector_46" d="M152.536 270.889H148.076C147.294 270.889 146.661 270.255 146.661 269.474V255.624C146.661 254.842 147.294 254.209 148.076 254.209H152.536C153.317 254.209 153.951 254.842 153.951 255.624V269.474C153.951 270.255 153.317 270.889 152.536 270.889Z" fill="#F2D06B"/>
<path id="Vector_47" d="M151.822 258.237H149.225C148.765 258.237 148.393 257.864 148.393 257.405C148.393 256.945 148.766 256.573 149.225 256.573H151.822C152.282 256.573 152.654 256.946 152.654 257.405C152.654 257.865 152.281 258.237 151.822 258.237Z" fill="white"/>
<path id="Vector_48" d="M151.822 261.567H149.225C148.765 261.567 148.393 261.194 148.393 260.735C148.393 260.275 148.766 259.903 149.225 259.903H151.822C152.282 259.903 152.654 260.276 152.654 260.735C152.654 261.194 152.281 261.567 151.822 261.567Z" fill="white"/>
<path id="Vector_49" d="M151.822 264.896H149.225C148.765 264.896 148.393 264.523 148.393 264.064C148.393 263.604 148.766 263.232 149.225 263.232H151.822C152.282 263.232 152.654 263.605 152.654 264.064C152.654 264.523 152.281 264.896 151.822 264.896Z" fill="white"/>
<path id="Vector_50" d="M151.822 268.225H149.225C148.765 268.225 148.393 267.852 148.393 267.393C148.393 266.933 148.766 266.561 149.225 266.561H151.822C152.282 266.561 152.654 266.934 152.654 267.393C152.654 267.853 152.281 268.225 151.822 268.225Z" fill="white"/>
</g>
<g id="Group_26">
<path id="Vector_51" d="M142.548 270.889H138.088C137.307 270.889 136.673 270.255 136.673 269.474V255.624C136.673 254.842 137.306 254.209 138.088 254.209H142.548C143.329 254.209 143.963 254.842 143.963 255.624V269.474C143.962 270.255 143.329 270.889 142.548 270.889Z" fill="#9A8DF2"/>
<path id="Vector_52" d="M141.834 258.237H139.237C138.777 258.237 138.405 257.864 138.405 257.405C138.405 256.945 138.778 256.573 139.237 256.573H141.834C142.294 256.573 142.666 256.946 142.666 257.405C142.666 257.865 142.293 258.237 141.834 258.237Z" fill="white"/>
<path id="Vector_53" d="M141.834 261.567H139.237C138.777 261.567 138.405 261.194 138.405 260.735C138.405 260.275 138.778 259.903 139.237 259.903H141.834C142.294 259.903 142.666 260.276 142.666 260.735C142.666 261.194 142.293 261.567 141.834 261.567Z" fill="white"/>
<path id="Vector_54" d="M141.834 264.896H139.237C138.777 264.896 138.405 264.523 138.405 264.064C138.405 263.604 138.778 263.232 139.237 263.232H141.834C142.294 263.232 142.666 263.605 142.666 264.064C142.666 264.523 142.293 264.896 141.834 264.896Z" fill="white"/>
<path id="Vector_55" d="M141.834 268.225H139.237C138.777 268.225 138.405 267.852 138.405 267.393C138.405 266.933 138.778 266.561 139.237 266.561H141.834C142.294 266.561 142.666 266.934 142.666 267.393C142.666 267.853 142.293 268.225 141.834 268.225Z" fill="white"/>
</g>
</g>
</g>
</g>
<g id="Group_27">
<g id="Group_28">
<path id="Vector_56" d="M67.331 272.284C68.612 276.792 71.799 280.483 75.043 283.865C79.324 288.328 83.868 292.539 88.643 296.47C94.678 301.439 98.106 303.395 101.788 303.805C104.311 304.086 107.686 303.809 119.794 296.759C124.243 294.168 130.07 290.547 136.674 285.772C136.006 283.566 135.339 281.36 134.671 279.154C124.551 282.446 114.431 285.738 104.311 289.03C100.045 283.874 95.743 278.738 91.546 273.53C87.937 269.053 83.756 264.743 78.821 261.733C76.179 260.122 71.692 258.652 69.312 261.363C66.771 264.258 66.308 268.685 67.331 272.284Z" fill="#FFCC99"/>
<path id="Vector_57" d="M102.99 295.394C103.015 295.74 103.122 296.166 103.461 296.24C103.661 296.283 103.871 296.171 103.995 296.008C104.119 295.845 104.173 295.64 104.21 295.439C104.604 293.324 103.498 291.047 104.273 289.039C103.923 289.946 103.473 290.792 103.251 291.8C102.993 292.977 102.903 294.191 102.99 295.394Z" fill="#C29E7A"/>
<path id="Vector_58" d="M103.423 298.922C103.985 299.046 104.524 299.328 104.888 299.773C105.253 300.218 105.423 300.836 105.267 301.39C104.781 300.48 103.861 299.815 102.845 299.638C101.79 299.454 100.813 299.812 99.984 300.444C99.962 299.114 102.544 298.728 103.423 298.922Z" fill="#C29E7A"/>
</g>
<g id="Group_29">
<path id="Vector_59" d="M138.043 278.511C139.466 278.558 140.874 278.875 142.287 279.102C144.93 279.527 147.614 279.633 150.257 279.209C151.446 279.018 152.633 278.719 153.831 278.763C155.029 278.807 156.271 279.237 157.125 280.304C157.429 280.684 157.69 281.232 157.55 281.743C157.434 282.165 157.073 282.411 156.723 282.461C156.373 282.511 156.022 282.406 155.673 282.341C153.979 282.021 152.261 282.618 150.66 283.389C149.059 284.161 147.5 285.118 145.824 285.567C144.087 286.033 142.511 286.115 140.725 286.111C139.745 286.109 138.765 286.107 137.785 286.105C137.481 286.104 135.359 285.85 135.237 286.1C135.513 285.542 135.263 284.787 134.892 284.327C134.52 283.867 134.037 283.561 133.697 283.064C132.787 281.735 133.334 280.024 134.394 279.28C135.522 278.488 136.78 278.469 138.043 278.511Z" fill="#FFCC99"/>
<path id="Vector_60" d="M151.845 281.657C150.615 281.788 149.529 282.486 148.495 283.164C148.394 283.23 148.289 283.301 148.226 283.404C148.163 283.508 148.157 283.656 148.244 283.74C148.375 283.867 148.591 283.771 148.747 283.675C149.781 283.036 150.933 282.592 152.125 282.355C152.727 282.235 153.34 282.169 153.953 282.157C154.42 282.148 154.973 282.28 155.422 282.178C154.276 281.908 153.034 281.53 151.845 281.657Z" fill="#C29E7A"/>
</g>
</g>
<g id="Group_30">
<path id="Vector_61" d="M146.113 245.235C146.642 245.771 147.386 246.088 148.139 246.096C148.892 246.105 149.643 245.805 150.184 245.282C150.55 245.669 151.08 245.894 151.613 245.889C152.146 245.884 152.671 245.647 153.029 245.252C153.644 245.557 154.284 245.867 154.97 245.886C155.656 245.905 156.404 245.545 156.608 244.89C156.76 244.403 156.585 243.871 156.33 243.429C155.824 242.552 154.988 241.871 154.028 241.553C153.067 241.234 151.99 241.281 151.061 241.681C149.993 240.765 148.238 240.792 147.199 241.742C146.753 241.322 146.113 241.117 145.506 241.199C144.899 241.281 144.336 241.649 144.018 242.172C143.367 241.501 142.226 241.468 141.432 241.961C140.689 242.423 140.082 243.405 140.065 244.288C140.605 244.333 141.229 244.213 141.76 244.339C142.323 244.473 142.574 245.052 142.994 245.393C143.445 245.759 144.036 245.924 144.613 245.89C144.765 245.88 146.263 245.387 146.113 245.235Z" fill="#FFCC99"/>
<g id="Group_31">
<path id="Vector_62" d="M145.418 243.476C145.808 243.979 146.09 244.588 146.099 245.224C146.323 244.538 146.207 243.75 145.796 243.157C145.524 242.765 145.126 242.464 144.68 242.297C144.567 242.255 144.452 242.221 144.334 242.196C144.243 242.177 144.12 242.124 144.164 242.253C144.196 242.345 144.377 242.442 144.45 242.504C144.56 242.597 144.668 242.691 144.774 242.788C145.006 243.001 145.225 243.227 145.418 243.476Z" fill="#C29E7A"/>
<path id="Vector_63" d="M149.246 243.131C149.763 243.76 150.089 244.543 150.171 245.353C150.421 244.504 150.106 243.552 149.499 242.908C148.951 242.327 148.057 241.84 147.249 241.778C147.558 241.965 147.929 242.053 148.242 242.25C148.622 242.488 148.962 242.786 149.246 243.131Z" fill="#C29E7A"/>
<path id="Vector_64" d="M152.533 243.269C152.939 243.863 153.197 244.582 153.127 245.298C153.401 244.557 153.317 243.693 152.906 243.019C152.547 242.431 151.782 241.805 151.058 241.797C151.613 242.214 152.138 242.69 152.533 243.269Z" fill="#C29E7A"/>
</g>
</g>
</g>
</g>
</g>
<g id="Group_32">
<g id="Group_33">
<path id="Vector_65" d="M366.032 256.876V203.975" stroke="#13DCF2" stroke-width="2" stroke-miterlimit="10"/>
<path id="Vector_66" d="M357.351 215.093L366.032 203.975L373.647 215.093" stroke="#13DCF2" stroke-width="2" stroke-miterlimit="10"/>
</g>
<g id="Group_34">
<path id="Vector_67" d="M387.658 205.486V256.876" stroke="#13DCF2" stroke-width="2" stroke-miterlimit="10"/>
<path id="Vector_68" d="M396.339 245.758L387.658 256.876L380.043 245.758" stroke="#13DCF2" stroke-width="2" stroke-miterlimit="10"/>
</g>
</g>
<g id="Group_35">
<g id="Group_36">
<path id="Vector_69" d="M526.545 135.582H593.361C598.543 135.582 602.744 139.783 602.744 144.965V229.456" stroke="#13DCF2" stroke-width="2" stroke-miterlimit="10"/>
<path id="Vector_70" d="M535.274 128.561L526.545 135.582L535.274 142.859" stroke="#13DCF2" stroke-width="2" stroke-miterlimit="10"/>
</g>
<g id="Group_37">
<path id="Vector_71" d="M620.881 242.163V130.284C620.881 125.102 616.68 120.901 611.498 120.901H529.342" stroke="#13DCF2" stroke-width="2" stroke-miterlimit="10"/>
<path id="Vector_72" d="M627.902 233.434L620.881 242.163L613.604 233.434" stroke="#13DCF2" stroke-width="2" stroke-miterlimit="10"/>
</g>
</g>
<g id="Group_38">
<g id="Group_39">
<path id="Vector_73" d="M222.194 147.884H165.378C160.196 147.884 155.995 152.085 155.995 157.267V206.758" stroke="#13DCF2" stroke-width="2" stroke-miterlimit="10"/>
<path id="Vector_74" d="M213.466 140.863L222.194 147.884L213.466 155.161" stroke="#13DCF2" stroke-width="2" stroke-miterlimit="10"/>
</g>
<g id="Group_40">
<path id="Vector_75" d="M137.859 219.464V142.586C137.859 137.404 142.06 133.203 147.242 133.203H222.195" stroke="#13DCF2" stroke-width="2" stroke-miterlimit="10"/>
<path id="Vector_76" d="M130.837 210.736L137.859 219.464L145.135 210.736" stroke="#13DCF2" stroke-width="2" stroke-miterlimit="10"/>
</g>
</g>
<g id="Group_41">
<g id="Group_42">
<path id="Vector_77" d="M297.607 478.47C293.046 466.027 283.13 455.65 270.906 450.53C258.682 445.409 244.331 445.62 232.263 451.097C229.481 441.952 218.982 436.606 209.489 437.732C199.997 438.857 191.775 445.263 186.247 453.06C180.719 460.858 177.482 470.007 174.312 479.025" fill="#F2D06B"/>
<path id="Vector_78" d="M572.303 476.824C570.662 466.18 567.271 455.43 560.095 447.399C552.919 439.368 541.327 434.641 531.055 437.876C528.571 424.832 516.43 415.021 503.374 412.601C490.318 410.181 476.749 414.11 465.18 420.627C453.993 426.929 443.576 436.756 441.721 449.461C431.345 445.55 419.379 446.072 409.383 450.872C399.387 455.671 391.497 464.682 388.059 475.224" fill="#F2D06B"/>
</g>
<g id="server123">
<g id="Group_43">
<g id="Group_44">
<path id="Vector_79" d="M433.63 368.691H415.616V378.432H433.63V368.691Z" fill="#9A8DF2"/>
<path id="Vector_80" d="M433.63 432.81H415.616V442.551H433.63V432.81Z" fill="#9A8DF2"/>
<path id="Vector_81" d="M340.51 403.963H322.496V413.704H340.51V403.963Z" fill="#9A8DF2"/>
</g>
<g id="Group_45">
<g id="Group_46">
<path id="Vector_82" d="M409.911 276.39H345.606C340.505 276.39 336.369 280.525 336.369 285.627V456.767C336.369 461.869 340.505 466.004 345.606 466.004H409.911C415.012 466.004 419.148 461.869 419.148 456.767V285.627C419.148 280.526 415.013 276.39 409.911 276.39Z" fill="#5D30BF"/>
<path id="Vector_83" d="M355.569 466.005H345.606V474.766H355.569V466.005Z" fill="#5D30BF"/>
<path id="Vector_84" d="M410.132 466.005H400.169V474.766H410.132V466.005Z" fill="#5D30BF"/>
</g>
<g id="Group_47">
<path id="Vector_85" d="M404.703 314.786H348.986C346.186 314.786 343.915 312.516 343.915 309.716V297.924C343.915 295.124 346.185 292.854 348.986 292.854H404.703C407.503 292.854 409.774 295.124 409.774 297.924V309.716C409.774 312.516 407.504 314.786 404.703 314.786Z" fill="white"/>
<g id="Group_48">
<path id="Vector_86" d="M405.151 303.82C405.151 306.215 403.209 308.157 400.814 308.157C398.419 308.157 396.477 306.215 396.477 303.82C396.477 301.425 398.419 299.483 400.814 299.483C403.209 299.483 405.151 301.425 405.151 303.82Z" fill="#F2D06B"/>
<path id="Vector_87" d="M392.326 299.483H350.367V301.781H392.326V299.483Z" fill="#F2D06B"/>
<path id="Vector_88" d="M392.326 304.611H350.367V306.909H392.326V304.611Z" fill="#F2D06B"/>
</g>
</g>
<g id="Group_49">
<path id="Vector_89" d="M404.703 349.824H348.986C346.186 349.824 343.915 347.554 343.915 344.753V332.961C343.915 330.161 346.185 327.891 348.986 327.891H404.703C407.503 327.891 409.774 330.161 409.774 332.961V344.753C409.774 347.553 407.504 349.824 404.703 349.824Z" fill="white"/>
<g id="Group_50">
<path id="Vector_90" d="M405.151 338.857C405.151 341.252 403.209 343.194 400.814 343.194C398.419 343.194 396.477 341.252 396.477 338.857C396.477 336.462 398.419 334.52 400.814 334.52C403.209 334.52 405.151 336.462 405.151 338.857Z" fill="#13DCF2"/>
<path id="Vector_91" d="M392.326 334.52H350.367V336.818H392.326V334.52Z" fill="#13DCF2"/>
<path id="Vector_92" d="M392.326 339.648H350.367V341.946H392.326V339.648Z" fill="#13DCF2"/>
</g>
</g>
<g id="Group_51">
<path id="Vector_93" d="M404.703 384.861H348.986C346.186 384.861 343.915 382.591 343.915 379.79V367.998C343.915 365.198 346.185 362.927 348.986 362.927H404.703C407.503 362.927 409.774 365.197 409.774 367.998V379.79C409.774 382.591 407.504 384.861 404.703 384.861Z" fill="white"/>
<g id="Group_52">
<g id="Group_53">
<path id="Vector_94" d="M405.151 374.857C405.151 377.252 403.209 379.194 400.814 379.194C398.419 379.194 396.477 377.252 396.477 374.857C396.477 372.462 398.419 370.52 400.814 370.52C403.209 370.52 405.151 372.461 405.151 374.857Z" fill="#9A8DF2"/>
<path id="Vector_95" d="M392.326 370.52H350.367V372.818H392.326V370.52Z" fill="#9A8DF2"/>
<path id="Vector_96" d="M392.326 375.648H350.367V377.946H392.326V375.648Z" fill="#9A8DF2"/>
</g>
</g>
</g>
<g id="Group_54">
<path id="Vector_97" d="M404.703 419.898H348.986C346.186 419.898 343.915 417.628 343.915 414.828V403.036C343.915 400.236 346.185 397.965 348.986 397.965H404.703C407.503 397.965 409.774 400.235 409.774 403.036V414.828C409.774 417.628 407.504 419.898 404.703 419.898Z" fill="white"/>
<g id="Group_55">
<path id="Vector_98" d="M405.151 408.932C405.151 411.327 403.209 413.269 400.814 413.269C398.419 413.269 396.477 411.327 396.477 408.932C396.477 406.537 398.419 404.595 400.814 404.595C403.209 404.595 405.151 406.536 405.151 408.932Z" fill="#F2D06B"/>
<path id="Vector_99" d="M392.326 404.595H350.367V406.893H392.326V404.595Z" fill="#F2D06B"/>
<path id="Vector_100" d="M392.326 409.723H350.367V412.021H392.326V409.723Z" fill="#F2D06B"/>
</g>
</g>
<g id="Group_56">
<path id="Vector_101" d="M404.703 450.987H348.986C346.186 450.987 343.915 448.717 343.915 445.917V434.125C343.915 431.325 346.185 429.054 348.986 429.054H404.703C407.503 429.054 409.774 431.324 409.774 434.125V445.917C409.774 448.717 407.504 450.987 404.703 450.987Z" fill="white"/>
<g id="Group_57">
<g id="Group_58">
<path id="Vector_102" d="M405.151 439.719C405.151 442.114 403.209 444.056 400.814 444.056C398.419 444.056 396.477 442.114 396.477 439.719C396.477 437.324 398.419 435.382 400.814 435.382C403.209 435.382 405.151 437.324 405.151 439.719Z" fill="#9A8DF2"/>
<path id="Vector_103" d="M392.326 435.382H350.367V437.68H392.326V435.382Z" fill="#9A8DF2"/>
<path id="Vector_104" d="M392.326 440.511H350.367V442.809H392.326V440.511Z" fill="#9A8DF2"/>
</g>
</g>
</g>
</g>
<g id="Group_59">
<g id="Group_60">
<path id="Vector_105" d="M318.314 360.039H254.009C248.908 360.039 244.772 364.174 244.772 369.276V456.768C244.772 461.87 248.908 466.005 254.009 466.005H318.314C323.416 466.005 327.551 461.87 327.551 456.768V369.276C327.551 364.174 323.415 360.039 318.314 360.039Z" fill="#46248F"/>
<path id="Vector_106" d="M263.861 466.005H253.898V474.766H263.861V466.005Z" fill="#46248F"/>
<path id="Vector_107" d="M318.424 466.005H308.461V474.766H318.424V466.005Z" fill="#46248F"/>
</g>
<g id="Group_61">
<path id="Vector_108" d="M312.094 454.75H258.636C256.816 454.75 255.341 453.275 255.341 451.455V371.985C255.341 370.165 256.816 368.69 258.636 368.69H312.094C313.914 368.69 315.389 370.165 315.389 371.985V451.455C315.389 453.275 313.914 454.75 312.094 454.75Z" fill="white"/>
<g id="Group_62">
<path id="Vector_109" d="M317.613 378.432H253.898V380.469H317.613V378.432Z" fill="#46248F"/>
<path id="Vector_110" d="M295.364 383.435H276.958C274.589 383.435 272.669 381.515 272.669 379.146C272.669 376.777 274.589 374.857 276.958 374.857H295.364C297.733 374.857 299.653 376.777 299.653 379.146C299.653 381.514 297.733 383.435 295.364 383.435Z" fill="#46248F"/>
</g>
<g id="Group_63">
<path id="Vector_111" d="M317.613 411.003H253.898V413.04H317.613V411.003Z" fill="#46248F"/>
<path id="Vector_112" d="M295.364 416.31H276.958C274.589 416.31 272.669 414.39 272.669 412.021C272.669 409.652 274.589 407.732 276.958 407.732H295.364C297.733 407.732 299.653 409.652 299.653 412.021C299.653 414.39 297.733 416.31 295.364 416.31Z" fill="#46248F"/>
</g>
<g id="Group_64">
<path id="Vector_113" d="M317.613 440.641H253.898V442.678H317.613V440.641Z" fill="#46248F"/>
<path id="Vector_114" d="M295.364 445.949H276.958C274.589 445.949 272.669 444.029 272.669 441.66C272.669 439.291 274.589 437.371 276.958 437.371H295.364C297.733 437.371 299.653 439.291 299.653 441.66C299.653 444.029 297.733 445.949 295.364 445.949Z" fill="#46248F"/>
</g>
<g id="Group_65">
<path id="Vector_115" d="M270.846 395.736C270.846 397.517 269.402 398.961 267.621 398.961C265.84 398.961 264.396 397.517 264.396 395.736C264.396 393.955 265.84 392.511 267.621 392.511C269.402 392.511 270.846 393.955 270.846 395.736Z" fill="#F2D06B"/>
<path id="Vector_116" d="M279.89 395.736C279.89 397.517 278.446 398.961 276.665 398.961C274.884 398.961 273.44 397.517 273.44 395.736C273.44 393.955 274.884 392.511 276.665 392.511C278.446 392.511 279.89 393.955 279.89 395.736Z" fill="#F2D06B"/>
<path id="Vector_117" d="M297.607 395.736C297.607 397.517 296.163 398.961 294.382 398.961C292.601 398.961 291.157 397.517 291.157 395.736C291.157 393.955 292.601 392.511 294.382 392.511C296.164 392.511 297.607 393.955 297.607 395.736Z" fill="#F2D06B"/>
<path id="Vector_118" d="M307.115 395.736C307.115 397.517 305.671 398.961 303.89 398.961C302.109 398.961 300.665 397.517 300.665 395.736C300.665 393.955 302.109 392.511 303.89 392.511C305.671 392.511 307.115 393.955 307.115 395.736Z" fill="#13DCF2"/>
<path id="Vector_119" d="M288.934 395.736C288.934 397.517 287.49 398.961 285.709 398.961C283.928 398.961 282.484 397.517 282.484 395.736C282.484 393.955 283.928 392.511 285.709 392.511C287.49 392.511 288.934 393.955 288.934 395.736Z" fill="#9A8DF2"/>
</g>
<g id="Group_66">
<path id="Vector_120" d="M270.846 427.316C270.846 429.097 269.402 430.541 267.621 430.541C265.84 430.541 264.396 429.097 264.396 427.316C264.396 425.535 265.84 424.091 267.621 424.091C269.402 424.092 270.846 425.535 270.846 427.316Z" fill="#9A8DF2"/>
<path id="Vector_121" d="M279.89 427.316C279.89 429.097 278.446 430.541 276.665 430.541C274.884 430.541 273.44 429.097 273.44 427.316C273.44 425.535 274.884 424.091 276.665 424.091C278.446 424.091 279.89 425.535 279.89 427.316Z" fill="#13DCF2"/>
<path id="Vector_122" d="M297.607 427.316C297.607 429.097 296.163 430.541 294.382 430.541C292.601 430.541 291.157 429.097 291.157 427.316C291.157 425.535 292.601 424.091 294.382 424.091C296.164 424.092 297.607 425.535 297.607 427.316Z" fill="#F2D06B"/>
<path id="Vector_123" d="M307.115 427.316C307.115 429.097 305.671 430.541 303.89 430.541C302.109 430.541 300.665 429.097 300.665 427.316C300.665 425.535 302.109 424.091 303.89 424.091C305.671 424.092 307.115 425.535 307.115 427.316Z" fill="#13DCF2"/>
<path id="Vector_124" d="M288.934 427.316C288.934 429.097 287.49 430.541 285.709 430.541C283.928 430.541 282.484 429.097 282.484 427.316C282.484 425.535 283.928 424.091 285.709 424.091C287.49 424.091 288.934 425.535 288.934 427.316Z" fill="#F2D06B"/>
</g>
</g>
</g>
<g id="Group_67">
<g id="Group_68">
<path id="Vector_125" d="M502.536 320.793H438.231C433.13 320.793 428.994 324.928 428.994 330.03V456.768C428.994 461.87 433.13 466.005 438.231 466.005H502.536C507.638 466.005 511.773 461.87 511.773 456.768V330.03C511.773 324.928 507.638 320.793 502.536 320.793Z" fill="#46248F"/>
<path id="Vector_126" d="M448.083 466.005H438.12V474.766H448.083V466.005Z" fill="#46248F"/>
<path id="Vector_127" d="M502.647 466.005H492.684V474.766H502.647V466.005Z" fill="#46248F"/>
</g>
<g id="Group_69">
<path id="Vector_128" d="M452.632 455.352H445.021C442.455 455.352 440.375 453.272 440.375 450.706V339.166C440.375 336.6 442.455 334.52 445.021 334.52H452.632C455.198 334.52 457.278 336.6 457.278 339.166V450.707C457.277 453.272 455.198 455.352 452.632 455.352Z" fill="white"/>
<path id="Vector_129" d="M452.262 343.145C452.262 345.076 450.697 346.641 448.766 346.641C446.835 346.641 445.27 345.076 445.27 343.145C445.27 341.214 446.835 339.649 448.766 339.649C450.697 339.649 452.262 341.214 452.262 343.145Z" fill="#13DCF2"/>
</g>
<g id="Group_70">
<path id="Vector_130" d="M475.316 455.352H467.705C465.139 455.352 463.059 453.272 463.059 450.706V339.166C463.059 336.6 465.139 334.52 467.705 334.52H475.316C477.882 334.52 479.962 336.6 479.962 339.166V450.707C479.962 453.272 477.882 455.352 475.316 455.352Z" fill="white"/>
<path id="Vector_131" d="M475.007 343.145C475.007 345.076 473.442 346.641 471.511 346.641C469.58 346.641 468.015 345.076 468.015 343.145C468.015 341.214 469.58 339.649 471.511 339.649C473.442 339.648 475.007 341.214 475.007 343.145Z" fill="#F2D06B"/>
</g>
<g id="Group_71">
<path id="Vector_132" d="M498.001 455.352H490.39C487.824 455.352 485.744 453.272 485.744 450.706V339.166C485.744 336.6 487.824 334.52 490.39 334.52H498.001C500.567 334.52 502.647 336.6 502.647 339.166V450.707C502.647 453.272 500.567 455.352 498.001 455.352Z" fill="white"/>
<path id="Vector_133" d="M498.433 343.145C498.433 345.076 496.868 346.641 494.937 346.641C493.006 346.641 491.441 345.076 491.441 343.145C491.441 341.214 493.006 339.649 494.937 339.649C496.868 339.648 498.433 341.214 498.433 343.145Z" fill="#9A8DF2"/>
</g>
</g>
</g>
</g>
<path id="Vector_134" d="M723.383 480.383H26.617C25.066 480.383 23.808 479.126 23.808 477.574C23.808 476.023 25.065 474.765 26.617 474.765H723.383C724.934 474.765 726.191 476.022 726.191 477.574C726.191 479.126 724.934 480.383 723.383 480.383Z" fill="#9A8DF2"/>
</g>
<g id="Group_72">
<g id="LLL1">
<g id="Group_73">
<g id="Group_74">
<path id="Vector_135" d="M328.236 104.882H205.985C204.024 104.882 202.434 103.292 202.434 101.331V32.271C202.434 30.31 204.024 28.72 205.985 28.72H328.236C330.197 28.72 331.787 30.31 331.787 32.271V101.33C331.788 103.292 330.198 104.882 328.236 104.882Z" fill="#46248F"/>
<path id="Vector_136" d="M324.559 99.442H208.755C208.101 99.442 207.571 98.912 207.571 98.258V42.925H325.742V98.258C325.743 98.912 325.213 99.442 324.559 99.442Z" fill="white"/>
<path id="Vector_137" d="M292.573 38.24H209.913C208.619 38.24 207.571 37.191 207.571 35.898C207.571 34.604 208.62 33.556 209.913 33.556H292.573C293.867 33.556 294.915 34.605 294.915 35.898C294.916 37.192 293.867 38.24 292.573 38.24Z" fill="white"/>
<g id="Group_75">
<path id="Vector_138" d="M310.707 35.898C310.707 37.192 309.658 38.24 308.365 38.24C307.071 38.24 306.023 37.191 306.023 35.898C306.023 34.604 307.072 33.556 308.365 33.556C309.658 33.556 310.707 34.604 310.707 35.898Z" fill="#13DCF2"/>
<path id="Vector_139" d="M318.546 35.898C318.546 37.192 317.497 38.24 316.204 38.24C314.91 38.24 313.862 37.191 313.862 35.898C313.862 34.604 314.911 33.556 316.204 33.556C317.497 33.556 318.546 34.604 318.546 35.898Z" fill="#F2D06B"/>
<path id="Vector_140" d="M325.743 35.898C325.743 37.192 324.694 38.24 323.401 38.24C322.108 38.24 321.059 37.191 321.059 35.898C321.059 34.604 322.108 33.556 323.401 33.556C324.694 33.556 325.743 34.604 325.743 35.898Z" fill="#9A8DF2"/>
</g>
</g>
<g id="Group_76">
<path id="Vector_141" d="M295.082 48.119H318.691C319.998 48.119 321.058 49.179 321.058 50.487V91.88C321.058 93.188 319.998 94.248 318.691 94.248H299.693C298.487 94.248 297.474 93.341 297.34 92.143L292.729 50.75C292.573 49.346 293.671 48.119 295.082 48.119Z" fill="#9A8DF2"/>
<path id="Vector_142" d="M296.925 54.434L298.071 63.594C298.219 64.779 299.226 65.668 300.42 65.668H314.852C316.159 65.668 317.219 64.608 317.219 63.3V54.14C317.219 52.833 316.159 51.773 314.852 51.773H299.274C297.85 51.773 296.748 53.021 296.925 54.434Z" fill="white"/>
<path id="Vector_143" d="M299.038 71.137L300.765 88.767C300.884 89.979 301.903 90.904 303.121 90.904H315.456C316.763 90.904 317.823 89.844 317.823 88.537V70.907C317.823 69.6 316.763 68.539 315.456 68.539H301.394C299.995 68.539 298.901 69.745 299.038 71.137Z" fill="white"/>
</g>
<g id="Group_77">
<path id="Vector_144" d="M243.547 67.686H215.839C214.429 67.686 213.287 68.829 213.287 70.238V91.562C213.287 92.972 214.43 94.114 215.839 94.114H243.547C244.957 94.114 246.1 92.971 246.1 91.562V70.239C246.1 68.829 244.957 67.686 243.547 67.686Z" fill="#F2D06B"/>
<path id="Vector_145" d="M228.23 90.231H218.319C217.614 90.231 217.043 89.66 217.043 88.955V72.585C217.043 71.88 217.614 71.309 218.319 71.309H228.23C228.935 71.309 229.506 71.88 229.506 72.585V88.955C229.506 89.66 228.934 90.231 228.23 90.231Z" fill="white"/>
<path id="Vector_146" d="M241.256 79.661H232.933C232.228 79.661 231.657 79.09 231.657 78.385V72.585C231.657 71.88 232.228 71.309 232.933 71.309H241.256C241.961 71.309 242.532 71.88 242.532 72.585V78.385C242.532 79.09 241.961 79.661 241.256 79.661Z" fill="white"/>
<path id="Vector_147" d="M241.068 90.231H232.745C232.04 90.231 231.469 89.66 231.469 88.955V83.155C231.469 82.45 232.04 81.879 232.745 81.879H241.068C241.773 81.879 242.344 82.45 242.344 83.155V88.955C242.345 89.66 241.773 90.231 241.068 90.231Z" fill="white"/>
</g>
<g id="Group_78">
<path id="Vector_148" d="M243.547 46.913H215.839C214.429 46.913 213.287 48.056 213.287 49.466V62.391C213.287 63.801 214.43 64.944 215.839 64.944H243.547C244.957 64.944 246.1 63.801 246.1 62.391V49.466C246.1 48.056 244.957 46.913 243.547 46.913Z" fill="#9A8DF2"/>
<path id="Vector_149" d="M239.712 60.084H219.676C218.369 60.084 217.309 59.024 217.309 57.716V54.14C217.309 52.833 218.369 51.773 219.676 51.773H239.712C241.019 51.773 242.079 52.833 242.079 54.14V57.716C242.079 59.024 241.019 60.084 239.712 60.084Z" fill="white"/>
</g>
<g id="Group_79">
<path id="Vector_150" d="M252.169 50.257L250.453 91.65C250.397 92.995 251.472 94.115 252.818 94.115H288.6C290.018 94.115 291.118 92.877 290.951 91.469L286.038 50.076C285.897 48.885 284.887 47.988 283.687 47.988H254.535C253.266 47.987 252.222 48.988 252.169 50.257Z" fill="#13DCF2"/>
<path id="Vector_151" d="M257.159 54.071L256.165 87.794C256.126 89.128 257.197 90.231 258.532 90.231H265.06C266.367 90.231 267.427 89.171 267.427 87.864V54.14C267.427 52.833 266.367 51.773 265.06 51.773H259.526C258.245 51.773 257.197 52.791 257.159 54.071Z" fill="white"/>
<path id="Vector_152" d="M271.39 54.14V87.863C271.39 89.171 272.45 90.23 273.757 90.23H283.95C285.369 90.23 286.47 88.99 286.301 87.581L282.259 53.858C282.116 52.668 281.107 51.772 279.908 51.772H273.756C272.45 51.773 271.39 52.833 271.39 54.14Z" fill="white"/>
</g>
</g>
</g>
<g id="cloudserver">
<g id="Group_80">
<path id="Vector_153" d="M250.438 185.01C238.794 167.175 239.784 143.843 252.811 127.275C266.255 110.177 289.678 103.895 310.12 112.013C315.268 85.493 341.01 64.538 368.023 64.878C395.036 65.218 420.243 86.813 424.722 113.454C436.868 100.624 456.254 95.163 473.311 99.768C498.493 106.566 506.821 131.301 508.412 136.047C516.822 161.133 504.928 182.498 502.95 185.916" fill="#F2D06B"/>
<g id="Group_81">
<path id=".COM" d="M326.679 151.267C326.011 151.267 325.438 151.028 324.96 150.549C324.482 150.071 324.243 149.499 324.243 148.831C324.243 148.163 324.482 147.591 324.96 147.113C325.438 146.634 326.011 146.395 326.679 146.395C327.346 146.395 327.919 146.634 328.397 147.113C328.875 147.591 329.114 148.163 329.114 148.831C329.114 149.273 329.002 149.679 328.776 150.049C328.56 150.419 328.266 150.716 327.897 150.942C327.536 151.158 327.13 151.267 326.679 151.267ZM357.577 131.998H354.221C354.023 131.033 353.676 130.185 353.18 129.454C352.692 128.724 352.097 128.11 351.393 127.614C350.699 127.109 349.928 126.73 349.08 126.478C348.232 126.225 347.348 126.099 346.428 126.099C344.75 126.099 343.23 126.523 341.868 127.371C340.514 128.219 339.436 129.468 338.634 131.119C337.84 132.77 337.443 134.795 337.443 137.194C337.443 139.594 337.84 141.619 338.634 143.27C339.436 144.921 340.514 146.17 341.868 147.018C343.23 147.866 344.75 148.29 346.428 148.29C347.348 148.29 348.232 148.163 349.08 147.911C349.928 147.658 350.699 147.284 351.393 146.788C352.097 146.283 352.692 145.665 353.18 144.934C353.676 144.194 354.023 143.346 354.221 142.39H357.577C357.325 143.806 356.865 145.074 356.197 146.192C355.529 147.311 354.7 148.263 353.707 149.048C352.715 149.823 351.601 150.414 350.365 150.82C349.138 151.226 347.826 151.429 346.428 151.429C344.064 151.429 341.962 150.852 340.122 149.697C338.282 148.542 336.834 146.901 335.779 144.772C334.723 142.643 334.195 140.117 334.195 137.194C334.195 134.271 334.723 131.746 335.779 129.617C336.834 127.488 338.282 125.846 340.122 124.691C341.962 123.537 344.064 122.959 346.428 122.959C347.826 122.959 349.138 123.162 350.365 123.568C351.601 123.974 352.715 124.57 353.707 125.354C354.7 126.13 355.529 127.077 356.197 128.196C356.865 129.306 357.325 130.573 357.577 131.998ZM386.382 137.194C386.382 140.117 385.854 142.643 384.798 144.772C383.743 146.901 382.295 148.542 380.455 149.697C378.615 150.852 376.513 151.429 374.149 151.429C371.786 151.429 369.684 150.852 367.844 149.697C366.004 148.542 364.556 146.901 363.5 144.772C362.445 142.643 361.917 140.117 361.917 137.194C361.917 134.271 362.445 131.746 363.5 129.617C364.556 127.488 366.004 125.846 367.844 124.691C369.684 123.537 371.786 122.959 374.149 122.959C376.513 122.959 378.615 123.537 380.455 124.691C382.295 125.846 383.743 127.488 384.798 129.617C385.854 131.746 386.382 134.271 386.382 137.194ZM383.134 137.194C383.134 134.795 382.733 132.77 381.93 131.119C381.136 129.468 380.058 128.219 378.696 127.371C377.343 126.523 375.827 126.099 374.149 126.099C372.472 126.099 370.952 126.523 369.589 127.371C368.236 128.219 367.158 129.468 366.356 131.119C365.562 132.77 365.165 134.795 365.165 137.194C365.165 139.594 365.562 141.619 366.356 143.27C367.158 144.921 368.236 146.17 369.589 147.018C370.952 147.866 372.472 148.29 374.149 148.29C375.827 148.29 377.343 147.866 378.696 147.018C380.058 146.17 381.136 144.921 381.93 143.27C382.733 141.619 383.134 139.594 383.134 137.194ZM392.024 123.338H396.029L405.447 146.341H405.772L415.189 123.338H419.195V151.05H416.055V129.996H415.785L407.125 151.05H404.094L395.434 129.996H395.163V151.05H392.024V123.338Z" fill="white"/>
</g>
</g>
</g>
<g id="laptop">
<g id="Group_82">
<g id="Group_83">
<path id="Vector_154" d="M546.247 245.758H423.996C422.035 245.758 420.445 244.168 420.445 242.207V173.148C420.445 171.187 422.035 169.597 423.996 169.597H546.247C548.208 169.597 549.798 171.187 549.798 173.148V242.207C549.799 244.168 548.209 245.758 546.247 245.758Z" fill="#46248F"/>
<path id="Vector_155" d="M542.57 240.318H426.766C426.112 240.318 425.582 239.788 425.582 239.134V183.801H543.753V239.134C543.754 239.788 543.224 240.318 542.57 240.318Z" fill="white"/>
<path id="Vector_156" d="M510.585 179.117H427.925C426.631 179.117 425.583 178.068 425.583 176.775C425.583 175.481 426.632 174.433 427.925 174.433H510.585C511.879 174.433 512.927 175.482 512.927 176.775C512.927 178.068 511.878 179.117 510.585 179.117Z" fill="white"/>
<g id="Group_84">
<path id="Vector_157" d="M529.342 176.774C529.342 178.068 528.293 179.116 527 179.116C525.706 179.116 524.658 178.067 524.658 176.774C524.658 175.48 525.707 174.432 527 174.432C528.293 174.432 529.342 175.481 529.342 176.774Z" fill="#13DCF2"/>
<path id="Vector_158" d="M536.538 176.774C536.538 178.068 535.489 179.116 534.196 179.116C532.902 179.116 531.854 178.067 531.854 176.774C531.854 175.48 532.903 174.432 534.196 174.432C535.49 174.432 536.538 175.481 536.538 176.774Z" fill="#F2D06B"/>
<path id="Vector_159" d="M543.735 176.774C543.735 178.068 542.686 179.116 541.393 179.116C540.099 179.116 539.051 178.067 539.051 176.774C539.051 175.48 540.1 174.432 541.393 174.432C542.687 174.432 543.735 175.481 543.735 176.774Z" fill="#9A8DF2"/>
</g>
</g>
<g id="Group_85">
<g id="Group_86">
<path id="Vector_160" d="M481.838 206.45L480.507 228.593C480.449 229.563 481.219 230.381 482.191 230.381H525.313C526.331 230.381 527.117 229.486 526.986 228.477L524.113 206.334C524.004 205.493 523.288 204.864 522.44 204.864H483.522C482.629 204.865 481.891 205.56 481.838 206.45Z" fill="#13DCF2"/>
<path id="Vector_161" d="M498.888 213.207V219.962C498.888 220.783 499.768 221.304 500.488 220.908L508.054 216.747C508.875 216.295 508.77 215.083 507.884 214.779L500.318 212.185C499.617 211.945 498.888 212.466 498.888 213.207Z" fill="white"/>
<g id="Group_87">
<path id="Vector_162" d="M490.716 198.338L495.402 201.416L501.198 199.93L496.511 196.852L490.716 198.338Z" fill="#13DCF2"/>
<path id="Vector_163" d="M496.511 196.852L501.198 199.93L506.993 198.444L502.307 195.366L496.511 196.852Z" fill="white"/>
<path id="Vector_164" d="M482.317 200.491C480.919 200.85 480.306 202.492 481.128 203.678C481.621 204.391 482.507 204.721 483.347 204.506L489.607 202.901L484.921 199.824L482.317 200.491Z" fill="#13DCF2"/>
<path id="Vector_165" d="M484.92 199.824L489.606 202.902L495.402 201.416L490.716 198.338L484.92 199.824Z" fill="white"/>
<path id="Vector_166" d="M520.626 190.669L514.11 192.34L518.796 195.418L521.655 194.685C522.265 194.529 522.771 194.103 523.03 193.528C523.744 191.943 522.309 190.238 520.626 190.669Z" fill="#13DCF2"/>
<path id="Vector_167" d="M508.075 193.887L512.761 196.965L518.797 195.417L514.11 192.34L508.075 193.887Z" fill="white"/>
<path id="Vector_168" d="M502.307 195.366L506.993 198.444L512.761 196.965L508.075 193.887L502.307 195.366Z" fill="#13DCF2"/>
</g>
</g>
<g id="Group_88">
<path id="Vector_169" d="M459.013 195.815H435.175C433.13 195.815 431.473 194.157 431.473 192.113C431.473 190.068 433.131 188.411 435.175 188.411H459.013C461.058 188.411 462.715 190.069 462.715 192.113C462.716 194.157 461.058 195.815 459.013 195.815Z" fill="#F2D06B"/>
<path id="Vector_170" d="M460.581 192.113C460.581 192.948 459.905 193.624 459.07 193.624C458.235 193.624 457.559 192.947 457.559 192.113C457.559 191.278 458.236 190.602 459.07 190.602C459.904 190.602 460.581 191.278 460.581 192.113Z" fill="white"/>
</g>
<g id="Group_89">
<path id="Vector_171" d="M459.013 207.677H435.175C433.13 207.677 431.473 206.019 431.473 203.975C431.473 201.93 433.131 200.273 435.175 200.273H459.013C461.058 200.273 462.715 201.931 462.715 203.975C462.716 206.02 461.058 207.677 459.013 207.677Z" fill="#F2D06B"/>
<path id="Vector_172" d="M436.951 203.975C436.951 204.81 436.275 205.486 435.44 205.486C434.605 205.486 433.929 204.809 433.929 203.975C433.929 203.141 434.606 202.464 435.44 202.464C436.274 202.464 436.951 203.14 436.951 203.975Z" fill="white"/>
<path id="Vector_173" d="M442.731 203.975C442.731 204.81 442.054 205.486 441.22 205.486C440.386 205.486 439.709 204.809 439.709 203.975C439.709 203.141 440.386 202.464 441.22 202.464C442.054 202.464 442.731 203.14 442.731 203.975Z" fill="white"/>
</g>
<g id="Group_90">
<path id="Vector_174" d="M459.013 219.54H435.175C433.13 219.54 431.473 217.882 431.473 215.838C431.473 213.793 433.131 212.136 435.175 212.136H459.013C461.058 212.136 462.715 213.794 462.715 215.838C462.716 217.882 461.058 219.54 459.013 219.54Z" fill="#9A8DF2"/>
<path id="Vector_175" d="M435.44 217.348C436.275 217.348 436.951 216.672 436.951 215.837C436.951 215.003 436.275 214.326 435.44 214.326C434.606 214.326 433.929 215.003 433.929 215.837C433.929 216.672 434.606 217.348 435.44 217.348Z" fill="white"/>
<path id="Vector_176" d="M460.902 215.837C460.902 216.672 460.225 217.348 459.391 217.348C458.556 217.348 457.88 216.672 457.88 215.837C457.88 215.002 458.556 214.326 459.391 214.326C460.226 214.326 460.902 215.003 460.902 215.837Z" fill="white"/>
</g>
<g id="Group_91">
<path id="Vector_177" d="M459.013 231.402H435.175C433.13 231.402 431.473 229.744 431.473 227.7C431.473 225.655 433.131 223.998 435.175 223.998H459.013C461.058 223.998 462.715 225.656 462.715 227.7C462.716 229.745 461.058 231.402 459.013 231.402Z" fill="#13DCF2"/>
<path id="Vector_178" d="M460.581 227.7C460.581 228.534 459.905 229.211 459.07 229.211C458.235 229.211 457.559 228.534 457.559 227.7C457.559 226.865 458.236 226.189 459.07 226.189C459.904 226.189 460.581 226.865 460.581 227.7Z" fill="white"/>
<path id="Vector_179" d="M448.927 227.7C448.927 228.534 448.25 229.211 447.416 229.211C446.581 229.211 445.905 228.534 445.905 227.7C445.905 226.865 446.581 226.189 447.416 226.189C448.25 226.189 448.927 226.865 448.927 227.7Z" fill="white"/>
</g>
</g>
</g>
</g>
<g id="LLL2">
<g id="Group_92">
<g id="Group_93">
<path id="Vector_180" d="M527.972 87.343H453.458C451.497 87.343 449.907 85.753 449.907 83.792V42.84C449.907 40.879 451.497 39.289 453.458 39.289H527.972C529.933 39.289 531.523 40.879 531.523 42.84V83.792C531.524 85.753 529.934 87.343 527.972 87.343Z" fill="#46248F"/>
<path id="Vector_181" d="M523.079 81.784H458C456.692 81.784 455.633 80.724 455.633 79.416V51.936H525.448V79.417C525.447 80.724 524.387 81.784 523.079 81.784Z" fill="white"/>
<path id="Vector_182" d="M502.972 48.084H456.97C455.908 48.084 455.047 47.223 455.047 46.161C455.047 45.099 455.908 44.238 456.97 44.238H502.972C504.034 44.238 504.895 45.099 504.895 46.161C504.895 47.222 504.034 48.084 502.972 48.084Z" fill="white"/>
<g id="Group_94">
<path id="Vector_183" d="M513.419 46.127C513.419 47.208 512.543 48.084 511.462 48.084C510.381 48.084 509.505 47.208 509.505 46.127C509.505 45.046 510.381 44.17 511.462 44.17C512.542 44.17 513.419 45.046 513.419 46.127Z" fill="#13DCF2"/>
<path id="Vector_184" d="M519.968 46.127C519.968 47.208 519.092 48.084 518.011 48.084C516.93 48.084 516.054 47.208 516.054 46.127C516.054 45.046 516.93 44.17 518.011 44.17C519.092 44.17 519.968 45.046 519.968 46.127Z" fill="#F2D06B"/>
<path id="Vector_185" d="M525.981 46.127C525.981 47.208 525.105 48.084 524.024 48.084C522.943 48.084 522.067 47.208 522.067 46.127C522.067 45.046 522.943 44.17 524.024 44.17C525.105 44.17 525.981 45.046 525.981 46.127Z" fill="#9A8DF2"/>
</g>
</g>
<path id="Vector_186" d="M470.196 67.145L473.174 57.358C472.229 57.081 471.231 56.926 470.196 56.926C464.343 56.926 459.599 61.67 459.599 67.523C459.599 73.376 464.343 78.12 470.196 78.12C476.048 78.12 480.793 73.376 480.793 67.523C480.793 67.396 480.778 67.272 480.774 67.145H470.196Z" fill="#9A8DF2"/>
<path id="Vector_187" d="M494.261 66.862L504.048 69.84C504.325 68.894 504.48 67.897 504.48 66.862C504.48 61.009 499.736 56.265 493.883 56.265C488.03 56.265 483.286 61.009 483.286 66.862C483.286 72.715 488.03 77.459 493.883 77.459C494.011 77.459 494.134 77.444 494.261 77.44V66.862Z" fill="#13DCF2"/>
<g id="Group_95">
<path id="Vector_188" d="M519.062 59.825H511.185C510.434 59.825 509.825 59.216 509.825 58.465C509.825 57.714 510.434 57.105 511.185 57.105H519.062C519.813 57.105 520.422 57.714 520.422 58.465C520.422 59.216 519.813 59.825 519.062 59.825Z" fill="#F2D06B"/>
<path id="Vector_189" d="M519.062 64.737H511.185C510.434 64.737 509.825 64.128 509.825 63.377C509.825 62.626 510.434 62.017 511.185 62.017H519.062C519.813 62.017 520.422 62.626 520.422 63.377C520.422 64.128 519.813 64.737 519.062 64.737Z" fill="#13DCF2"/>
<path id="Vector_190" d="M519.062 70.045H511.185C510.434 70.045 509.825 69.436 509.825 68.685C509.825 67.934 510.434 67.325 511.185 67.325H519.062C519.813 67.325 520.422 67.934 520.422 68.685C520.422 69.436 519.813 70.045 519.062 70.045Z" fill="#F2D06B"/>
<path id="Vector_191" d="M519.062 75.352H511.185C510.434 75.352 509.825 74.743 509.825 73.992C509.825 73.241 510.434 72.632 511.185 72.632H519.062C519.813 72.632 520.422 73.241 520.422 73.992C520.422 74.743 519.813 75.352 519.062 75.352Z" fill="#9A8DF2"/>
</g>
</g>
</g>
<g id="musicLLL3">
<g id="Group_96">
<g id="Group_97">
<path id="Vector_192" d="M321.968 256.887H233.712C231.389 256.887 229.506 255.004 229.506 252.681V204.177C229.506 201.854 231.389 199.971 233.712 199.971H321.968C324.291 199.971 326.174 201.854 326.174 204.177V252.681C326.174 255.004 324.291 256.887 321.968 256.887Z" fill="#46248F"/>
<path id="Vector_193" d="M317.91 252.374H237.355C235.704 252.374 234.365 251.035 234.365 249.384V213.967H320.9V249.384C320.9 251.036 319.561 252.374 317.91 252.374Z" fill="white"/>
<path id="Vector_194" d="M292.998 209.011H236.069C234.728 209.011 233.64 207.924 233.64 206.582V206.49C233.64 205.149 234.727 204.061 236.069 204.061H292.998C294.339 204.061 295.427 205.148 295.427 206.49V206.582C295.427 207.924 294.339 209.011 292.998 209.011Z" fill="white"/>
<g id="Group_98">
<path id="Vector_195" d="M305.991 206.493C305.991 207.884 304.905 209.011 303.565 209.011C302.225 209.011 301.139 207.884 301.139 206.493C301.139 205.102 302.225 203.975 303.565 203.975C304.905 203.975 305.991 205.102 305.991 206.493Z" fill="#13DCF2"/>
<path id="Vector_196" d="M314.109 206.493C314.109 207.884 313.023 209.011 311.683 209.011C310.343 209.011 309.257 207.884 309.257 206.493C309.257 205.102 310.343 203.975 311.683 203.975C313.023 203.975 314.109 205.102 314.109 206.493Z" fill="#F2D06B"/>
<path id="Vector_197" d="M321.562 206.493C321.562 207.884 320.476 209.011 319.136 209.011C317.796 209.011 316.71 207.884 316.71 206.493C316.71 205.102 317.796 203.975 319.136 203.975C320.476 203.975 321.562 205.102 321.562 206.493Z" fill="#9A8DF2"/>
</g>
</g>
<g id="Group_99">
<path id="Vector_198" d="M285.551 222.779V241.846C285.551 242.909 284.715 243.784 283.653 243.832L269.813 244.459C268.692 244.51 267.751 243.623 267.736 242.501L267.458 222.807C267.442 221.698 268.337 220.791 269.446 220.791H283.564C284.661 220.792 285.551 221.682 285.551 222.779Z" fill="#F2D06B"/>
<path id="Vector_199" d="M277 229.21C277.011 229.419 278.882 229.719 279.104 229.753C279.824 229.863 280.616 229.951 281.341 229.855C281.127 228.785 281.03 227.667 280.996 226.563C280.45 226.639 274.414 227.124 274.414 226.901C274.74 228.984 275.113 231.059 275.533 233.125C274.986 232.806 274.372 232.577 273.739 232.574C273.106 232.571 272.454 232.819 272.061 233.315C271.511 234.009 271.58 235.046 272.011 235.819C272.644 236.956 274.013 237.634 275.301 237.449C276.589 237.264 277.712 236.228 277.999 234.959C278.216 234.001 277.989 233.001 277.698 232.063C277.407 231.125 277.05 230.191 277 229.21Z" fill="white"/>
</g>
<g id="Group_100">
<path id="Vector_200" d="M312.757 242.323V223.256C312.757 222.193 311.921 221.318 310.859 221.27L297.019 220.643C295.898 220.592 294.957 221.479 294.941 222.601L294.663 242.295C294.647 243.404 295.542 244.311 296.65 244.311H310.768C311.867 244.311 312.757 243.421 312.757 242.323Z" fill="#9A8DF2"/>
<path id="Vector_201" d="M309.184 232.779C305.935 234.659 302.807 236.748 299.825 239.027C300.06 235.497 300.238 231.964 300.357 228.428C303.42 229.964 305.97 231.592 309.184 232.779Z" fill="white"/>
</g>
<g id="Group_101">
<path id="Vector_202" d="M241.981 222.419V241.72C241.981 242.719 242.767 243.541 243.764 243.586L257.842 244.224C258.895 244.272 259.779 243.439 259.794 242.384L260.076 222.445C260.091 221.403 259.25 220.551 258.208 220.551H243.848C242.817 220.551 241.981 221.387 241.981 222.419Z" fill="#13DCF2"/>
<path id="Vector_203" d="M250.95 235.7C252.092 235.24 253.124 234.444 253.723 233.368C254.322 232.292 254.446 230.927 253.909 229.819C253.372 228.711 252.133 227.941 250.911 228.09C251.038 227.228 251.166 226.365 251.293 225.503C250.173 226.421 248.942 227.204 247.636 227.828C248.091 229.158 248.78 230.408 249.662 231.502C249.9 230.974 250.138 230.446 250.376 229.918C251.301 230.149 251.944 231.128 251.883 232.08C251.822 233.031 251.126 233.885 250.239 234.235C249.352 234.585 248.316 234.462 247.478 234.008C247.459 234.554 247.439 235.101 247.422 235.648C247.403 236.27 247.426 236.306 248.057 236.278C249.043 236.236 250.031 236.071 250.95 235.7Z" fill="white"/>
</g>
</g>
</g>
</g>
<g id="boy">
<g id="Group_102">
<g id="Group_103">
<g id="Group_104">
<path id="Vector_204" d="M650.041 260.645C642.029 267.67 635.169 275.892 628.346 284.076C626.1 280.606 623.854 277.136 621.608 273.666C621.286 273.168 620.958 272.674 620.627 272.181C619.512 270.52 618.365 268.879 617.294 267.188C616.447 265.85 615.404 264.459 614.822 262.981C613.788 260.355 613.948 257.111 611.942 254.929C611.257 254.184 610.264 253.63 609.264 253.779C607.958 253.974 607.129 255.224 606.293 256.246C605.327 257.428 604.079 258.597 604.037 260.123C604.008 261.145 604.543 262.087 605.04 262.98C605.386 263.602 605.721 264.229 606.045 264.862C607.804 268.294 608.942 271.898 610.397 275.436C611.408 277.896 612.46 280.34 613.533 282.774C615.793 287.907 618.285 292.938 620.997 297.847C621.844 299.381 622.874 301.034 624.557 301.519C626.38 302.044 628.25 301.003 629.862 300.004C638.579 294.599 647.296 289.194 656.013 283.789" fill="#AD7840"/>
<path id="Vector_205" d="M627.473 288.141C627.1 289.478 626.812 290.893 627.13 292.244C627.19 292.5 627.317 292.792 627.576 292.838C627.877 292.891 628.104 292.575 628.229 292.296C628.819 290.98 628.992 289.507 628.936 288.066C628.892 286.919 628.852 285.401 628.408 284.338C628.219 284.716 628.227 285.235 628.142 285.656C627.973 286.497 627.703 287.316 627.473 288.141Z" fill="#573C20"/>
<path id="Vector_206" d="M627.003 297.163C627.717 297.441 628.205 298.212 628.152 298.976C627.802 298.402 627.164 298.029 626.497 297.945C625.814 297.859 625.172 298.067 624.586 298.402C624.793 298.05 624.935 297.63 625.28 297.389C625.772 297.045 626.441 296.944 627.003 297.163Z" fill="#573C20"/>
</g>
<g id="Group_105">
<path id="Vector_207" d="M635.704 273.653C635.346 274.086 634.988 274.519 634.629 274.952C634.341 275.3 634.05 275.654 633.876 276.07C633.711 276.464 633.765 276.768 633.788 277.17C633.81 277.558 633.743 277.928 633.712 278.331C633.649 279.136 633.711 279.947 633.797 280.748C634.317 285.597 635.75 290.346 638 294.673C638.127 294.916 638.281 295.18 638.543 295.262C638.832 295.352 639.133 295.185 639.39 295.025C642.411 293.139 645.433 291.253 648.454 289.367C649.006 289.022 649.582 288.653 649.894 288.082C650.309 287.322 650.164 286.393 650.022 285.539C649.887 284.724 649.765 283.907 649.658 283.088C649.121 279.001 648.897 274.846 649.072 270.725C649.104 269.957 649.326 269.279 649.317 268.503C649.305 267.467 649.315 266.43 649.353 265.394C649.428 263.322 649.606 261.255 649.886 259.201C647.557 261.059 645.222 262.923 643.121 265.035C641.435 266.729 639.909 268.573 638.386 270.414C637.491 271.493 636.598 272.573 635.704 273.653Z" fill="#F2D06B"/>
<path id="Vector_208" d="M643.534 292.331C642.223 293.366 640.79 294.248 639.275 294.95C640.074 286.235 642.37 277.659 646.033 269.711C645.182 277.551 644.331 285.391 643.481 293.231" fill="#B59C50"/>
</g>
<g id="Group_106">
<g id="Group_107">
<g id="Group_108">
<path id="Vector_209" d="M594.697 246.157L603.321 245.246C604 245.174 604.655 245.52 604.978 246.122L614.07 263.05C614.342 263.557 614.336 264.167 614.055 264.668L613.455 265.736C613.24 266.119 612.882 266.403 612.46 266.526L602.761 269.352C601.935 269.593 601.06 269.17 600.735 268.373L592.935 249.239C592.753 248.794 592.771 248.292 592.984 247.861L593.367 247.084C593.622 246.567 594.124 246.217 594.697 246.157Z" fill="#9A8DF2"/>
<g id="Group_109">
<g id="Group_110">
<path id="Vector_210" d="M594.807 245.574L604.227 243.829C604.941 243.697 605.653 244.064 605.959 244.723L614.375 262.828C614.786 263.711 614.313 264.753 613.378 265.026L603.662 267.857C602.887 268.083 602.066 267.693 601.752 266.95L593.633 247.759C593.235 246.821 593.807 245.759 594.807 245.574Z" fill="#351B6B"/>
<path id="Vector_211" d="M608.741 264.934C608.741 265.326 608.423 265.644 608.031 265.644C607.639 265.644 607.321 265.326 607.321 264.934C607.321 264.542 607.639 264.224 608.031 264.224C608.423 264.223 608.741 264.541 608.741 264.934Z" fill="white"/>
</g>
<path id="Vector_212" d="M595.426 246.388L604.366 244.732C604.723 244.666 605.079 244.85 605.232 245.179L612.707 261.26C612.912 261.702 612.676 262.222 612.208 262.359L603.028 265.034C602.641 265.147 602.23 264.952 602.073 264.58L594.838 247.48C594.641 247.012 594.927 246.481 595.426 246.388Z" fill="white"/>
</g>
</g>
<path id="Vector_213" d="M596.25 248.272L596.287 248.362C596.438 248.73 596.834 248.934 597.222 248.845L604.312 247.215C604.817 247.099 605.087 246.546 604.867 246.077C604.706 245.733 604.329 245.546 603.958 245.626L596.83 247.166C596.335 247.274 596.057 247.803 596.25 248.272Z" fill="#13DCF2"/>
<path id="Vector_214" d="M601.891 258.951L603.113 262.318C603.281 262.781 603.777 263.037 604.252 262.905L609.93 261.325C610.503 261.165 610.787 260.521 610.518 259.99L608.979 256.953C608.783 256.565 608.347 256.362 607.924 256.461L602.562 257.711C602.013 257.839 601.698 258.42 601.891 258.951Z" fill="#F2D06B"/>
<path id="Vector_215" d="M606.342 251.195L603.092 252.111L604.624 249.735C604.158 249.534 603.641 249.406 603.089 249.376C600.949 249.262 599.136 250.636 599.04 252.444C598.944 254.252 600.601 255.811 602.741 255.924C604.881 256.038 606.694 254.664 606.79 252.856C606.822 252.259 606.648 251.695 606.342 251.195Z" fill="#9A8DF2"/>
</g>
<path id="Vector_216" d="M614.285 254.814C615.09 256.1 615.52 257.589 615.662 259.092C615.734 259.853 615.737 260.623 615.673 261.385C615.643 261.746 615.491 262.09 615.392 262.441C615.285 262.821 615.048 263.29 615.028 263.682C615.041 263.442 614.614 262.903 614.497 262.683C614.291 262.295 614.084 261.906 613.878 261.518C613.515 260.835 613.079 260.165 612.848 259.426C612.515 258.359 612.355 257.222 611.81 256.247C611.159 255.083 609.949 254.56 609.125 253.557C608.496 252.792 608.188 251.841 608.069 250.869C607.953 249.919 607.794 248.881 608.248 247.995C608.389 247.719 608.644 247.435 608.95 247.484C609.227 247.528 609.385 247.815 609.508 248.068C610.122 249.331 610.893 250.518 611.796 251.593C612.653 252.614 613.576 253.681 614.285 254.814Z" fill="#AD7840"/>
<g id="Group_111">
<path id="Vector_217" d="M595.471 253.252C595.709 252.865 595.968 252.5 596.218 252.169C596.551 251.729 597.005 251.275 597.555 251.32C598.114 251.366 598.51 251.947 598.53 252.508C598.55 253.068 598.286 253.598 597.991 254.075C598.458 253.971 598.956 254.259 599.185 254.679C599.413 255.098 599.444 255.53 599.316 255.976C599.242 256.234 599.148 256.486 599.037 256.73C598.978 256.859 598.84 257.275 598.711 257.338C598.958 257.217 599.21 257.095 599.48 257.043C599.75 256.99 600.047 257.014 600.275 257.168C600.585 257.377 600.708 257.779 600.715 258.153C600.728 258.884 600.389 259.57 600.059 260.222C600.367 260.023 600.696 259.82 601.062 259.803C601.429 259.786 601.834 260.028 601.861 260.394C601.882 260.674 601.688 260.919 601.502 261.128C600.949 261.752 600.362 262.358 599.951 263.084C599.541 263.81 599.323 264.691 599.573 265.486C598.928 265.308 598.279 264.948 597.827 264.447C597.638 264.237 597.621 264.082 597.582 263.812C597.571 263.732 597.484 262.731 597.59 262.752C597.007 262.635 596.489 262.227 596.239 261.686C595.989 261.146 596.013 260.487 596.301 259.966C596.246 260.064 595.689 259.741 595.629 259.696C595.424 259.543 595.256 259.326 595.143 259.097C594.906 258.619 595.165 257.866 595.426 257.442C595.301 257.646 594.873 257.216 594.814 257.136C594.633 256.891 594.561 256.581 594.535 256.277C594.449 255.243 594.898 254.183 595.471 253.252Z" fill="#AD7840"/>
<g id="Group_112">
<path id="Vector_218" d="M600.091 260.194C599.421 260.026 598.688 260.322 598.228 260.837C598.004 261.089 597.838 261.387 597.725 261.704C597.63 261.97 597.494 262.37 597.548 262.653C597.865 262.123 598.141 261.621 598.593 261.184C598.813 260.971 599.052 260.779 599.308 260.611C599.444 260.521 599.927 260.153 600.091 260.194Z" fill="#573C20"/>
<path id="Vector_219" d="M596.421 259.718C596.954 258.682 597.797 257.809 598.814 257.243C598.162 257.327 597.565 257.697 597.139 258.199C596.713 258.7 596.447 259.325 596.303 259.968" fill="#573C20"/>
<path id="Vector_220" d="M597.914 253.989C597.105 254.069 596.392 254.619 595.971 255.314C595.55 256.009 595.389 256.834 595.352 257.646C595.352 257.582 595.527 257.4 595.559 257.314C595.609 257.177 595.645 257.034 595.695 256.897C595.797 256.618 595.921 256.346 596.062 256.084C596.348 255.556 596.711 255.069 597.136 254.645C597.377 254.406 597.637 254.186 597.914 253.989Z" fill="#573C20"/>
</g>
</g>
</g>
</g>
<g id="Group_113">
<path id="Vector_221" d="M632.26 454.676C629.129 458.427 624.882 461.235 620.205 462.647C618.262 463.233 616.185 463.615 614.566 464.838C612.279 466.565 611.421 469.553 610.701 472.328C610.513 473.054 610.373 473.953 610.94 474.445C611.304 474.76 611.831 474.777 612.312 474.778C621.705 474.793 631.099 474.808 640.492 474.823C640.97 474.824 641.483 474.814 641.871 474.534C642.38 474.167 642.498 473.47 642.572 472.847C643.265 466.973 643.684 461.067 643.827 455.154" fill="#F2D06B"/>
<g id="Group_114">
<path id="Vector_222" d="M641.644 327.07C635.614 364.804 631.511 418.751 629.354 456.903C634.557 456.295 639.252 457.039 644.343 457.767C645.556 455.269 645.039 452.778 645.375 450.146C645.817 446.688 647.437 443.191 648.516 439.888C650.883 432.646 653.251 425.405 655.618 418.163C656.431 415.677 657.246 412.982 656.426 410.498C655.697 408.293 653.773 406.612 653.174 404.369C652.634 402.35 653.253 400.223 653.867 398.226C657.59 386.116 661.313 374.006 665.036 361.896C668.442 350.817 670.609 339.714 673.504 328.484" fill="#281450"/>
<path id="Vector_223" d="M639.211 455.85C642.528 442.984 643.787 429.748 648.458 417.145C651.069 409.797 647.453 409.267 644.083 404.332C648.86 384.698 659.013 365.792 665.65 346.455" stroke="#46248F" stroke-miterlimit="10"/>
</g>
<path id="Vector_224" d="M610.808 473.142C621.313 473.283 631.823 472.983 642.302 472.243" stroke="#351B6B" stroke-width="0.5" stroke-miterlimit="10" stroke-linecap="round" stroke-linejoin="round"/>
<g id="Group_115">
<path id="Vector_225" d="M624.877 456.794C624.582 456.792 624.268 456.817 624.028 456.989C623.641 457.267 623.593 457.869 623.844 458.273C624.095 458.678 624.571 458.898 625.044 458.958C625.516 459.018 625.994 458.94 626.465 458.871C628.088 458.631 629.772 458.491 631.349 458.948C632.925 459.404 634.385 460.571 634.773 462.165C634.889 462.644 634.843 463.262 634.4 463.476C633.923 463.706 633.397 463.298 633.026 462.92C631.675 461.549 630.324 460.178 628.973 458.807C628.475 458.302 627.981 457.616 627.345 457.284C626.632 456.913 625.668 456.798 624.877 456.794Z" stroke="#351B6B" stroke-width="0.5" stroke-miterlimit="10" stroke-linecap="round" stroke-linejoin="round"/>
<path id="Vector_226" d="M624.589 460.111C626.256 460.532 627.837 461.29 629.21 462.325" stroke="#351B6B" stroke-width="0.5" stroke-miterlimit="10" stroke-linecap="round" stroke-linejoin="round"/>
<path id="Vector_227" d="M621.951 461.313C623.572 461.939 625.125 462.74 626.576 463.697" stroke="#351B6B" stroke-width="0.5" stroke-miterlimit="10" stroke-linecap="round" stroke-linejoin="round"/>
<path id="Vector_228" d="M619.33 461.809C620.861 462.693 622.318 463.705 623.682 464.83" stroke="#351B6B" stroke-width="0.5" stroke-miterlimit="10" stroke-linecap="round" stroke-linejoin="round"/>
</g>
</g>
<g id="Group_116">
<path id="Vector_229" d="M689.217 456.803C688.862 457.927 688.127 458.906 687.245 459.688C686.362 460.47 685.333 461.069 684.281 461.601C682.495 462.505 680.621 463.234 678.694 463.775C677.868 464.007 677.07 464.293 676.236 464.469C675.483 464.628 674.642 464.789 674.029 465.288C671.805 467.096 671.055 470.113 670.435 472.911C670.273 473.644 670.165 474.547 670.749 475.018C671.124 475.32 671.651 475.318 672.132 475.302C680.057 475.027 687.982 474.759 695.907 474.488C697.174 474.445 698.569 474.225 699.829 474.358C700.724 474.452 701.729 474.69 702.455 473.945C703.005 473.381 703.01 472.496 702.965 471.709C702.649 466.115 701.608 460.591 700.57 455.086" fill="#F2D06B"/>
<g id="Group_117">
<path id="Vector_230" d="M658.255 329.726C665.828 367.977 677.248 420.855 685.533 458.958C690.65 457.407 696.662 456.326 701.965 457.012C700.997 447.173 700.396 437.301 699.867 427.43C699.519 420.942 701.075 411.337 696.757 405.896C695.621 404.464 694.043 403.423 692.958 401.952C691.187 399.551 690.971 396.379 690.839 393.398C690.299 381.204 690.074 368.996 690.193 356.791C690.304 345.355 691.723 333.887 690.604 322.512" fill="#351B6B"/>
<path id="Vector_231" d="M684.489 337.537C685.559 346.949 685.375 356.774 686.049 366.299C686.774 376.544 687.624 386.781 688.598 397.006C688.902 400.195 689.264 403.52 691.002 406.211C692.062 407.851 693.584 409.167 694.548 410.866C695.818 413.103 696 415.773 696.154 418.34C696.915 431.067 697.675 443.794 698.436 456.521" stroke="#46248F" stroke-miterlimit="10"/>
</g>
<path id="Vector_232" d="M670.796 473.01C674.386 473.552 678.041 473.36 681.666 473.166C688.608 472.796 695.55 472.425 702.492 472.055" stroke="#351B6B" stroke-width="0.5" stroke-miterlimit="10" stroke-linecap="round" stroke-linejoin="round"/>
<g id="Group_118">
<path id="Vector_233" d="M683.237 459.017C682.904 458.942 682.503 458.899 682.27 459.148C681.963 459.475 682.21 460.032 682.571 460.298C683.464 460.955 684.701 460.661 685.793 460.467C687.174 460.221 688.592 460.184 689.983 460.358C690.859 460.467 691.764 460.678 692.431 461.257C692.748 461.532 693.006 461.902 693.053 462.32C693.1 462.738 692.892 463.198 692.504 463.359C692.173 463.496 691.796 463.401 691.456 463.289C689.988 462.802 688.666 462.018 687.542 460.964C686.427 459.914 684.705 459.349 683.237 459.017Z" stroke="#351B6B" stroke-width="0.5" stroke-miterlimit="10" stroke-linecap="round" stroke-linejoin="round"/>
<path id="Vector_234" d="M681.567 461.607C683.162 461.991 684.708 462.582 686.154 463.359" stroke="#351B6B" stroke-width="0.5" stroke-miterlimit="10" stroke-linecap="round" stroke-linejoin="round"/>
<path id="Vector_235" d="M677.365 463.359C679.128 463.57 680.818 464.343 682.131 465.538" stroke="#351B6B" stroke-width="0.5" stroke-miterlimit="10" stroke-linecap="round" stroke-linejoin="round"/>
<path id="Vector_236" d="M680.128 462.599C681.562 463.179 682.928 463.927 684.188 464.825" stroke="#351B6B" stroke-width="0.5" stroke-miterlimit="10" stroke-linecap="round" stroke-linejoin="round"/>
</g>
</g>
<g id="Group_119">
<path id="Vector_237" d="M691.887 298.439C692.026 301.775 692.148 305.111 692.254 308.448C692.422 313.745 692.548 319.043 692.632 324.342C692.674 326.991 692.705 329.641 692.726 332.291C692.73 332.807 692.794 339.208 692.688 339.215C691.845 339.271 691.001 339.325 690.158 339.376C679.614 340.009 669.042 340.183 658.483 339.898C653.203 339.756 647.927 339.499 642.658 339.127C640.519 338.976 639.093 338.989 639.219 336.512C639.353 333.875 639.544 331.239 639.728 328.605C640.458 318.122 641.412 307.655 642.586 297.213C643.334 290.567 644.171 283.933 645.098 277.313C645.8 272.3 645.439 265.073 648.43 260.87C649.215 259.767 650.405 259.086 651.577 258.489C660.947 253.722 673.004 251.889 682.58 256.913C684.798 258.077 686.959 258.954 688.396 261.26C689.79 263.497 690.032 266.304 690.223 268.981C690.922 278.789 691.477 288.61 691.887 298.439Z" fill="#F2D06B"/>
<path id="Vector_238" d="M691.748 296.48C691.612 292.641 691.475 288.802 691.339 284.963C691.328 284.66 691.309 284.333 691.119 284.096C690.843 283.752 690.336 283.74 689.896 283.718C687.403 283.595 685.279 282.226 683.844 280.244C683.873 283.085 685.065 285.857 686.287 288.378C687.712 291.319 689.554 294.058 691.748 296.48Z" fill="#B59C50"/>
<path id="Vector_239" d="M670.134 300.699C668.536 298.303 666.85 295.881 665.48 293.347C667.197 292.215 668.913 291.083 670.63 289.952C665.901 288.588 661.238 287.473 656.509 286.109C655.508 290.319 654.506 294.53 653.505 298.74C655.719 297.798 657.811 296.568 659.712 295.092C661.221 298.431 662.831 301.598 665.112 304.466C666.552 303.353 668.532 301.559 670.134 300.699Z" fill="white"/>
</g>
<g id="Group_120">
<path id="Vector_240" d="M659.356 258.826C659.27 259.553 659.213 260.381 659.704 260.924C660.15 261.417 660.887 261.49 661.552 261.505C664.943 261.579 668.346 260.971 671.502 259.73C672.5 259.337 673.542 258.819 674.038 257.869C674.353 257.266 674.405 256.566 674.451 255.888C674.923 248.951 675.395 242 675.146 235.051C675.087 233.4 674.971 231.69 674.194 230.231C673.417 228.773 671.798 227.634 670.172 227.931C668.381 228.258 667.308 230.077 666.612 231.759C665.052 235.527 664.17 239.575 664.022 243.651C663.968 245.148 663.662 246.229 662.042 246.377C660.485 246.52 660.732 247.228 660.549 248.765C660.152 252.119 659.754 255.472 659.356 258.826Z" fill="#AD7840"/>
<path id="Vector_241" d="M659.782 255.859C662.28 255.422 664.613 254.094 666.265 252.17C667.917 250.246 668.877 247.74 668.932 245.204C667.172 247.505 664.076 248.703 661.225 248.184C660.979 248.696 660.658 249.178 660.551 249.735C660.421 250.413 660.308 251.094 660.208 251.777C660.01 253.131 659.868 254.493 659.782 255.859Z" fill="#573C20"/>
</g>
<g id="boyhead">
<g id="Group_121">
<path id="Vector_242" d="M649.158 240.125C647.887 253.988 662.24 251.066 669.649 247.696C675.165 240.284 682.452 222.675 672.18 216.387C657.015 207.812 651.013 219.878 649.158 240.125Z" fill="#AD7840"/>
<path id="Vector_243" d="M689.635 223.556C691.459 222.008 692.198 219.303 691.415 217.043C690.632 214.783 688.378 213.114 685.987 213.026C686.705 210.818 685.916 208.308 684.315 206.639C682.284 204.521 678.838 203.922 676.212 205.23C676.65 202.281 674.121 199.443 671.195 198.87C668.269 198.296 665.226 199.579 662.988 201.549C661.081 199.453 657.855 198.678 655.204 199.679C652.553 200.68 650.645 203.395 650.6 206.228C647.992 205.918 645.281 207.617 644.423 210.1C643.565 212.582 644.647 215.592 646.89 216.96C645.211 218.519 644.959 221.379 646.339 223.208C647.248 224.413 648.78 225.057 650.272 225.022C650.976 225.005 651.766 224.849 652.371 224.468C652.722 224.247 653.805 223.044 653.375 222.545C654.468 223.813 656.072 224.752 657.742 224.637C659.412 224.521 661.014 223.1 660.953 221.427C661.232 223.004 662.625 224.562 664.273 224.624C665.845 224.682 667.336 223.627 668.031 222.217C667.789 223.268 668.238 224.445 669.119 225.067C670 225.689 671.259 225.719 672.168 225.139C670.765 226.543 669.731 228.219 669.433 230.222C669.212 231.711 669.5 233.316 670.429 234.5C671.205 235.489 672.692 236.324 673.991 236.051C674.992 235.841 675.993 234.39 676.353 233.512C676.5 234.249 676.397 234.987 676.271 235.718C676.156 236.385 676.302 236.911 676.305 237.584C676.308 238.222 676.198 238.861 675.987 239.463C675.844 239.869 675.139 240.672 675.129 241.031C675.066 243.386 675.002 245.741 674.939 248.096C676.54 247.142 677.583 245.315 677.59 243.451C679.1 244.334 681.089 244.251 682.593 243.358C684.097 242.465 685.104 240.832 685.365 239.102C685.627 237.372 685.178 235.569 684.256 234.082C685.759 234.66 687.542 234.279 688.8 233.274C690.058 232.269 690.809 230.71 691.007 229.112C691.225 227.364 690.966 224.822 689.635 223.556Z" fill="#351B6B"/>
<g id="Group_122">
<path id="Vector_244" d="M677.222 231.548C677.792 231.508 678.356 231.728 678.829 232.05C679.969 232.828 680.629 234.192 680.746 235.567C680.863 236.942 680.484 238.324 679.878 239.563C679.399 240.543 678.762 241.468 677.89 242.122C677.018 242.776 675.886 243.134 674.817 242.921C674.418 242.842 674.01 242.666 673.791 242.323C673.624 242.061 673.589 241.739 673.566 241.429C673.366 238.707 673.59 235.309 675.159 232.943C675.621 232.245 676.353 231.609 677.222 231.548Z" fill="#AD7840"/>
<path id="Vector_245" d="M675.403 237.772C675.392 238.61 675.672 239.533 676.396 239.955C676.763 240.168 677.324 240.176 677.523 239.801C677.634 239.592 677.592 239.332 677.49 239.118C677.388 238.904 677.234 238.721 677.112 238.519C676.805 238.011 676.74 237.38 676.884 236.809C676.958 236.514 677.087 236.231 677.27 235.987C677.468 235.721 677.793 235.59 677.989 235.342C678.327 234.915 677.754 234.657 677.347 234.674C676.775 234.697 676.284 235.284 675.999 235.73C675.612 236.333 675.412 237.057 675.403 237.772Z" fill="#573C20"/>
</g>
<g id="Group_123">
<g id="Group_124">
<path id="Vector_246" d="M660.922 234.363C660.951 234.593 661.011 234.824 661.142 235.015C661.273 235.206 661.483 235.353 661.715 235.363C661.992 235.375 662.244 235.196 662.421 234.982C662.826 234.493 662.941 233.829 662.977 233.196C662.992 232.933 662.995 232.663 662.915 232.413C662.835 232.162 662.658 231.929 662.409 231.844C661.275 231.455 660.838 233.698 660.922 234.363Z" fill="#351B6B"/>
<path id="Vector_247" d="M660.67 229.15C661.386 228.671 662.349 228.589 663.136 228.94C663.922 229.29 664.505 230.062 664.628 230.914" stroke="#351B6B" stroke-width="0.5" stroke-miterlimit="10" stroke-linecap="round" stroke-linejoin="round"/>
</g>
<g id="Group_125">
<path id="Vector_248" d="M652.177 232.826C652.206 233.056 652.266 233.287 652.397 233.478C652.528 233.669 652.738 233.815 652.97 233.826C653.247 233.838 653.499 233.659 653.676 233.445C654.081 232.956 654.196 232.292 654.232 231.659C654.247 231.396 654.25 231.126 654.17 230.875C654.09 230.624 653.913 230.391 653.663 230.306C652.531 229.918 652.093 232.161 652.177 232.826Z" fill="#351B6B"/>
<path id="Vector_249" d="M656.011 228.346C655.58 227.766 654.901 227.376 654.183 227.295C653.465 227.214 652.716 227.444 652.167 227.914" stroke="#351B6B" stroke-width="0.5" stroke-miterlimit="10" stroke-linecap="round" stroke-linejoin="round"/>
</g>
<path id="Vector_250" d="M654.442 243.491C655.755 243.917 657.205 243.906 658.511 243.459C659.817 243.013 660.971 242.134 661.749 240.994C661.955 240.693 662.141 240.328 662.04 239.977C659.938 240.918 657.383 240.771 655.402 239.595C655.401 240.963 655.081 242.282 654.442 243.491Z" fill="white"/>
<path id="Vector_251" d="M655.066 234.631C654.582 234.999 654.052 235.317 653.64 235.764C653.228 236.212 652.943 236.834 653.084 237.426C653.186 237.857 653.508 238.219 653.9 238.425C654.789 238.893 655.947 238.559 656.65 237.841C657.353 237.124 657.67 236.108 657.794 235.111C657.888 234.357 657.885 233.595 657.882 232.835C657.881 232.598 657.879 232.355 657.794 232.134C657.682 231.842 657.31 231.53 656.989 231.743C656.751 231.901 656.782 232.319 656.7 232.568C656.42 233.411 655.76 234.104 655.066 234.631Z" fill="#AD5418"/>
</g>
</g>
</g>
<g id="Group_126">
<g id="Group_127">
<path id="Vector_252" d="M717.346 283.652C718.927 284.962 720.586 286.383 721.198 288.343C721.94 290.719 720.955 293.284 719.702 295.434C714.302 304.705 704.217 310.12 696.999 318.058C697.419 317.596 692.99 312.734 692.447 312.34C692.05 312.055 697.914 302.231 698.473 301.297C700.431 298.026 703.094 294.922 704.761 291.549C701.318 289.822 697.876 288.096 694.433 286.369C692.712 285.506 690.99 284.642 689.269 283.779C687.894 283.089 686.552 282.591 685.613 281.327C684.926 280.403 684.636 279.251 684.368 278.132C683.041 272.59 681.539 266.74 684.853 261.587C685.191 261.061 685.614 260.526 686.218 260.369C686.933 260.184 687.657 260.582 688.28 260.979C690.265 262.243 692.158 263.645 694.048 265.046C697.99 267.967 701.907 270.865 705.676 273.986C709.566 277.208 713.456 280.43 717.346 283.652Z" fill="#AD7840"/>
<path id="Vector_253" d="M708.251 290.742C709.025 290.812 709.825 291.075 710.323 291.671C710.424 291.791 710.512 291.929 710.535 292.084C710.558 292.239 710.5 292.414 710.364 292.493C710.174 292.603 709.937 292.49 709.744 292.386C708.135 291.524 706.528 291.479 704.774 291.599C705.794 290.94 707.042 290.633 708.251 290.742Z" fill="#573C20"/>
<path id="Vector_254" d="M716.627 290.904C716.883 291.786 717.589 292.524 718.458 292.82C717.834 292.249 717.495 291.41 717.424 290.567C717.351 289.703 717.575 288.919 717.8 288.099C717.391 288.35 716.894 288.607 716.714 289.06C716.484 289.639 716.454 290.307 716.627 290.904Z" fill="#573C20"/>
</g>
<path id="Vector_255" d="M706.31 273.758C706.518 273.932 706.731 274.115 706.844 274.362C707.116 274.96 706.7 275.628 706.317 276.163C703.27 280.415 701.151 285.327 700.15 290.461C696.03 289.491 692.053 287.917 688.385 285.806C687.289 285.175 686.209 284.488 685.324 283.585C682.853 281.065 682.254 277.291 681.995 273.771C681.797 271.084 681.727 268.35 682.36 265.731C682.789 263.957 683.563 262.236 684.737 260.828C685.128 260.359 686.068 259.135 686.732 259.102C687.467 259.066 688.865 260.448 689.465 260.866C693.186 263.458 696.832 266.157 700.397 268.958C702.393 270.525 704.364 272.126 706.31 273.758Z" fill="#F2D06B"/>
<g id="Group_128">
<path id="Vector_256" d="M689.554 324.849C689.495 325.733 689.47 326.666 689.879 327.451C690.247 328.159 690.918 328.651 691.567 329.117C692.972 330.127 694.498 331.179 696.229 331.2C697.951 331.221 699.496 330.216 700.921 329.25C701.418 328.913 701.983 328.403 701.811 327.827C701.651 327.294 700.959 327.139 700.407 327.218C699.856 327.297 699.293 327.512 698.759 327.356C698.911 326.939 699.041 326.469 698.866 326.062C698.69 325.654 698.067 325.443 697.794 325.793C698.028 325.392 697.99 324.85 697.702 324.486C697.415 324.122 696.896 323.959 696.452 324.092C696.832 322.26 697.132 320.397 697.069 318.527C697.006 316.657 696.563 314.768 695.555 313.192C695.112 312.5 694.325 311.5 693.392 311.556C692.557 311.605 692.127 312.522 691.859 313.196C690.941 315.5 690.445 318.071 690.051 320.51C689.817 321.947 689.652 323.396 689.554 324.849Z" fill="#AD7840"/>
<path id="Vector_257" d="M695.533 327.48C696.235 327.821 697.032 328.17 697.77 327.913C698.2 327.763 698.601 327.412 699.047 327.505C698.385 327.261 697.653 327.211 696.964 327.363C696.8 327.399 696.631 327.447 696.466 327.414C696.301 327.38 696.144 327.232 696.17 327.066C696.202 326.861 696.452 326.79 696.651 326.731C697.132 326.589 697.556 326.266 697.822 325.841C697.279 325.795 696.721 325.97 696.303 326.319C696.675 325.623 696.711 324.786 696.431 324.052C696.411 325.279 696.239 326.438 695.533 327.48Z" fill="#573C20"/>
</g>
</g>
</g>
</g>
</g>
</g>
<defs>
<clipPath id="clip0_3_953">
<rect width="750" height="500" fill="white"/>
</clipPath>
</defs>
</svg>
