<svg width="500" height="500" viewBox="0 0 500 500" fill="none" xmlns="http://www.w3.org/2000/svg">
<rect width="500" height="500" fill="#F5F5F5"/>
<g id="21743700_6471740 1" clip-path="url(#clip0_0_1)">
<g id="BACKGROUND">
<path id="Vector" d="M500 0H0V500H500V0Z" fill="white"/>
</g>
<g id="OBJECTS">
<g id="Group">
<g id="toplalptop">
<g id="toplaptop1">
<g id="Group_2">
<g id="Group_3">
<g id="Group_4">
<path id="Vector_2" d="M56.369 51.296H236.505C240.067 51.296 242.955 54.184 242.955 57.746V147.828C242.955 151.39 240.067 154.278 236.505 154.278H57.564C54.035 154.278 51.162 151.442 51.115 147.914L49.92 57.831C49.872 54.236 52.773 51.296 56.369 51.296Z" fill="#46248F"/>
<path id="Vector_3" d="M53.344 64.425H239.529V146.4C239.529 149.25 237.219 151.56 234.369 151.56H59.744C56.925 151.56 54.627 149.297 54.585 146.478L53.344 64.425Z" fill="white"/>
</g>
<g id="Group_5">
<path id="Vector_4" d="M222.108 58.137C222.108 59.928 220.656 61.379 218.866 61.379C217.075 61.379 215.624 59.928 215.624 58.137C215.624 56.346 217.076 54.895 218.866 54.895C220.656 54.895 222.108 56.346 222.108 58.137Z" fill="#13DCF2"/>
<path id="Vector_5" d="M230.383 58.137C230.383 59.928 228.932 61.379 227.141 61.379C225.351 61.379 223.899 59.928 223.899 58.137C223.899 56.346 225.351 54.895 227.141 54.895C228.931 54.895 230.383 56.346 230.383 58.137Z" fill="#F2D06B"/>
<path id="Vector_6" d="M236.142 61.379C237.933 61.379 239.384 59.9275 239.384 58.137C239.384 56.3465 237.933 54.895 236.142 54.895C234.351 54.895 232.9 56.3465 232.9 58.137C232.9 59.9275 234.351 61.379 236.142 61.379Z" fill="#9A8DF2"/>
</g>
</g>
<g id="Group_6">
<g id="Group_7">
<path id="Vector_7" d="M61.118 75.35L61.826 140.72C61.849 142.865 63.595 144.591 65.739 144.591H125.679C127.828 144.591 129.575 142.859 129.593 140.71L130.144 75.34C130.162 73.166 128.405 71.393 126.23 71.393H65.03C62.854 71.394 61.095 73.172 61.118 75.35Z" fill="#13DCF2"/>
<g id="Group_8">
<path id="Vector_8" d="M88.346 91.063C69.565 104.568 84.142 130.737 105.031 117.9C121.048 103.223 105.88 81.204 88.346 91.063Z" fill="white"/>
<path id="Vector_9" d="M90.6 96.025L91.088 113.927L105.88 103.65L90.6 96.025Z" fill="#46248F"/>
</g>
</g>
<g id="Group_9">
<path id="Vector_10" d="M136.354 76.754C136.354 79.222 138.354 81.222 140.822 81.222H227.839C230.526 81.222 232.605 78.867 232.273 76.201L232.166 75.348C231.885 73.095 229.959 71.411 227.689 71.434L140.778 72.287C138.328 72.31 136.354 74.304 136.354 76.754Z" fill="#F2D06B"/>
<path id="Vector_11" d="M143.558 76.755C143.558 77.88 142.646 78.793 141.52 78.793C140.395 78.793 139.482 77.881 139.482 76.755C139.482 75.629 140.394 74.717 141.52 74.717C142.646 74.717 143.558 75.63 143.558 76.755Z" fill="white"/>
</g>
<g id="Group_10">
<path id="Vector_12" d="M136.354 89.846C136.354 92.314 138.354 94.314 140.822 94.314H227.839C230.526 94.314 232.605 91.959 232.273 89.293L232.166 88.44C231.885 86.187 229.959 84.503 227.689 84.526L140.778 85.379C138.328 85.402 136.354 87.395 136.354 89.846Z" fill="#F2D06B"/>
<path id="Vector_13" d="M143.558 89.847C143.558 90.972 142.646 91.885 141.52 91.885C140.395 91.885 139.482 90.973 139.482 89.847C139.482 88.721 140.394 87.809 141.52 87.809C142.646 87.809 143.558 88.721 143.558 89.847Z" fill="white"/>
</g>
<g id="Group_11">
<path id="Vector_14" d="M136.354 102.937C136.354 105.405 138.354 107.405 140.822 107.405H227.839C230.526 107.405 232.605 105.05 232.273 102.384L232.166 101.531C231.885 99.278 229.959 97.594 227.689 97.617L140.778 98.47C138.328 98.493 136.354 100.487 136.354 102.937Z" fill="#F2D06B"/>
<path id="Vector_15" d="M143.558 102.938C143.558 104.064 142.646 104.976 141.52 104.976C140.395 104.976 139.482 104.064 139.482 102.938C139.482 101.813 140.394 100.9 141.52 100.9C142.646 100.901 143.558 101.813 143.558 102.938Z" fill="white"/>
</g>
<g id="Group_12">
<path id="Vector_16" d="M136.354 116.029C136.354 118.497 138.354 120.497 140.822 120.497H227.839C230.526 120.497 232.605 118.142 232.273 115.476L232.166 114.623C231.885 112.37 229.959 110.686 227.689 110.709L140.778 111.562C138.328 111.585 136.354 113.578 136.354 116.029Z" fill="#F2D06B"/>
<path id="Vector_17" d="M143.558 116.03C143.558 117.156 142.646 118.068 141.52 118.068C140.395 118.068 139.482 117.156 139.482 116.03C139.482 114.905 140.394 113.992 141.52 113.992C142.646 113.992 143.558 114.905 143.558 116.03Z" fill="white"/>
</g>
</g>
</g>
</g>
</g>
<g id="midlaptop">
<g id="midlaptop2">
<g id="Group_13">
<g id="Group_14">
<g id="Group_15">
<path id="Vector_18" d="M149.461 129.063H329.597C333.159 129.063 336.047 131.951 336.047 135.513V225.595C336.047 229.157 333.159 232.045 329.597 232.045H150.657C147.128 232.045 144.255 229.209 144.208 225.681L143.013 135.599C142.964 132.003 145.866 129.063 149.461 129.063Z" fill="#46248F"/>
<path id="Vector_19" d="M146.437 142.193H332.622V224.168C332.622 227.018 330.312 229.328 327.462 229.328H152.837C150.018 229.328 147.72 227.065 147.678 224.246L146.437 142.193Z" fill="white"/>
</g>
<g id="Group_16">
<path id="Vector_20" d="M311.958 139.146C313.748 139.146 315.2 137.695 315.2 135.904C315.2 134.114 313.748 132.662 311.958 132.662C310.167 132.662 308.716 134.114 308.716 135.904C308.716 137.695 310.167 139.146 311.958 139.146Z" fill="#13DCF2"/>
<path id="Vector_21" d="M320.233 139.146C322.023 139.146 323.475 137.695 323.475 135.904C323.475 134.114 322.023 132.662 320.233 132.662C318.442 132.662 316.991 134.114 316.991 135.904C316.991 137.695 318.442 139.146 320.233 139.146Z" fill="#F2D06B"/>
<path id="Vector_22" d="M329.234 139.146C331.025 139.146 332.476 137.695 332.476 135.904C332.476 134.114 331.025 132.662 329.234 132.662C327.443 132.662 325.992 134.114 325.992 135.904C325.992 137.695 327.443 139.146 329.234 139.146Z" fill="#9A8DF2"/>
</g>
</g>
<path id="Vector_23" d="M210.638 204.395H193.397C192.343 204.395 191.489 203.541 191.489 202.487C191.489 201.433 192.343 200.579 193.397 200.579H210.638C211.692 200.579 212.546 201.433 212.546 202.487C212.546 203.54 211.692 204.395 210.638 204.395Z" fill="white"/>
<g id="Group_17">
<g id="Group_18">
<path id="Vector_24" d="M182.024 219.135H156.272C155.133 219.135 154.21 218.212 154.21 217.073V169.474C154.21 168.335 155.133 167.412 156.272 167.412H182.024C183.163 167.412 184.086 168.335 184.086 169.474V217.073C184.086 218.212 183.163 219.135 182.024 219.135Z" fill="#9A8DF2"/>
<path id="Vector_25" d="M177.67 184.39H160.429C159.375 184.39 158.521 183.536 158.521 182.482C158.521 181.428 159.375 180.574 160.429 180.574H177.67C178.724 180.574 179.578 181.428 179.578 182.482C179.578 183.536 178.724 184.39 177.67 184.39Z" fill="white"/>
<path id="Vector_26" d="M177.769 201.17H160.528C159.474 201.17 158.62 200.316 158.62 199.262C158.62 198.208 159.474 197.354 160.528 197.354H177.769C178.823 197.354 179.677 198.208 179.677 199.262C179.677 200.316 178.823 201.17 177.769 201.17Z" fill="white"/>
<path id="Vector_27" d="M177.769 208.704H160.528C159.474 208.704 158.62 207.85 158.62 206.796C158.62 205.742 159.474 204.888 160.528 204.888H177.769C178.823 204.888 179.677 205.742 179.677 206.796C179.677 207.85 178.823 208.704 177.769 208.704Z" fill="white"/>
<path id="Vector_28" d="M177.67 176.428H160.429C159.375 176.428 158.521 175.574 158.521 174.52C158.521 173.466 159.375 172.612 160.429 172.612H177.67C178.724 172.612 179.578 173.466 179.578 174.52C179.578 175.573 178.724 176.428 177.67 176.428Z" fill="white"/>
</g>
<g id="Group_19">
<path id="Vector_29" d="M323.715 219.135H255.177C254.038 219.135 253.115 218.212 253.115 217.073V169.474C253.115 168.335 254.038 167.412 255.177 167.412H323.715C324.854 167.412 325.777 168.335 325.777 169.474V217.073C325.777 218.212 324.854 219.135 323.715 219.135Z" fill="#F2D06B"/>
<path id="Vector_30" d="M318.986 182.152H258.887C257.833 182.152 256.979 181.298 256.979 180.244C256.979 179.19 257.833 178.336 258.887 178.336H318.986C320.04 178.336 320.894 179.19 320.894 180.244C320.894 181.298 320.04 182.152 318.986 182.152Z" fill="white"/>
<path id="Vector_31" d="M318.986 190.214H258.887C257.833 190.214 256.979 189.36 256.979 188.306C256.979 187.252 257.833 186.398 258.887 186.398H318.986C320.04 186.398 320.894 187.252 320.894 188.306C320.894 189.359 320.04 190.214 318.986 190.214Z" fill="white"/>
<path id="Vector_32" d="M318.986 175.144H258.887C257.833 175.144 256.979 174.29 256.979 173.236C256.979 172.182 257.833 171.328 258.887 171.328H318.986C320.04 171.328 320.894 172.182 320.894 173.236C320.894 174.29 320.04 175.144 318.986 175.144Z" fill="white"/>
</g>
<g id="Group_20">
<path id="Vector_33" d="M214.992 219.135H189.24C188.101 219.135 187.178 218.212 187.178 217.073V169.474C187.178 168.335 188.101 167.412 189.24 167.412H214.992C216.131 167.412 217.054 168.335 217.054 169.474V217.073C217.054 218.212 216.131 219.135 214.992 219.135Z" fill="#F2D06B"/>
<path id="Vector_34" d="M210.638 204.395H193.397C192.343 204.395 191.489 203.541 191.489 202.487C191.489 201.433 192.343 200.579 193.397 200.579H210.638C211.692 200.579 212.546 201.433 212.546 202.487C212.546 203.54 211.692 204.395 210.638 204.395Z" fill="white"/>
<path id="Vector_35" d="M210.638 196.366H193.397C192.343 196.366 191.489 195.512 191.489 194.458V174.519C191.489 173.465 192.343 172.611 193.397 172.611H210.638C211.692 172.611 212.546 173.465 212.546 174.519V194.458C212.546 195.512 211.692 196.366 210.638 196.366Z" fill="white"/>
</g>
<g id="Group_21">
<path id="Vector_36" d="M247.96 219.135H222.208C221.069 219.135 220.146 218.212 220.146 217.073V169.474C220.146 168.335 221.069 167.412 222.208 167.412H247.96C249.099 167.412 250.022 168.335 250.022 169.474V217.073C250.022 218.212 249.099 219.135 247.96 219.135Z" fill="#13DCF2"/>
<path id="Vector_37" d="M243.705 188.305H226.464C225.41 188.305 224.556 187.451 224.556 186.397C224.556 185.343 225.41 184.489 226.464 184.489H243.705C244.759 184.489 245.613 185.343 245.613 186.397C245.613 187.451 244.759 188.305 243.705 188.305Z" fill="white"/>
<path id="Vector_38" d="M243.705 182.152H226.464C225.41 182.152 224.556 181.298 224.556 180.244C224.556 179.19 225.41 178.336 226.464 178.336H243.705C244.759 178.336 245.613 179.19 245.613 180.244C245.613 181.298 244.759 182.152 243.705 182.152Z" fill="white"/>
<path id="Vector_39" d="M243.705 175.144H226.464C225.41 175.144 224.556 174.29 224.556 173.236C224.556 172.182 225.41 171.328 226.464 171.328H243.705C244.759 171.328 245.613 172.182 245.613 173.236C245.613 174.29 244.759 175.144 243.705 175.144Z" fill="white"/>
<path id="Vector_40" d="M243.705 215.713H226.464C225.41 215.713 224.556 214.859 224.556 213.805V193.866C224.556 192.812 225.41 191.958 226.464 191.958H243.705C244.759 191.958 245.613 192.812 245.613 193.866V213.805C245.613 214.859 244.759 215.713 243.705 215.713Z" fill="white"/>
</g>
<g id="Group_22">
<path id="Vector_41" d="M214.992 164.385H189.24C188.101 164.385 187.178 163.462 187.178 162.323V154.339C187.178 153.2 188.101 152.277 189.24 152.277H214.992C216.131 152.277 217.054 153.2 217.054 154.339V162.323C217.054 163.462 216.131 164.385 214.992 164.385Z" fill="#13DCF2"/>
<path id="Vector_42" d="M193.548 161.161C195.111 161.161 196.378 159.894 196.378 158.331C196.378 156.768 195.111 155.501 193.548 155.501C191.985 155.501 190.718 156.768 190.718 158.331C190.718 159.894 191.985 161.161 193.548 161.161Z" fill="white"/>
</g>
<g id="Group_23">
<path id="Vector_43" d="M182.024 164.385H156.272C155.133 164.385 154.21 163.462 154.21 162.323V154.339C154.21 153.2 155.133 152.277 156.272 152.277H182.024C183.163 152.277 184.086 153.2 184.086 154.339V162.323C184.086 163.462 183.163 164.385 182.024 164.385Z" fill="#13DCF2"/>
<path id="Vector_44" d="M169.148 161.161C170.711 161.161 171.978 159.894 171.978 158.331C171.978 156.768 170.711 155.501 169.148 155.501C167.585 155.501 166.318 156.768 166.318 158.331C166.318 159.894 167.585 161.161 169.148 161.161Z" fill="white"/>
</g>
<g id="Group_24">
<path id="Vector_45" d="M247.96 164.385H222.208C221.069 164.385 220.146 163.462 220.146 162.323V154.339C220.146 153.2 221.069 152.277 222.208 152.277H247.96C249.099 152.277 250.022 153.2 250.022 154.339V162.323C250.022 163.462 249.099 164.385 247.96 164.385Z" fill="#F2D06B"/>
<path id="Vector_46" d="M244.415 161.161C245.978 161.161 247.245 159.894 247.245 158.331C247.245 156.768 245.978 155.501 244.415 155.501C242.852 155.501 241.585 156.768 241.585 158.331C241.585 159.894 242.852 161.161 244.415 161.161Z" fill="white"/>
</g>
<g id="Group_25">
<path id="Vector_47" d="M323.715 164.385H255.177C254.038 164.385 253.115 163.462 253.115 162.323V154.339C253.115 153.2 254.038 152.277 255.177 152.277H323.715C324.854 152.277 325.777 153.2 325.777 154.339V162.323C325.777 163.462 324.854 164.385 323.715 164.385Z" fill="#9A8DF2"/>
<path id="Vector_48" d="M259.808 161.161C261.371 161.161 262.638 159.894 262.638 158.331C262.638 156.768 261.371 155.501 259.808 155.501C258.245 155.501 256.978 156.768 256.978 158.331C256.978 159.894 258.245 161.161 259.808 161.161Z" fill="white"/>
<path id="Vector_49" d="M319.328 161.161C320.891 161.161 322.158 159.894 322.158 158.331C322.158 156.768 320.891 155.501 319.328 155.501C317.765 155.501 316.498 156.768 316.498 158.331C316.498 159.894 317.765 161.161 319.328 161.161Z" fill="white"/>
</g>
</g>
</g>
</g>
</g>
<g id="wwwcloud">
<g id="Group_26">
<g id="bluecloudwww">
<g id="wwwcloud_2">
<path id="Vector_50" d="M306.866 118.054C300.164 102.304 303.66 83.972 315.687 71.793C327.714 59.615 346.002 55.89 361.834 62.395C364.437 48.301 375.359 36.07 389.071 31.897C402.782 27.724 418.667 31.795 428.68 42.05C438.693 52.305 442.386 68.281 437.888 81.889C443.175 76.682 451.992 76.104 458.574 79.53C466.76 83.791 469.775 91.856 471.365 96.94C474.441 106.776 472.405 115.322 471.274 119.026" fill="#5D30BF"/>
<g id="Group_27">
<path id="www." d="M349.069 99.3702L343.828 82.1718H346.605L350.323 95.3393H350.502L354.174 82.1718H356.996L360.624 95.2945H360.803L364.52 82.1718H367.297L362.057 99.3702H359.459L355.697 86.1579H355.428L351.666 99.3702H349.069ZM374.687 99.3702L369.447 82.1718H372.224L375.941 95.3393H376.12L379.793 82.1718H382.615L386.242 95.2945H386.421L390.139 82.1718H392.916L387.676 99.3702H385.078L381.316 86.1579H381.047L377.285 99.3702H374.687ZM400.306 99.3702L395.065 82.1718H397.842L401.56 95.3393H401.739L405.411 82.1718H408.233L411.861 95.2945H412.04L415.757 82.1718H418.534L413.294 99.3702H410.696L406.934 86.1579H406.665L402.903 99.3702H400.306ZM421.613 99.5494C421.061 99.5494 420.587 99.3515 420.191 98.9559C419.796 98.5603 419.598 98.0863 419.598 97.5339C419.598 96.9815 419.796 96.5075 420.191 96.1119C420.587 95.7163 421.061 95.5185 421.613 95.5185C422.166 95.5185 422.64 95.7163 423.035 96.1119C423.431 96.5075 423.629 96.9815 423.629 97.5339C423.629 97.8997 423.535 98.2356 423.349 98.5416C423.17 98.8477 422.927 99.094 422.621 99.2806C422.322 99.4598 421.987 99.5494 421.613 99.5494Z" fill="white"/>
</g>
</g>
</g>
</g>
</g>
<g id="music">
<g id="music_2">
<g id="Group_28">
<g id="Group_29">
<path id="Vector_51" d="M457.958 185.346H410.644C408.936 185.346 407.551 183.961 407.551 182.253V152.572C407.551 150.864 408.936 149.479 410.644 149.479H457.958C459.666 149.479 461.051 150.864 461.051 152.572V182.253C461.051 183.961 459.666 185.346 457.958 185.346Z" fill="#46248F"/>
<path id="Vector_52" d="M455.561 182.091H413.095C411.956 182.091 411.033 181.168 411.033 180.029V154.59C411.033 153.451 411.956 152.528 413.095 152.528H455.561C456.7 152.528 457.623 153.451 457.623 154.59V180.029C457.623 181.168 456.7 182.091 455.561 182.091Z" fill="white"/>
</g>
<g id="Group_30">
<path id="Vector_53" d="M437.568 174.209C437.575 174.516 437.582 174.823 437.589 175.131C437.598 175.54 437.605 175.963 437.443 176.338C437.189 176.926 436.577 177.271 435.981 177.505C434.626 178.038 433.058 178.205 431.73 177.607C430.402 177.009 429.434 175.509 429.758 174.09C429.974 173.141 430.759 172.346 431.704 172.116C432.65 171.886 433.711 172.234 434.339 172.977C434.154 168.537 433.706 164.019 433.796 159.578C431.954 160.14 430.112 160.701 428.269 161.263C427.787 161.41 423.156 162.569 423.156 162.836C423.262 165.895 423.369 168.955 423.475 172.014C423.495 172.588 423.513 173.176 423.334 173.722C422.893 175.064 421.388 175.766 419.983 175.914C418.518 176.067 416.98 175.764 415.772 174.922C414.563 174.079 413.726 172.669 413.725 171.196C413.724 169.723 414.635 168.249 416.013 167.728C417.391 167.207 419.139 167.786 419.813 169.096C419.849 166.47 419.886 163.845 419.923 161.218C419.931 160.631 420.004 160.216 420.525 159.974C421.172 159.673 421.99 159.509 422.676 159.277C424.212 158.759 425.758 158.273 427.314 157.819C430.464 156.901 433.652 156.115 436.868 155.465C437.01 157.005 437.208 158.485 437.243 160.031C437.282 161.709 437.32 163.386 437.358 165.064C437.428 168.113 437.498 171.161 437.568 174.209Z" fill="#F2D06B"/>
<path id="Vector_54" d="M451.963 162.997C451.859 161.271 451.755 159.546 451.65 157.82C449.153 158.647 446.55 159.448 444.052 160.275C444.516 163.104 444.981 165.932 445.446 168.761C444.884 167.887 443.675 167.531 442.696 167.877C441.717 168.223 441.017 169.194 440.903 170.227C440.789 171.259 441.222 172.317 441.96 173.047C442.699 173.778 443.716 174.193 444.75 174.296C445.802 174.4 446.943 174.157 447.686 173.406C448.309 172.776 448.581 171.865 448.607 170.98C448.633 170.095 448.438 169.219 448.244 168.355C447.888 166.771 447.532 165.186 447.176 163.602C448.837 163.349 450.303 163.251 451.963 162.997Z" fill="#F2D06B"/>
</g>
</g>
</g>
</g>
<g id="mobilesmall">
<g id="smallmobile">
<g id="Group_31">
<g id="Group_32">
<path id="Vector_55" d="M120.74 260.624H65.634C63.357 260.624 61.51 258.778 61.51 256.5V196.23C61.51 193.953 63.356 192.106 65.634 192.106H120.74C123.017 192.106 124.864 193.952 124.864 196.23V256.501C124.864 258.778 123.018 260.624 120.74 260.624Z" fill="#46248F"/>
<path id="Vector_56" d="M118.377 255.459H67.225C66.086 255.459 65.163 254.536 65.163 253.397V198.428C65.163 197.289 66.086 196.366 67.225 196.366H118.377C119.516 196.366 120.439 197.289 120.439 198.428V253.397C120.439 254.536 119.516 255.459 118.377 255.459Z" fill="white"/>
</g>
<g id="Group_33">
<path id="Vector_57" d="M68.299 251.612C72.269 244.927 76.053 237.726 80.793 231.47C81.271 230.839 82.243 230.895 82.66 231.568C86.812 238.274 90.838 245.11 95.262 251.612" fill="#9A8DF2"/>
<path id="Vector_58" d="M98.343 251.08C94.947 245.216 91.435 239.42 87.808 233.697C91.5 229.061 95.563 224.708 99.78 220.544C99.966 220.36 100.182 220.164 100.444 220.165C100.763 220.166 100.996 220.453 101.181 220.712C106.661 228.409 117.248 241.569 117.248 241.569L117.084 251.08" fill="#9A8DF2"/>
<path id="Vector_59" d="M71.875 215.137C73.038 218.244 76.383 220.381 79.693 220.147C83.003 219.914 86.008 217.341 86.767 214.111C87.526 210.881 85.99 207.249 83.152 205.529C80.634 204.002 76.257 203.831 74.124 206.175C71.959 208.555 70.705 212.011 71.875 215.137Z" fill="#9A8DF2"/>
</g>
</g>
</g>
</g>
<g id="Group_34">
<g id="Group_35">
<path id="Vector_60" d="M48.313 123.483H30.155L28.552 366.831H54.528" stroke="#F2D06B" stroke-miterlimit="10"/>
<path id="Vector_61" d="M29.663 230.338C27.537 230.338 25.813 228.614 25.813 226.488V217.012C25.813 214.886 27.536 213.162 29.663 213.162C31.789 213.162 33.513 214.885 33.513 217.012V226.488C33.512 228.615 31.789 230.338 29.663 230.338Z" fill="#F2D06B"/>
</g>
<g id="Group_36">
<path id="Vector_62" d="M204.858 236.675V253.41C204.858 254.544 203.943 255.465 202.809 255.472L156.259 255.764C155.125 255.771 154.21 256.692 154.21 257.826V278.831" stroke="#F2D06B" stroke-miterlimit="10"/>
<path id="Vector_63" d="M169.89 255.887C169.89 253.227 172.047 251.07 174.707 251.07H186.563C189.223 251.07 191.38 253.227 191.38 255.887C191.38 258.547 189.223 260.704 186.563 260.704H174.707C172.047 260.703 169.89 258.547 169.89 255.887Z" fill="#F2D06B"/>
</g>
<g id="Group_37">
<path id="Vector_64" d="M357.822 124.348L359.567 159.044C359.656 160.811 358.247 162.292 356.478 162.292H342.753" stroke="#F2D06B" stroke-miterlimit="10"/>
<path id="Vector_65" d="M357.878 133.846C360.531 133.656 362.836 135.653 363.026 138.307L363.872 150.133C364.062 152.786 362.065 155.091 359.411 155.281C356.758 155.471 354.453 153.474 354.263 150.82L353.416 138.994C353.228 136.341 355.225 134.036 357.878 133.846Z" fill="#F2D06B"/>
</g>
<g id="Group_38">
<path id="Vector_66" d="M354.967 302.678L357.523 382.665C357.579 384.411 356.178 385.857 354.432 385.857H339.57" stroke="#F2D06B" stroke-miterlimit="10"/>
<path id="Vector_67" d="M356.521 341.064C359.181 341.064 361.338 343.22 361.338 345.881V357.738C361.338 360.398 359.181 362.555 356.521 362.555C353.861 362.555 351.704 360.399 351.704 357.738V345.88C351.704 343.22 353.861 341.064 356.521 341.064Z" fill="#F2D06B"/>
</g>
<g id="Group_39">
<path id="Vector_68" d="M387.639 124.348L387.132 189.806" stroke="#F2D06B" stroke-miterlimit="10"/>
<path id="Vector_69" d="M387.132 150.416C389.792 150.416 391.949 152.572 391.949 155.233V167.09C391.949 169.75 389.792 171.907 387.132 171.907C384.472 171.907 382.315 169.75 382.315 167.09V155.233C382.315 152.572 384.472 150.416 387.132 150.416Z" fill="#F2D06B"/>
</g>
<g id="Group_40">
<path id="Vector_70" d="M247.204 79.469H299.322" stroke="#F2D06B" stroke-miterlimit="10"/>
<path id="Vector_71" d="M262.518 79.469C262.518 76.809 264.674 74.652 267.335 74.652H279.192C281.852 74.652 284.009 76.809 284.009 79.469C284.009 82.129 281.852 84.286 279.192 84.286H267.335C264.674 84.285 262.518 82.129 262.518 79.469Z" fill="#F2D06B"/>
</g>
<path id="Vector_72" d="M437.219 146.355V124.348" stroke="#F2D06B" stroke-miterlimit="10"/>
<g id="Group_41">
<path id="Vector_73" d="M413.725 244.278H435.157C436.296 244.278 437.219 243.355 437.219 242.216V192.107" stroke="#F2D06B" stroke-miterlimit="10"/>
<path id="Vector_74" d="M437.219 211.219C439.879 211.219 442.036 213.376 442.036 216.036V227.893C442.036 230.553 439.879 232.71 437.219 232.71C434.559 232.71 432.402 230.554 432.402 227.893V216.036C432.402 213.376 434.559 211.219 437.219 211.219Z" fill="#F2D06B"/>
</g>
<path id="Vector_75" d="M136.997 172.611H94.612C93.473 172.611 92.55 173.534 92.55 174.673V185.76" stroke="#F2D06B" stroke-miterlimit="10"/>
<path id="Vector_76" d="M92.55 264.343V278.831" stroke="#F2D06B" stroke-miterlimit="10"/>
</g>
</g>
<g id="Group_42">
<path id="Vector_77" d="M35.438 466.72C34.463 450.967 42.364 435.771 55.159 426.395C66.444 418.126 81.4 415.078 95.021 418.271C102.345 419.988 109.707 423.427 117.067 421.867C122.219 420.775 126.522 417.371 130.682 414.141C151.715 397.812 175.363 383.041 201.837 380.194C228.311 377.347 257.957 389.528 268.096 414.15C288.316 402.505 312.027 394.863 334.968 399.128C357.909 403.392 379.114 422.083 380.668 445.366C402.938 434.722 432.949 445.767 443.007 468.308" fill="#9A8DF2"/>
<path id="Vector_78" d="M480.929 469.451H24.131C23.047 469.451 22.168 468.572 22.168 467.488C22.168 466.404 23.047 465.525 24.131 465.525H480.929C482.013 465.525 482.892 466.404 482.892 467.488C482.892 468.572 482.013 469.451 480.929 469.451Z" fill="#F2D06B"/>
</g>
<g id="server">
<g id="Group_43">
<g id="Group_44">
<g id="Group_45">
<path id="Vector_79" d="M170.512 338.538H285.592V465.605H170.512C166.95 465.605 164.062 462.717 164.062 459.155V344.987C164.062 341.425 166.95 338.538 170.512 338.538Z" fill="#46248F"/>
<g id="Group_46">
<g id="Group_47">
<path id="Vector_80" d="M247.799 398.644H236.684L235.366 354.429H248.54L247.799 398.644Z" fill="#5D30BF"/>
<path id="Vector_81" d="M216.676 354.429H227.791L229.109 398.644H215.935L216.676 354.429Z" fill="#5D30BF"/>
<path id="Vector_82" d="M207.948 398.644H196.832L195.515 354.429H208.689L207.948 398.644Z" fill="#5D30BF"/>
<path id="Vector_83" d="M176.825 354.429H187.94L189.257 398.644H176.084L176.825 354.429Z" fill="#5D30BF"/>
</g>
</g>
<g id="Group_48">
<g id="Group_49">
<path id="Vector_84" d="M247.799 451.175H236.684L235.366 406.96H248.54L247.799 451.175Z" fill="#5D30BF"/>
<path id="Vector_85" d="M216.676 406.96H227.791L229.109 451.175H215.935L216.676 406.96Z" fill="#5D30BF"/>
<path id="Vector_86" d="M207.948 451.175H196.832L195.515 406.96H208.689L207.948 451.175Z" fill="#5D30BF"/>
<path id="Vector_87" d="M176.825 406.96H187.94L189.257 451.175H176.084L176.825 406.96Z" fill="#5D30BF"/>
</g>
</g>
</g>
<g id="Group_50">
<path id="Vector_88" d="M329.533 338.538H272.281C268.719 338.538 265.831 341.426 265.831 344.988V459.155C265.831 462.717 268.719 465.605 272.281 465.605H329.533C333.095 465.605 335.983 462.717 335.983 459.155V344.987C335.982 341.425 333.095 338.538 329.533 338.538Z" fill="#5D30BF"/>
<g id="Group_51">
<path id="Vector_89" d="M307.353 364.501H279.756C277.164 364.501 275.063 362.4 275.063 359.808C275.063 357.216 277.164 355.115 279.756 355.115H307.353C309.945 355.115 312.046 357.216 312.046 359.808C312.046 362.4 309.945 364.501 307.353 364.501Z" fill="#13DCF2"/>
<path id="Vector_90" d="M307.353 381.298H279.756C277.164 381.298 275.063 379.197 275.063 376.605C275.063 374.013 277.164 371.912 279.756 371.912H307.353C309.945 371.912 312.046 374.013 312.046 376.605C312.046 379.197 309.945 381.298 307.353 381.298Z" fill="#13DCF2"/>
<path id="Vector_91" d="M307.353 398.095H279.756C277.164 398.095 275.063 395.994 275.063 393.402C275.063 390.81 277.164 388.709 279.756 388.709H307.353C309.945 388.709 312.046 390.81 312.046 393.402C312.046 395.994 309.945 398.095 307.353 398.095Z" fill="#13DCF2"/>
<path id="Vector_92" d="M326.75 359.716C326.75 361.711 325.133 363.328 323.137 363.328C321.142 363.328 319.524 361.711 319.524 359.716C319.524 357.721 321.141 356.103 323.137 356.103C325.133 356.103 326.75 357.72 326.75 359.716Z" fill="#13DCF2"/>
<path id="Vector_93" d="M326.75 376.605C326.75 378.6 325.133 380.218 323.137 380.218C321.142 380.218 319.524 378.601 319.524 376.605C319.524 374.61 321.141 372.992 323.137 372.992C325.133 372.992 326.75 374.61 326.75 376.605Z" fill="#13DCF2"/>
<path id="Vector_94" d="M326.75 393.402C326.75 395.397 325.133 397.014 323.137 397.014C321.142 397.014 319.524 395.397 319.524 393.402C319.524 391.407 321.141 389.789 323.137 389.789C325.133 389.789 326.75 391.406 326.75 393.402Z" fill="#13DCF2"/>
<path id="Vector_95" d="M307.353 415.55H279.756C277.164 415.55 275.063 413.449 275.063 410.857C275.063 408.265 277.164 406.164 279.756 406.164H307.353C309.945 406.164 312.046 408.265 312.046 410.857C312.046 413.449 309.945 415.55 307.353 415.55Z" fill="#13DCF2"/>
<path id="Vector_96" d="M307.353 432.347H279.756C277.164 432.347 275.063 430.246 275.063 427.654C275.063 425.062 277.164 422.961 279.756 422.961H307.353C309.945 422.961 312.046 425.062 312.046 427.654C312.046 430.246 309.945 432.347 307.353 432.347Z" fill="#13DCF2"/>
<path id="Vector_97" d="M307.353 449.144H279.756C277.164 449.144 275.063 447.043 275.063 444.451C275.063 441.859 277.164 439.758 279.756 439.758H307.353C309.945 439.758 312.046 441.859 312.046 444.451C312.046 447.043 309.945 449.144 307.353 449.144Z" fill="#13DCF2"/>
<path id="Vector_98" d="M326.75 410.764C326.75 412.759 325.133 414.377 323.137 414.377C321.142 414.377 319.524 412.76 319.524 410.764C319.524 408.769 321.141 407.152 323.137 407.152C325.133 407.152 326.75 408.769 326.75 410.764Z" fill="#13DCF2"/>
<path id="Vector_99" d="M326.75 427.654C326.75 429.649 325.133 431.267 323.137 431.267C321.142 431.267 319.524 429.65 319.524 427.654C319.524 425.659 321.141 424.042 323.137 424.042C325.133 424.041 326.75 425.659 326.75 427.654Z" fill="#13DCF2"/>
<path id="Vector_100" d="M326.75 444.451C326.75 446.446 325.133 448.063 323.137 448.063C321.142 448.063 319.524 446.446 319.524 444.451C319.524 442.456 321.141 440.838 323.137 440.838C325.133 440.838 326.75 442.456 326.75 444.451Z" fill="#13DCF2"/>
</g>
</g>
</g>
<g id="Group_52">
<g id="Group_53">
<path id="Vector_101" d="M65.556 284.713H180.636V465.525H65.556C61.994 465.525 59.106 462.637 59.106 459.075V291.163C59.106 287.601 61.993 284.713 65.556 284.713Z" fill="#46248F"/>
<g id="Group_54">
<g id="Group_55">
<path id="Vector_102" d="M142.843 341.032H131.727L130.41 296.817H143.584L142.843 341.032Z" fill="#5D30BF"/>
<path id="Vector_103" d="M111.719 296.817H122.835L124.152 341.032H110.978L111.719 296.817Z" fill="#5D30BF"/>
<path id="Vector_104" d="M102.991 341.032H91.876L90.559 296.817H103.733L102.991 341.032Z" fill="#5D30BF"/>
<path id="Vector_105" d="M71.868 296.817H82.984L84.301 341.032H71.127L71.868 296.817Z" fill="#5D30BF"/>
</g>
</g>
<g id="Group_56">
<g id="Group_57">
<path id="Vector_106" d="M142.843 393.563H131.727L130.41 349.348H143.584L142.843 393.563Z" fill="#5D30BF"/>
<path id="Vector_107" d="M111.719 349.348H122.835L124.152 393.563H110.978L111.719 349.348Z" fill="#5D30BF"/>
<path id="Vector_108" d="M102.991 393.563H91.876L90.559 349.348H103.733L102.991 393.563Z" fill="#5D30BF"/>
<path id="Vector_109" d="M71.868 349.348H82.984L84.301 393.563H71.127L71.868 349.348Z" fill="#5D30BF"/>
</g>
</g>
<g id="Group_58">
<g id="Group_59">
<path id="Vector_110" d="M142.843 446.094H131.727L130.41 401.879H143.584L142.843 446.094Z" fill="#5D30BF"/>
<path id="Vector_111" d="M111.719 401.879H122.835L124.152 446.094H110.978L111.719 401.879Z" fill="#5D30BF"/>
<path id="Vector_112" d="M102.991 446.094H91.876L90.559 401.879H103.733L102.991 446.094Z" fill="#5D30BF"/>
<path id="Vector_113" d="M71.868 401.879H82.984L84.301 446.094H71.127L71.868 401.879Z" fill="#5D30BF"/>
</g>
</g>
</g>
<g id="Group_60">
<path id="Vector_114" d="M224.576 284.713H167.324C163.762 284.713 160.874 287.601 160.874 291.163V459.076C160.874 462.638 163.762 465.526 167.324 465.526H224.576C228.138 465.526 231.026 462.638 231.026 459.076V291.163C231.026 287.601 228.138 284.713 224.576 284.713Z" fill="#5D30BF"/>
<g id="Group_61">
<path id="Vector_115" d="M202.396 308.234H174.8C172.208 308.234 170.107 306.133 170.107 303.541C170.107 300.949 172.208 298.848 174.8 298.848H202.397C204.989 298.848 207.09 300.949 207.09 303.541C207.09 306.133 204.988 308.234 202.396 308.234Z" fill="#13DCF2"/>
<path id="Vector_116" d="M202.396 325.031H174.8C172.208 325.031 170.107 322.93 170.107 320.338C170.107 317.746 172.208 315.645 174.8 315.645H202.397C204.989 315.645 207.09 317.746 207.09 320.338C207.09 322.93 204.988 325.031 202.396 325.031Z" fill="#13DCF2"/>
<path id="Vector_117" d="M202.396 341.828H174.8C172.208 341.828 170.107 339.727 170.107 337.135C170.107 334.543 172.208 332.442 174.8 332.442H202.397C204.989 332.442 207.09 334.543 207.09 337.135C207.09 339.727 204.988 341.828 202.396 341.828Z" fill="#13DCF2"/>
<path id="Vector_118" d="M221.794 303.448C221.794 305.443 220.177 307.061 218.182 307.061C216.187 307.061 214.569 305.444 214.569 303.448C214.569 301.453 216.186 299.835 218.182 299.835C220.176 299.836 221.794 301.453 221.794 303.448Z" fill="#13DCF2"/>
<path id="Vector_119" d="M221.794 320.338C221.794 322.333 220.177 323.951 218.182 323.951C216.187 323.951 214.569 322.334 214.569 320.338C214.569 318.343 216.186 316.725 218.182 316.725C220.176 316.725 221.794 318.343 221.794 320.338Z" fill="#13DCF2"/>
<path id="Vector_120" d="M221.794 337.134C221.794 339.129 220.177 340.747 218.182 340.747C216.187 340.747 214.569 339.13 214.569 337.134C214.569 335.139 216.186 333.522 218.182 333.522C220.176 333.522 221.794 335.139 221.794 337.134Z" fill="#13DCF2"/>
<path id="Vector_121" d="M202.396 359.42H174.8C172.208 359.42 170.107 357.319 170.107 354.727C170.107 352.135 172.208 350.034 174.8 350.034H202.397C204.989 350.034 207.09 352.135 207.09 354.727C207.09 357.319 204.988 359.42 202.396 359.42Z" fill="#13DCF2"/>
<path id="Vector_122" d="M202.396 376.217H174.8C172.208 376.217 170.107 374.116 170.107 371.524C170.107 368.932 172.208 366.831 174.8 366.831H202.397C204.989 366.831 207.09 368.932 207.09 371.524C207.09 374.116 204.988 376.217 202.396 376.217Z" fill="#13DCF2"/>
<path id="Vector_123" d="M202.396 393.014H174.8C172.208 393.014 170.107 390.913 170.107 388.321C170.107 385.729 172.208 383.628 174.8 383.628H202.397C204.989 383.628 207.09 385.729 207.09 388.321C207.09 390.913 204.988 393.014 202.396 393.014Z" fill="#13DCF2"/>
<path id="Vector_124" d="M221.794 354.635C221.794 356.63 220.177 358.247 218.182 358.247C216.187 358.247 214.569 356.63 214.569 354.635C214.569 352.64 216.186 351.022 218.182 351.022C220.176 351.022 221.794 352.639 221.794 354.635Z" fill="#13DCF2"/>
<path id="Vector_125" d="M221.794 371.524C221.794 373.519 220.177 375.137 218.182 375.137C216.187 375.137 214.569 373.52 214.569 371.524C214.569 369.529 216.186 367.912 218.182 367.912C220.176 367.911 221.794 369.529 221.794 371.524Z" fill="#13DCF2"/>
<path id="Vector_126" d="M221.794 388.321C221.794 390.316 220.177 391.933 218.182 391.933C216.187 391.933 214.569 390.316 214.569 388.321C214.569 386.326 216.186 384.708 218.182 384.708C220.176 384.708 221.794 386.326 221.794 388.321Z" fill="#13DCF2"/>
<path id="Vector_127" d="M202.396 410.47H174.8C172.208 410.47 170.107 408.369 170.107 405.777C170.107 403.185 172.208 401.084 174.8 401.084H202.397C204.989 401.084 207.09 403.185 207.09 405.777C207.09 408.368 204.988 410.47 202.396 410.47Z" fill="#13DCF2"/>
<path id="Vector_128" d="M202.396 427.266H174.8C172.208 427.266 170.107 425.165 170.107 422.573C170.107 419.981 172.208 417.88 174.8 417.88H202.397C204.989 417.88 207.09 419.981 207.09 422.573C207.09 425.165 204.988 427.266 202.396 427.266Z" fill="#13DCF2"/>
<path id="Vector_129" d="M202.396 444.063H174.8C172.208 444.063 170.107 441.962 170.107 439.37C170.107 436.778 172.208 434.677 174.8 434.677H202.397C204.989 434.677 207.09 436.778 207.09 439.37C207.09 441.962 204.988 444.063 202.396 444.063Z" fill="#13DCF2"/>
<path id="Vector_130" d="M221.794 405.684C221.794 407.679 220.177 409.297 218.182 409.297C216.187 409.297 214.569 407.68 214.569 405.684C214.569 403.689 216.186 402.072 218.182 402.072C220.176 402.071 221.794 403.689 221.794 405.684Z" fill="#13DCF2"/>
<path id="Vector_131" d="M221.794 422.573C221.794 424.568 220.177 426.186 218.182 426.186C216.187 426.186 214.569 424.569 214.569 422.573C214.569 420.578 216.186 418.961 218.182 418.961C220.176 418.961 221.794 420.578 221.794 422.573Z" fill="#13DCF2"/>
<path id="Vector_132" d="M221.794 439.37C221.794 441.365 220.177 442.983 218.182 442.983C216.187 442.983 214.569 441.366 214.569 439.37C214.569 437.375 216.186 435.757 218.182 435.757C220.176 435.757 221.794 437.375 221.794 439.37Z" fill="#13DCF2"/>
</g>
</g>
</g>
</g>
</g>
<g id="Group_62">
<g id="Group_63">
<g id="Group_64">
<path id="Vector_133" d="M480.051 504.801C480.245 504.645 480.44 504.49 480.635 504.336C482.174 503.115 483.739 501.926 485.327 500.769C486.089 500.214 487.554 499.264 488.327 498.724C488.265 498.755 486.008 495.056 485.794 494.718C484.991 493.447 484.056 492.365 483.178 491.147C483.058 490.981 482.932 490.809 482.751 490.713C482.4 490.527 481.974 490.682 481.609 490.837C480.07 491.493 477.834 492.551 476.295 493.207C475.226 493.663 475.045 494.827 474.903 495.85C474.701 497.311 474.498 498.772 474.296 500.233C471.48 501.68 468.605 503.013 465.68 504.225C464.821 504.581 464.256 505.407 464.245 506.336C464.237 507.05 464.245 507.742 464.315 507.739C468.41 507.567 472.545 507.55 476.63 507.222C477.397 507.161 477.766 506.667 478.345 506.188C478.91 505.723 479.479 505.26 480.051 504.801Z" fill="#13DCF2"/>
<g id="Group_65">
<path id="Vector_134" d="M473.981 497.624C475.208 497.806 476.396 498.246 477.445 498.907" stroke="#351B6B" stroke-miterlimit="10" stroke-linecap="round" stroke-linejoin="round"/>
<path id="Vector_135" d="M473.296 499.376C474.391 499.65 475.411 500.215 476.224 500.997" stroke="#351B6B" stroke-miterlimit="10" stroke-linecap="round" stroke-linejoin="round"/>
</g>
</g>
<g id="Group_66">
<path id="Vector_136" d="M463.74 415.241C464.851 426.452 466.298 437.649 467.64 448.844C467.886 450.9 468.229 453.148 469.777 454.524C470.767 455.404 472.13 455.799 473.053 456.749C473.951 457.674 474.302 458.985 474.618 460.235C477.252 470.628 479.148 481.626 483.364 491.454C480.45 493.018 477.536 494.583 474.622 496.147C458.072 471.577 447.241 443.181 443.224 413.831C443.608 413.667 443.993 413.504 444.378 413.34" fill="#281450"/>
<path id="Vector_137" d="M451.405 427.463C453.852 436.915 457.046 447.262 461.249 458.225C466.527 471.99 472.365 484.035 478.047 494.309" stroke="#46248F" stroke-miterlimit="10"/>
</g>
</g>
<g id="Group_67">
<g id="Group_68">
<path id="Vector_138" d="M428.967 506.297C428.845 504.171 428.602 502.051 428.24 499.953C427.954 498.298 428.159 496.812 426.215 496.18C425.24 495.863 424.189 495.895 423.183 495.699C422.236 495.515 421.291 495.127 420.338 495.28C419.172 495.467 418.287 496.42 417.62 497.394C417.048 498.229 416.552 499.22 415.764 499.88C415.045 500.482 414.05 500.699 413.162 500.944C409.471 501.964 405.779 502.984 402.088 504.005C401.793 504.087 401.489 504.172 401.246 504.358C400.821 504.682 400.66 505.243 400.575 505.771C400.461 506.478 400.286 507.158 400.141 507.854C400.146 507.83 401.885 507.934 402.111 507.94C410.67 508.167 419.235 508.167 427.793 507.942C428.017 507.936 428.249 507.928 428.448 507.826C428.955 507.565 429 506.868 428.967 506.297Z" fill="#13DCF2"/>
<g id="Group_69">
<path id="Vector_139" d="M413.243 499.494C414.62 499.95 415.882 500.748 416.884 501.798" stroke="#351B6B" stroke-miterlimit="10" stroke-linecap="round" stroke-linejoin="round"/>
<path id="Vector_140" d="M411.231 500.272C412.497 500.744 413.649 501.518 414.564 502.512" stroke="#351B6B" stroke-miterlimit="10" stroke-linecap="round" stroke-linejoin="round"/>
</g>
</g>
<g id="Group_70">
<path id="Vector_141" d="M463.235 408.066C463.558 408.681 463.561 409.571 463.69 410.617C463.956 412.785 464.223 414.953 464.489 417.121C464.852 420.074 465.518 424.085 461.856 424.782C458.576 425.406 455.261 425.85 451.932 426.111C447.525 437.524 442.695 448.848 437.87 460.151C437.162 461.809 436.447 463.679 437.1 465.359C437.516 466.43 438.433 467.237 438.907 468.283C439.784 470.218 438.984 472.462 438.183 474.43C436.225 479.246 434.267 484.061 432.309 488.877C432.055 489.503 428.256 499.152 428.411 499.185C424.316 498.291 420.108 497.994 415.926 498.272C417.577 487.916 419.005 479.361 420.559 468.981C423.76 447.602 426.583 426.153 430.739 404.931C431.527 404.988 432.316 405.046 433.104 405.103C438.587 405.503 444.071 405.902 449.554 406.301C452.477 406.514 455.4 406.727 458.323 406.94C459.436 407.021 460.555 407.073 461.665 407.183C462.531 407.27 462.981 407.583 463.235 408.066Z" fill="#351B6B"/>
<path id="Vector_142" d="M435.322 414.963L420.187 498.266" stroke="#46248F" stroke-miterlimit="10"/>
</g>
</g>
<path id="Vector_143" d="M399.887 339.128C399.923 338.682 399.905 338.161 399.55 337.89C399.294 337.694 398.942 337.696 398.619 337.709C396.628 337.793 394.645 337.997 392.663 338.2C392.007 338.267 391.35 338.335 390.694 338.402C390.443 338.428 390.17 338.464 389.993 338.644C389.833 338.808 389.792 339.061 389.833 339.287C389.874 339.513 389.986 339.719 390.097 339.92C390.841 341.256 391.657 342.552 392.473 343.846C392.741 344.272 393.026 344.714 393.462 344.965C393.904 345.22 394.444 345.242 394.949 345.171C395.796 345.051 396.606 344.68 397.25 344.116C397.606 343.805 397.909 343.438 398.265 343.127C398.54 342.886 398.997 342.754 399.189 342.459C399.461 342.041 399.54 341.308 399.641 340.824C399.759 340.266 399.841 339.699 399.887 339.128Z" fill="#C29E7A"/>
<g id="Group_71">
<path id="Vector_144" d="M458.471 358.929C458.256 357.118 457.543 355.363 456.39 353.948C453.926 350.924 450.989 350.65 447.458 350.689C445.053 350.716 442.245 349.776 439.943 349.094C437.478 348.364 435.072 347.437 432.757 346.323C431.732 345.83 430.708 345.288 429.899 344.488C429.062 343.661 428.5 342.603 427.961 341.557C426.012 337.78 424.189 333.937 422.498 330.037C421.665 328.118 421.06 325.919 420.039 324.1C419.134 322.489 418.387 324.968 417.704 325.547C416.632 326.456 415.34 327.174 414.052 327.725C415.742 335.209 418.31 342.479 421.415 349.496C422.124 351.099 422.893 352.733 424.183 353.92C426.708 356.244 430.879 357.336 434.034 358.482C438.612 360.145 443.19 361.809 447.768 363.472C449.695 364.172 451.646 364.878 453.686 365.088C455.886 365.315 457.534 364.98 458.194 362.635C458.531 361.434 458.618 360.168 458.471 358.929Z" fill="#C29E7A"/>
<path id="Vector_145" d="M411.647 323.782C411.534 321.503 412.334 319.192 413.831 317.47C414.007 317.268 414.205 317.065 414.463 316.992C414.988 316.843 415.486 317.277 415.847 317.688C417.014 319.015 418.018 320.485 418.831 322.054C419.139 322.649 419.425 323.275 419.473 323.944C419.542 324.889 419.13 325.801 418.654 326.62C418.137 327.511 417.532 328.35 416.851 329.123C416.381 329.656 415.64 330.423 414.844 330.325C414.185 330.244 413.933 329.516 413.627 329.022C412.595 327.353 411.747 325.797 411.647 323.782Z" fill="#C29E7A"/>
<path id="Vector_146" d="M450.258 363.537C454.454 362.563 455.358 357.273 453.767 353.89C450.068 346.788 440.162 349.36 434.357 344.77C432.604 349.115 429.733 353.635 429.666 358.365C435.905 361.149 443.377 363.311 450.258 363.537Z" fill="#0EA5B5"/>
</g>
<g id="lastlaptop">
<g id="lastlaptop3">
<g id="Group_72">
<g id="Group_73">
<g id="Group_74">
<path id="Vector_147" d="M266.449 236H407.886C411.448 236 414.336 238.888 414.336 242.45V332.532C414.336 336.094 411.448 338.982 407.886 338.982H267.645C264.116 338.982 261.243 336.146 261.196 332.618L260.001 242.536C259.953 238.941 262.854 236 266.449 236Z" fill="#46248F"/>
<path id="Vector_148" d="M263.425 249.13H410.911V331.105C410.911 333.955 408.601 336.265 405.751 336.265H269.825C267.006 336.265 264.708 334.002 264.666 331.183L263.425 249.13Z" fill="white"/>
</g>
<g id="Group_75">
<path id="Vector_149" d="M393.49 242.841C393.49 244.632 392.038 246.083 390.248 246.083C388.457 246.083 387.006 244.632 387.006 242.841C387.006 241.051 388.458 239.599 390.248 239.599C392.039 239.599 393.49 241.051 393.49 242.841Z" fill="#13DCF2"/>
<path id="Vector_150" d="M401.765 242.841C401.765 244.632 400.313 246.083 398.523 246.083C396.733 246.083 395.281 244.632 395.281 242.841C395.281 241.051 396.733 239.599 398.523 239.599C400.313 239.599 401.765 241.051 401.765 242.841Z" fill="#F2D06B"/>
<path id="Vector_151" d="M410.766 242.841C410.766 244.632 409.314 246.083 407.524 246.083C405.734 246.083 404.282 244.632 404.282 242.841C404.282 241.051 405.734 239.599 407.524 239.599C409.314 239.599 410.766 241.051 410.766 242.841Z" fill="#9A8DF2"/>
</g>
</g>
<g id="Group_76">
<g id="Group_77">
<path id="Vector_152" d="M314.694 264.728H278.707C276.499 264.728 274.708 262.938 274.708 260.729C274.708 258.521 276.498 256.73 278.707 256.73H314.694C316.902 256.73 318.693 258.52 318.693 260.729C318.692 262.938 316.902 264.728 314.694 264.728Z" fill="#13DCF2"/>
<path id="Vector_153" d="M314.694 324.719H278.707C276.499 324.719 274.708 322.929 274.708 320.72C274.708 318.512 276.498 316.721 278.707 316.721H314.694C316.902 316.721 318.693 318.511 318.693 320.72C318.692 322.929 316.902 324.719 314.694 324.719Z" fill="#F2D06B"/>
<g id="Group_78">
<path id="Vector_154" d="M315.212 314.145H278.189C276.267 314.145 274.709 312.587 274.709 310.665V271.198C274.709 269.276 276.267 267.718 278.189 267.718H315.212C317.134 267.718 318.692 269.276 318.692 271.198V310.665C318.692 312.587 317.134 314.145 315.212 314.145Z" fill="#9A8DF2"/>
<path id="Vector_155" d="M308.631 310.329H284.769C283.672 310.329 282.782 309.44 282.782 308.342C282.782 307.245 283.671 306.355 284.769 306.355H308.631C309.728 306.355 310.618 307.245 310.618 308.342C310.618 309.439 309.729 310.329 308.631 310.329Z" fill="white"/>
</g>
</g>
<g id="Group_79">
<path id="Vector_156" d="M359.673 326.868C361.312 318.138 366.529 310.302 373.36 304.624C380.19 298.946 388.553 295.316 397.177 293.19C398.111 292.96 399.154 292.76 399.99 293.236C400.976 293.798 401.272 295.06 401.429 296.184C402.921 306.848 400.383 318.027 394.432 327.001" fill="#9A8DF2"/>
<path id="Vector_157" d="M373.105 298.236C363.565 304.352 357.109 315.043 356.138 326.334C343.746 320.648 334.45 308.447 333.976 294.822C347.14 292.322 360.608 293.405 373.105 298.236Z" fill="#F2D06B"/>
<path id="Vector_158" d="M392.412 289.632C387.056 290.236 382.262 293.353 377.517 295.384C369.625 291.974 361.255 288.484 352.345 289.183C354.193 277.811 361.442 267.703 371.311 261.757C372.508 261.036 373.858 260.355 375.239 260.564C376.021 260.682 376.731 261.077 377.405 261.489C386.812 267.237 392.402 278.609 392.412 289.632Z" fill="#13DCF2"/>
<path id="Vector_159" d="M337.735 272.906C338.398 274.373 339.626 275.614 341.154 276.119C343.2 276.795 345.534 276.063 347.148 274.634C350.178 271.95 350.609 266.981 347.216 264.422C344.126 262.091 340.883 262.771 338.721 265.865C337.239 267.986 336.629 270.459 337.735 272.906Z" fill="#9A8DF2"/>
</g>
</g>
</g>
</g>
</g>
<g id="menhead">
<g id="Group_80">
<g id="Group_81">
<path id="Vector_160" d="M436.304 333.169C434.213 339.123 431.448 347.328 440.823 347.281C440.656 350.775 439.373 354.332 439.461 357.798C442.985 360.405 448.58 358.075 451.501 355.429C452.489 350.376 452.614 344.936 454.945 340.135C456.237 334.824 462.529 327.916 457.901 322.967C449.232 314.773 440.079 322.418 436.304 333.169Z" fill="#FFCC99"/>
<path id="Vector_161" d="M444.736 347.037C446.295 346.698 447.775 346.075 449.244 345.455C448.747 347.168 447.618 348.65 446.45 349.987C445.265 351.343 443.887 352.531 442.367 353.497C441.674 353.938 440.542 354.234 439.788 353.908C440.102 351.671 440.756 349.539 440.822 347.281C442.197 347.468 443.386 347.33 444.736 347.037Z" fill="#C29E7A"/>
</g>
<path id="Vector_162" d="M459.483 338.191C460.26 337.896 461.006 337.509 461.67 337.006C462.192 336.611 462.899 336.043 463.188 335.449C463.976 333.827 464.385 331.929 464.553 330.144C464.642 329.203 464.626 328.168 464.039 327.427C464.368 326.56 464.677 325.678 464.813 324.761C464.95 323.844 464.906 322.882 464.55 322.026C463.941 320.561 462.553 319.637 461.24 318.86C459.765 317.988 457.967 317.755 456.498 316.826C454.187 315.364 452.797 312.509 450.183 311.709C448.614 311.228 446.847 311.633 445.517 312.595C444.188 313.557 443.276 315.025 442.8 316.596C442.466 317.699 442.334 318.888 442.608 320.007C443.143 322.192 445.135 323.337 447.239 323.581C448.732 323.754 450.245 323.62 451.743 323.745C452.477 323.806 453.278 323.97 453.732 324.55C454.557 325.602 453.638 327.365 453.138 328.4C452.505 329.708 451.716 330.941 451.185 332.297C450.798 333.287 450.557 334.375 450.781 335.414C451.107 336.929 452.408 338.112 453.881 338.592C455.354 339.072 456.968 338.933 458.462 338.524C458.806 338.429 459.148 338.318 459.483 338.191Z" fill="#351B6B"/>
<g id="Group_82">
<path id="Vector_163" d="M454.673 337.818C455.5 336.768 456.717 335.596 458.074 335.35C458.911 335.198 459.847 335.412 460.415 336.044C460.867 336.546 461.041 337.253 461.006 337.928C460.948 339.053 460.351 340.107 459.526 340.874C458.701 341.642 457.664 342.148 456.597 342.511C455.943 342.734 455.245 342.908 454.565 342.783C454.061 342.69 453.46 342.354 453.235 341.875C452.936 341.241 453.117 340.453 453.45 339.886C453.862 339.183 454.162 338.467 454.673 337.818Z" fill="#FFCC99"/>
<path id="Vector_164" d="M456.651 337.956C456.245 338.408 456.077 339.025 455.993 339.627C455.964 339.835 455.944 340.05 456.001 340.252C456.058 340.454 456.208 340.643 456.412 340.689C456.742 340.763 457.043 340.444 457.124 340.116C457.205 339.788 457.146 339.442 457.187 339.106C457.242 338.657 457.516 338.318 457.988 338.365C458.307 338.397 458.572 338.438 458.536 338.012C458.452 337.019 457.063 337.497 456.651 337.956Z" fill="#C29E7A"/>
</g>
<g id="Group_83">
<path id="Vector_165" d="M439.688 332.702C439.129 332.946 438.524 333.073 437.963 333.313C437.526 333.5 437.083 333.802 436.975 334.264C436.868 334.722 437.147 335.21 437.551 335.451C437.955 335.692 438.455 335.722 438.921 335.653C439.758 335.529 440.546 335.096 441.1 334.455C441.653 333.816 442.337 332.392 441.857 331.548C441.569 331.042 441.212 331.381 440.947 331.692C440.576 332.124 440.217 332.471 439.688 332.702Z" fill="#F2862C"/>
<g id="Group_84">
<path id="Vector_166" d="M444.989 332.552C444.806 332.812 444.693 333.135 444.749 333.448C444.806 333.76 445.064 334.045 445.38 334.067C445.719 334.091 446.009 333.831 446.213 333.56C446.384 333.333 446.527 333.082 446.6 332.808C446.672 332.534 446.669 332.234 446.557 331.974C446.146 331.024 445.286 332.13 444.989 332.552Z" fill="#351B6B"/>
<path id="Vector_167" d="M445.107 328.626C445.887 328.203 446.906 328.268 447.625 328.786C448.345 329.304 448.729 330.25 448.576 331.123" stroke="#351B6B" stroke-miterlimit="10" stroke-linecap="round" stroke-linejoin="round"/>
</g>
<g id="Group_85">
<path id="Vector_168" d="M438.025 330.641C437.974 330.904 437.969 331.187 438.086 331.427C438.204 331.667 438.469 331.849 438.732 331.804C438.929 331.77 439.087 331.623 439.211 331.466C439.44 331.175 439.594 330.825 439.654 330.46C439.704 330.16 439.684 329.83 439.503 329.586C438.839 328.69 438.132 330.091 438.025 330.641Z" fill="#351B6B"/>
<path id="Vector_169" d="M441.805 327.868C441.612 327.141 440.933 326.571 440.183 326.506C439.434 326.441 438.667 326.886 438.351 327.569" stroke="#351B6B" stroke-miterlimit="10" stroke-linecap="round" stroke-linejoin="round"/>
</g>
<path id="Vector_170" d="M437.676 338.943C439.609 340.024 442.158 339.887 443.964 338.607" stroke="#351B6B" stroke-miterlimit="10" stroke-linecap="round" stroke-linejoin="round"/>
</g>
</g>
</g>
<g id="Group_86">
<path id="Vector_171" d="M444.892 415.2C439.41 415.409 433.924 415.49 428.439 415.445C429.033 395.629 428.916 375.634 430.482 355.871C430.528 355.284 430.6 354.641 431.023 354.231C431.268 353.993 431.6 353.87 431.921 353.753C436.262 352.176 440.64 350.703 445.052 349.338C447.283 348.647 449.587 347.976 451.915 348.165C460.067 348.824 461.22 360.621 461.939 366.834C463.017 376.145 463.429 385.518 463.841 394.882C464.12 401.219 464.398 407.555 464.677 413.892C458.095 414.511 451.497 414.948 444.892 415.2Z" fill="#13DCF2"/>
<path id="Vector_172" d="M429.103 385.035C431.011 382.807 432.841 380.512 434.587 378.155C436.398 375.711 438.125 373.19 439.476 370.465C439.909 369.593 440.305 368.567 439.917 367.674C439.588 366.917 438.792 366.492 438.052 366.125C436.927 365.567 435.643 364.996 434.46 365.417C433.606 365.721 433.007 366.483 432.496 367.232C431.288 369.003 429.853 371.191 429.537 373.355C429.203 375.643 428.978 378.024 428.924 380.336C428.888 381.904 428.947 383.474 429.103 385.035Z" fill="#0EA5B5"/>
</g>
<path id="Vector_173" d="M412.728 316.008C412.748 315.909 412.77 315.81 412.794 315.711C413.106 314.439 413.757 313.268 414.04 311.99C414.334 310.662 414.218 309.282 414.267 307.922C414.316 306.562 414.567 305.132 415.452 304.098C415.723 303.781 416.107 303.492 416.52 303.555C416.982 303.626 417.273 304.119 417.317 304.585C417.361 305.051 417.23 305.514 417.191 305.98C417.063 307.499 417.896 308.909 418.343 310.366C418.728 311.619 418.829 312.938 418.929 314.244C419.136 316.968 419.343 319.693 419.55 322.417C419.587 322.905 419.828 323.757 419.545 324.16C419.329 324.468 418.871 324.632 418.519 324.697C417.717 324.847 416.806 324.612 416.143 324.146C416.008 324.051 415.881 323.946 415.768 323.825C414.769 322.752 413.688 321.574 413.13 320.202C412.593 318.884 412.449 317.406 412.728 316.008Z" fill="#FFCC99"/>
<g id="Group_87">
<g id="Group_88">
<path id="Vector_174" d="M414.767 361.06C413.501 361.592 412.239 362.133 410.98 362.682C410.861 362.734 409.037 359.833 408.853 359.556C408.144 358.483 407.449 357.401 406.769 356.309C405.409 354.126 404.108 351.906 402.869 349.652C402.162 348.367 401.475 347.072 400.809 345.766C400.501 345.163 400.209 344.558 399.85 343.989C399.496 343.427 399.386 342.724 399.048 342.139C398.708 341.549 398.217 341.023 397.586 340.766C396.946 340.506 396.228 340.542 395.553 340.398C393.875 340.041 392.547 338.594 390.842 338.402C390.77 339.505 391.239 340.565 391.732 341.555C392.847 343.792 393.322 346.239 393.981 348.643C394.696 351.255 395.435 353.859 396.199 356.457C396.512 357.522 396.829 358.586 397.151 359.649C397.929 362.222 398.731 364.788 399.556 367.346C399.969 368.625 400.387 369.902 400.812 371.177C401.162 372.229 401.363 373.064 402.333 373.725C403.436 374.478 404.871 374.476 406.206 374.431C411.647 374.248 417.078 373.804 422.477 373.102C426.333 372.6 430.239 371.946 433.729 370.23C438.174 368.044 443.006 362.773 441.125 357.402C440.39 355.302 438.43 353.614 436.212 353.45C434.785 353.345 433.388 353.835 432.043 354.324C426.232 356.439 420.464 358.665 414.767 361.06Z" fill="#FFCC99"/>
<path id="Vector_175" d="M408.4 365.885C408.112 365.016 408.554 364.039 409.241 363.433C409.639 363.082 410.109 362.828 410.595 362.62C411.275 362.329 410.881 362.849 410.615 363.137C409.816 364.003 409.076 364.922 408.4 365.885Z" fill="#C29E7A"/>
<path id="Vector_176" d="M404.873 370.522C405.28 371.004 405.47 371.662 405.382 372.286C404.778 371.113 403.71 370.461 402.474 370.134C403.129 369.325 404.311 369.857 404.873 370.522Z" fill="#C29E7A"/>
</g>
<path id="Vector_177" d="M393.393 340.421C393.084 339.652 392.534 338.942 391.767 338.626C391.057 338.333 390.257 338.406 389.49 338.448C387.264 338.57 385.022 338.392 382.844 337.919C382.511 337.847 382.168 337.767 381.834 337.837C381.501 337.906 381.181 338.172 381.171 338.512C381.164 338.753 381.314 338.977 381.509 339.119C381.704 339.261 381.94 339.333 382.173 339.395C383.041 339.626 383.944 339.753 384.766 340.115C386.139 340.72 387.172 341.931 388.536 342.556C389.177 342.85 389.879 343.009 390.488 343.364C390.852 343.576 391.174 343.854 391.538 344.065C391.902 344.276 392.332 344.421 392.743 344.33C394.411 343.96 393.813 341.464 393.393 340.421Z" fill="#FFCC99"/>
<path id="Vector_178" d="M417.241 360.812C417.148 361.203 417.14 361.708 417.169 362.415C417.343 366.652 418.274 370.857 419.911 374.77C420.196 375.452 420.574 376.192 421.273 376.431C421.734 376.589 422.239 376.489 422.714 376.383C427.506 375.312 432.163 373.637 436.54 371.411C438.678 370.324 440.83 369.029 442.117 367.005C443.577 364.707 443.413 360.686 442.657 358.167C441.903 355.655 439.911 353.365 437.32 352.952C435.836 352.715 434.328 353.099 432.886 353.521C430.372 354.257 427.895 355.12 425.467 356.104C423.264 356.998 421.313 358.219 419.144 359.183C417.936 359.721 417.424 360.046 417.241 360.812Z" fill="#13DCF2"/>
</g>
</g>
</g>
</g>
<defs>
<clipPath id="clip0_0_1">
<rect width="500" height="500" fill="white"/>
</clipPath>
</defs>
</svg>
