<svg width="500" height="500" viewBox="0 0 500 500" fill="none" xmlns="http://www.w3.org/2000/svg">
<rect width="500" height="500" fill="#F5F5F5"/>
<g id="supportsystem 1" clip-path="url(#clip0_6_2)">
<g id="BACKGROUND">
<g id="Group">
<path id="Vector" d="M500 0H0V500H500V0Z" fill="white"/>
<g id="Group_2">
<g id="Group_3">
<path id="Vector_2" opacity="0.3" d="M0 92.706C0 92.706 41.267 111.338 65.957 73.427C90.648 35.516 105.013 18.456 171.831 39.307C238.65 60.157 265.603 0 265.603 0H0V92.706Z" fill="#E3EDFC"/>
<path id="Vector_3" opacity="0.6" d="M0 73.356C0 73.356 38.058 88.099 60.829 58.101C83.6 28.103 96.848 14.604 158.47 31.103C220.093 47.602 244.95 0 244.95 0H0V73.356Z" fill="#E3EDFC"/>
</g>
<g id="Group_4">
<path id="Vector_4" opacity="0.3" d="M500 433.589C500 433.589 451.402 420.241 422.326 447.4C393.248 474.558 376.332 486.779 297.643 471.841C218.956 456.906 187.215 500 187.215 500H500V433.589Z" fill="#E3EDFC"/>
<path id="Vector_5" opacity="0.6" d="M500 447.45C500 447.45 455.182 436.887 428.366 458.379C401.549 479.868 385.948 489.538 313.379 477.719C240.81 465.899 211.537 500 211.537 500H500V447.45Z" fill="#E3EDFC"/>
</g>
</g>
</g>
</g>
<g id="OBJECTS">
<g id="Group_5">
<g id="Group_6">
<path id="Vector_6" d="M427.2 410.45H65.607L65.314 410.101C65.148 409.903 48.893 390.095 65.258 366.528C81.575 343.034 84.765 333.681 76.124 312.663C74.619 309.005 72.707 305.045 70.684 300.854C60.504 279.766 47.835 253.521 71.074 233.302C72.925 231.691 74.728 230.129 76.488 228.606C100.209 208.061 115.881 194.49 121.88 170.266C124.337 160.349 129.695 146.157 141.275 134.866C152.189 124.225 165.872 118.829 181.948 118.829C194.461 118.829 208.324 122.185 223.153 128.805C266.94 148.348 282.409 154.03 300.542 154.03C306.574 154.03 312.999 153.434 321.418 152.592C324.789 152.255 328.244 152.084 331.685 152.084C353.73 152.084 372.854 158.849 384.154 170.645C393.103 179.986 397.318 192.273 396.679 207.164C396.296 216.124 395.686 223.718 395.149 230.418C392.966 257.633 392.151 267.816 412.466 285.361C441.918 310.799 461.33 356.897 427.491 409.998L427.2 410.45ZM66.54 408.491H426.125C458.893 356.636 439.932 311.673 411.185 286.844C390.117 268.65 391.017 257.41 393.194 230.261C393.73 223.578 394.337 216.004 394.72 207.078C395.335 192.744 391.303 180.941 382.738 172C371.804 160.588 353.197 154.044 331.684 154.044C328.308 154.044 324.919 154.212 321.612 154.543C313.136 155.39 306.665 155.99 300.542 155.99C282.046 155.99 266.436 150.27 222.354 130.595C207.777 124.089 194.183 120.79 181.948 120.79C171.205 120.79 135.261 124.392 123.783 170.737C117.634 195.564 101.776 209.299 77.772 230.088C76.014 231.609 74.211 233.172 72.361 234.782C50.252 254.018 62.561 279.516 72.451 300.003C74.488 304.221 76.412 308.206 77.938 311.92C87.372 334.867 82.681 344.88 66.87 367.647C52.516 388.316 64.528 405.827 66.54 408.491Z" fill="#E3EDFC"/>
</g>
<path id="Vector_7" d="M73.138 409.471C73.138 409.471 57.627 391.042 73.138 368.703C88.651 346.366 92.374 337.124 83.687 315.997C75 294.867 52.368 263.533 78.575 240.729C104.783 217.925 121.472 204.919 127.74 179.612C135.924 146.569 165.464 114.305 223.853 140.365C282.242 166.426 287.826 166.425 318.85 163.323C349.874 160.221 392.068 171.411 390.206 214.834C388.344 258.257 380.898 269.37 405.718 290.807C430.538 312.242 454.116 355.923 419.989 409.471H73.138Z" fill="#E3EDFC"/>
</g>
<g id="girl">
<g id="Group_7">
<g id="Group_8">
<path id="Vector_8" d="M208.782 218.834C208.782 218.834 193.843 311.065 250.914 311.065C307.984 311.065 294.639 215.242 294.639 215.242L210.535 218.835" fill="#814C4A"/>
<g id="Group_9" opacity="0.2">
<g id="Group_10">
<path id="Vector_9" d="M214.277 231.828C214.277 231.828 214.269 232.831 214.254 234.586C214.229 236.337 214.298 238.84 214.392 241.832C214.497 244.825 214.695 248.309 215.03 252.023C215.184 253.881 215.43 255.793 215.663 257.734C215.923 259.67 216.208 261.634 216.586 263.581C216.918 265.534 217.342 267.471 217.805 269.363C218.028 270.311 218.307 271.235 218.537 272.16C218.794 273.082 219.082 273.977 219.345 274.865C219.649 275.741 219.947 276.601 220.239 277.443C220.563 278.272 220.863 279.093 221.187 279.877C221.531 280.654 221.867 281.408 222.19 282.14C222.544 282.856 222.886 283.55 223.214 284.214C223.942 285.505 224.594 286.704 225.267 287.711C225.885 288.757 226.571 289.564 227.07 290.282C228.163 291.637 228.811 292.415 228.811 292.415C228.811 292.415 228.625 292.246 228.276 291.931C227.937 291.607 227.392 291.17 226.782 290.534C226.205 289.871 225.416 289.126 224.676 288.139C224.301 287.653 223.86 287.157 223.468 286.587C223.078 286.013 222.668 285.408 222.241 284.777C221.851 284.126 221.445 283.442 221.025 282.736C220.628 282.018 220.257 281.256 219.854 280.48C219.476 279.693 219.12 278.87 218.737 278.037C218.381 277.192 218.06 276.313 217.714 275.428C217.09 273.631 216.459 271.766 215.972 269.829C215.476 267.896 215.017 265.923 214.66 263.932C214.297 261.939 214.028 259.935 213.786 257.961C213.558 255.987 213.418 254.034 213.313 252.147C213.196 250.259 213.172 248.431 213.165 246.699C213.153 244.969 213.203 243.334 213.27 241.825C213.399 238.808 213.682 236.306 213.874 234.559C214.088 232.816 214.277 231.828 214.277 231.828Z" fill="#B76A6A"/>
<path id="Vector_10" d="M221.319 231.828C221.319 231.828 221.381 232.761 221.486 234.392C221.544 235.205 221.614 236.194 221.695 237.327C221.786 238.457 221.887 239.733 221.998 241.124C222.13 242.513 222.272 244.018 222.422 245.607C222.582 247.197 222.762 248.868 222.971 250.595C223.146 252.327 223.427 254.1 223.664 255.909C223.874 257.722 224.238 259.54 224.519 261.37C224.825 263.196 225.196 265.007 225.532 266.797C225.97 268.564 226.298 270.327 226.729 272.007C227.211 273.668 227.582 275.306 228.051 276.824C228.539 278.337 229.001 279.767 229.428 281.088C229.929 282.383 230.388 283.571 230.795 284.624C230.896 284.89 230.995 285.145 231.088 285.391C231.202 285.631 231.311 285.859 231.415 286.08C231.623 286.523 231.814 286.931 231.986 287.298C232.666 288.787 233.054 289.638 233.054 289.638C233.054 289.638 232.541 288.857 231.644 287.487C231.423 287.14 231.177 286.758 230.91 286.34C230.778 286.131 230.64 285.912 230.495 285.687C230.374 285.449 230.247 285.203 230.117 284.948C229.596 283.932 229.006 282.779 228.383 281.511C227.821 280.218 227.258 278.797 226.663 277.291C226.092 275.776 225.601 274.143 225.063 272.461C224.576 270.768 224.128 269 223.682 267.203C223.319 265.39 222.916 263.552 222.587 261.703C222.324 259.844 221.978 257.995 221.788 256.159C221.555 254.327 221.382 252.517 221.255 250.763C221.091 249.014 221.03 247.315 220.964 245.706C220.875 244.099 220.897 242.575 220.875 241.172C220.879 235.553 221.319 231.828 221.319 231.828Z" fill="#B76A6A"/>
<path id="Vector_11" d="M232.077 234.359C232.077 234.359 232.276 237.829 232.572 243.033C232.722 245.627 232.897 248.654 233.084 251.896C233.191 253.514 233.303 255.185 233.416 256.885C233.533 258.583 233.661 260.305 233.823 262.027C233.958 263.748 234.115 265.467 234.301 267.155C234.493 268.84 234.662 270.504 234.881 272.104C235.103 273.704 235.326 275.247 235.567 276.709C235.826 278.163 236.088 279.535 236.357 280.8C236.651 282.055 236.935 283.201 237.225 284.211C237.54 285.209 237.798 286.093 238.086 286.788C238.344 287.501 238.586 288.044 238.759 288.413C238.926 288.785 239.017 288.983 239.017 288.983C239.017 288.983 238.894 288.803 238.666 288.465C238.436 288.126 238.083 287.634 237.732 286.952C237.342 286.288 236.949 285.444 236.518 284.462C236.318 283.965 236.106 283.437 235.883 282.881C235.688 282.313 235.484 281.716 235.27 281.093C235.08 280.462 234.881 279.807 234.677 279.127C234.501 278.441 234.32 277.73 234.133 277.001C233.791 275.534 233.448 273.984 233.175 272.367C232.904 270.751 232.615 269.079 232.421 267.371C232.211 265.664 232.026 263.928 231.871 262.19C231.731 260.452 231.624 258.71 231.53 256.997C231.432 255.284 231.403 253.595 231.363 251.963C231.305 248.698 231.349 245.65 231.452 243.041C231.639 237.823 232.077 234.359 232.077 234.359Z" fill="#B76A6A"/>
</g>
<g id="Group_11">
<path id="Vector_12" d="M287.548 231.828C287.548 231.828 287.556 232.831 287.57 234.586C287.595 236.337 287.526 238.84 287.433 241.832C287.326 244.825 287.129 248.309 286.794 252.023C286.64 253.881 286.395 255.793 286.162 257.734C285.901 259.67 285.615 261.634 285.237 263.581C284.905 265.534 284.481 267.471 284.018 269.363C283.795 270.311 283.516 271.235 283.286 272.16C283.029 273.082 282.742 273.977 282.477 274.865C282.173 275.741 281.876 276.601 281.584 277.443C281.261 278.272 280.96 279.093 280.637 279.877C280.292 280.654 279.956 281.408 279.632 282.14C279.279 282.856 278.938 283.55 278.611 284.214C277.882 285.505 277.23 286.704 276.557 287.711C275.939 288.757 275.252 289.564 274.754 290.282C273.661 291.637 273.013 292.415 273.013 292.415C273.013 292.415 273.201 292.246 273.549 291.931C273.887 291.607 274.433 291.17 275.042 290.534C275.619 289.871 276.407 289.126 277.147 288.139C277.522 287.653 277.963 287.157 278.355 286.587C278.746 286.013 279.155 285.408 279.583 284.777C279.972 284.126 280.379 283.442 280.8 282.736C281.196 282.018 281.568 281.256 281.969 280.48C282.348 279.693 282.703 278.87 283.086 278.037C283.441 277.192 283.763 276.313 284.11 275.428C284.733 273.631 285.366 271.766 285.851 269.829C286.347 267.896 286.805 265.923 287.164 263.932C287.526 261.939 287.796 259.935 288.036 257.961C288.266 255.987 288.405 254.034 288.512 252.147C288.629 250.259 288.652 248.431 288.658 246.699C288.671 244.969 288.62 243.334 288.552 241.825C288.425 238.808 288.14 236.306 287.949 234.559C287.736 232.816 287.548 231.828 287.548 231.828Z" fill="#B76A6A"/>
<path id="Vector_13" d="M280.506 231.828C280.506 231.828 280.444 232.761 280.339 234.392C280.281 235.205 280.211 236.194 280.131 237.327C280.04 238.457 279.938 239.733 279.826 241.124C279.696 242.513 279.553 244.018 279.402 245.607C279.243 247.197 279.062 248.868 278.854 250.595C278.677 252.327 278.398 254.1 278.16 255.909C277.951 257.722 277.588 259.54 277.305 261.37C276.998 263.196 276.629 265.007 276.291 266.797C275.855 268.564 275.525 270.327 275.095 272.007C274.613 273.668 274.241 275.306 273.773 276.824C273.285 278.337 272.822 279.767 272.397 281.088C271.896 282.383 271.436 283.571 271.03 284.624C270.927 284.89 270.831 285.145 270.735 285.391C270.622 285.631 270.513 285.859 270.409 286.08C270.201 286.523 270.01 286.931 269.838 287.298C269.158 288.787 268.771 289.638 268.771 289.638C268.771 289.638 269.284 288.857 270.179 287.487C270.401 287.14 270.648 286.758 270.913 286.34C271.047 286.131 271.185 285.912 271.328 285.687C271.449 285.449 271.575 285.203 271.705 284.948C272.228 283.932 272.817 282.779 273.439 281.511C274.002 280.218 274.564 278.797 275.16 277.291C275.731 275.776 276.223 274.143 276.761 272.461C277.247 270.768 277.696 269 278.141 267.203C278.505 265.39 278.907 263.552 279.236 261.703C279.501 259.844 279.845 257.995 280.037 256.159C280.268 254.327 280.442 252.517 280.568 250.763C280.733 249.014 280.793 247.315 280.859 245.706C280.947 244.099 280.926 242.575 280.947 241.172C280.945 235.553 280.506 231.828 280.506 231.828Z" fill="#B76A6A"/>
<path id="Vector_14" d="M269.749 234.359C269.749 234.359 269.549 237.829 269.253 243.033C269.103 245.627 268.928 248.654 268.741 251.896C268.634 253.514 268.521 255.185 268.409 256.885C268.292 258.583 268.163 260.305 268.001 262.027C267.868 263.748 267.71 265.467 267.524 267.155C267.333 268.84 267.163 270.504 266.945 272.104C266.721 273.704 266.499 275.247 266.259 276.709C265.999 278.163 265.738 279.535 265.468 280.8C265.175 282.055 264.891 283.201 264.6 284.211C264.285 285.209 264.027 286.093 263.741 286.788C263.481 287.501 263.239 288.044 263.067 288.413C262.898 288.785 262.808 288.983 262.808 288.983C262.808 288.983 262.931 288.803 263.159 288.465C263.387 288.126 263.742 287.634 264.093 286.952C264.483 286.288 264.875 285.444 265.307 284.462C265.507 283.965 265.718 283.437 265.943 282.881C266.137 282.313 266.342 281.716 266.556 281.093C266.745 280.462 266.944 279.807 267.15 279.127C267.324 278.441 267.506 277.73 267.693 277.001C268.036 275.534 268.378 273.984 268.652 272.367C268.923 270.751 269.211 269.079 269.405 267.371C269.616 265.664 269.801 263.928 269.955 262.19C270.096 260.452 270.202 258.71 270.298 256.997C270.396 255.284 270.425 253.595 270.462 251.963C270.522 248.698 270.478 245.65 270.374 243.041C270.185 237.823 269.749 234.359 269.749 234.359Z" fill="#B76A6A"/>
</g>
</g>
</g>
<g id="Group_12">
<g id="Group_13">
<g id="Group_14">
<g id="Group_15">
<g id="Group_16">
<g id="Group_17">
<path id="Vector_15" d="M261.194 251.356H251.312H241.422L232.976 285.665L251.312 311.091L269.645 283.563L261.194 251.356Z" fill="#FFAE8A"/>
</g>
<path id="Vector_16" d="M261.194 251.356H251.312H241.422L239.363 259.717C245.209 265.598 257.356 269.491 264.846 265.276L261.194 251.356Z" fill="#F79B77"/>
</g>
<g id="Group_18">
<path id="Vector_17" d="M302.577 278.232L266.026 269.776C266.026 281.223 253.143 281.19 252.104 280.981V280.966C252.104 280.966 252.09 280.968 252.067 280.972C252.045 280.968 252.03 280.966 252.03 280.966V280.981C250.99 281.19 236.888 281.223 236.888 269.776L201.558 278.232L209.094 313.104C209.094 313.104 199.389 334.36 216.299 349.391L219.403 401.226H252.03H252.104H285.799L287.833 349.391C304.741 334.36 295.039 313.104 295.039 313.104L302.577 278.232Z" fill="#FAC849"/>
<path id="Vector_18" d="M252.019 284.511V284.492C252.019 284.492 252.037 284.496 252.067 284.502C252.096 284.496 252.114 284.492 252.114 284.492V284.511C253.418 284.774 269.487 284.812 269.683 270.621L266.026 269.775C266.026 281.222 253.143 281.189 252.104 280.98V280.965C252.104 280.965 252.09 280.967 252.067 280.971C252.045 280.967 252.03 280.965 252.03 280.965V280.98C250.99 281.189 236.888 281.222 236.888 269.775L232.915 270.725C233.217 284.81 250.717 284.774 252.019 284.511Z" fill="#F9B212"/>
</g>
<g id="Group_19">
<g id="Group_20">
<g id="Group_21">
<path id="Vector_19" d="M261.643 212.259C261.643 212.259 261.392 209.335 262.395 208.752C263.398 208.165 272.299 207.873 275.559 208.752C278.817 209.628 280.195 213.682 280.195 213.682C280.195 213.682 279.018 211.996 273.998 211.474C270.315 211.093 262.895 212.844 261.643 212.259Z" fill="#AA6868"/>
<path id="Vector_20" d="M241.224 212.259C241.224 212.259 241.475 209.335 240.472 208.752C239.472 208.165 230.57 207.873 227.312 208.752C224.051 209.628 222.669 213.682 222.669 213.682C222.669 213.682 223.849 211.996 228.867 211.474C232.554 211.093 239.972 212.844 241.224 212.259Z" fill="#AA6868"/>
</g>
<g id="Group_22">
<path id="Vector_21" d="M273.337 222.186C273.337 224.34 272.155 226.088 270.693 226.088C269.234 226.088 268.05 224.34 268.05 222.186C268.05 220.033 269.234 218.288 270.693 218.288C272.156 218.288 273.337 220.033 273.337 222.186Z" fill="#111B24"/>
<path id="Vector_22" d="M235.38 222.186C235.38 224.34 234.196 226.088 232.737 226.088C231.278 226.088 230.095 224.34 230.095 222.186C230.095 220.033 231.278 218.288 232.737 218.288C234.196 218.288 235.38 220.033 235.38 222.186Z" fill="#111B24"/>
</g>
</g>
<g id="Group_23">
<path id="Vector_23" d="M239.743 242.256C239.743 242.256 243.191 250.429 251.431 250.429C259.667 250.429 263.099 242.256 263.099 242.256C263.099 242.256 253.475 246.562 239.743 242.256Z" fill="#F4472A"/>
<path id="Vector_24" d="M239.769 242.312C239.769 242.312 245.444 246.994 251.585 246.994C257.726 246.994 262.967 242.312 262.967 242.312C262.967 242.312 253.336 247.734 239.769 242.312Z" fill="white"/>
<g id="Group_24">
<g id="Group_25">
<path id="Vector_25" d="M263.425 242.035C263.425 242.035 255.303 241.537 253.736 242.035C252.185 242.528 252.099 242.571 251.587 242.571C251.044 242.571 250.984 242.529 249.437 242.035C247.866 241.537 239.744 242.035 239.744 242.035C249.301 246.805 261.664 243.827 263.425 242.035Z" fill="#F4472A"/>
</g>
<g id="Group_26">
<path id="Vector_26" d="M237.834 241.41C245.943 245.596 257.008 245.88 265.034 241.41C265.215 241.309 265.038 241.076 264.852 241.179C256.927 245.595 246.026 245.314 238.013 241.179C237.823 241.08 237.645 241.314 237.834 241.41Z" fill="#F4472A"/>
</g>
</g>
</g>
<path id="Vector_27" d="M247.206 234.385C247.206 234.385 247.795 234.586 248.68 234.887C249.104 235.01 249.566 235.164 250.046 235.268C250.284 235.325 250.528 235.361 250.768 235.405C251.011 235.419 251.249 235.478 251.488 235.458C251.726 235.487 251.96 235.454 252.194 235.439C252.432 235.446 252.654 235.356 252.89 235.337C253.121 235.3 253.339 235.207 253.566 235.159C253.796 235.117 253.994 235.002 254.202 234.942C254.4 234.862 254.608 234.813 254.769 234.727C254.932 234.647 255.091 234.589 255.221 234.537C255.486 234.436 255.657 234.384 255.657 234.384C255.657 234.384 255.612 234.543 255.497 234.812C255.375 235.071 255.221 235.48 254.873 235.846C254.701 236.031 254.545 236.275 254.295 236.441C254.053 236.612 253.806 236.825 253.5 236.964C253.188 237.084 252.875 237.269 252.514 237.313C252.16 237.392 251.794 237.438 251.427 237.417C251.057 237.419 250.704 237.339 250.359 237.258C250.024 237.16 249.7 237.034 249.415 236.881C248.834 236.579 248.383 236.186 248.051 235.813C247.377 235.068 247.206 234.385 247.206 234.385Z" fill="#F89675"/>
</g>
<g id="Group_27" opacity="0.1">
<path id="Vector_28" d="M233.79 232.887C233.79 236.465 230.494 239.366 226.427 239.366C222.36 239.366 219.064 236.465 219.064 232.887C219.064 229.308 222.36 226.407 226.427 226.407C230.494 226.407 233.79 229.309 233.79 232.887Z" fill="#F4472A"/>
<path id="Vector_29" d="M284.744 232.887C284.744 236.465 281.447 239.366 277.381 239.366C273.315 239.366 270.019 236.465 270.019 232.887C270.019 229.308 273.315 226.407 277.381 226.407C281.447 226.407 284.744 229.309 284.744 232.887Z" fill="#F4472A"/>
</g>
</g>
<path id="Vector_30" d="M302.402 278.232C302.402 278.232 315.463 282.714 321.726 297.607C327.989 312.499 343.305 357.381 340.812 367.356C338.134 378.071 286.31 398.705 286.31 398.705L278.472 385.169C278.472 385.169 310.533 362.726 315.875 358.452L295.039 313.104L302.402 278.232Z" fill="#F4B425"/>
<path id="Vector_31" d="M201.684 278.232C201.684 278.232 188.622 282.714 182.36 297.607C176.096 312.499 160.779 357.381 163.272 367.356C165.95 378.071 217.775 398.705 217.775 398.705L225.613 385.169C225.613 385.169 193.553 362.726 188.209 358.452L209.093 313.104L201.684 278.232Z" fill="#F4B425"/>
<path id="Vector_32" d="M269.455 348.7C262.381 346.509 255.689 344.656 252.045 344.656C248.397 344.656 241.708 346.508 234.632 348.7C227.554 350.891 222.5 349.714 222.5 349.714C227.524 352.826 234.475 353.261 241.371 350.725C247.456 348.484 252.045 348.536 252.045 348.536C252.045 348.536 256.571 348.653 262.716 350.725C269.74 353.092 276.562 352.827 281.585 349.714C281.584 349.714 276.532 350.891 269.455 348.7Z" fill="#F4B425"/>
<g id="Group_28">
<path id="Vector_33" d="M295.833 214.438C294.323 213.12 293.079 213.241 292.071 214.09C291.952 214.149 291.858 214.236 291.799 214.343C290.036 216.132 289.072 220.145 288.766 222.025C288.641 222.798 289.822 223.13 289.948 222.351C290.158 221.058 290.911 217.258 292.285 215.564C293.091 217.03 293.172 218.781 292.258 220.278C291.846 220.954 292.905 221.568 293.317 220.895C294.471 219.003 294.376 216.661 293.262 214.814C293.769 214.639 294.335 214.753 294.966 215.304C295.559 215.82 296.429 214.958 295.833 214.438Z" fill="#F4885D"/>
<path id="Vector_34" d="M207.497 214.438C209.006 213.12 210.252 213.241 211.258 214.09C211.378 214.149 211.471 214.236 211.531 214.343C213.293 216.132 214.258 220.145 214.563 222.025C214.689 222.798 213.508 223.13 213.382 222.351C213.173 221.058 212.419 217.258 211.046 215.564C210.24 217.03 210.159 218.781 211.073 220.278C211.486 220.954 210.425 221.568 210.014 220.895C208.86 219.003 208.956 216.661 210.069 214.814C209.561 214.639 208.995 214.753 208.364 215.304C207.771 215.82 206.901 214.958 207.497 214.438Z" fill="#F4885D"/>
</g>
</g>
<path id="Vector_35" d="M280.288 388.304C280.288 388.304 269.026 388.135 267.23 389.768C265.434 391.402 260.044 401.364 260.862 402.344C261.678 403.324 274.417 401.036 277.681 399.731C280.948 398.425 285.271 396.911 285.271 396.911L280.288 388.304Z" fill="#FFAE8A"/>
<path id="Vector_36" d="M223.345 388.304C223.345 388.304 234.606 388.135 236.402 389.768C238.199 391.402 243.588 401.364 242.771 402.344C241.954 403.324 229.216 401.036 225.95 399.731C222.685 398.425 218.362 396.911 218.362 396.911L223.345 388.304Z" fill="#FFAE8A"/>
</g>
</g>
<g id="Group_29">
<g id="Group_30">
<g id="Group_31">
<path id="Vector_37" d="M290.433 227.648C285.063 232.241 279.692 236.835 274.323 241.429C273.021 242.543 274.669 244.64 275.979 243.52C281.347 238.927 286.717 234.332 292.088 229.738C293.39 228.625 291.743 226.526 290.433 227.648Z" fill="#5D93F4"/>
</g>
<g id="Group_32">
<path id="Vector_38" d="M280.473 238.33C281.462 239.575 281.255 241.386 280.01 242.376L275.523 245.944C274.278 246.933 272.467 246.725 271.478 245.482C270.488 244.237 270.695 242.426 271.94 241.436L276.427 237.868C277.671 236.879 279.483 237.086 280.473 238.33Z" fill="#1A65D3"/>
<path id="Vector_39" opacity="0.5" d="M280.473 238.33C279.797 237.481 278.74 237.129 277.74 237.296C277.897 237.426 278.045 237.569 278.175 237.733C279.165 238.978 278.959 240.789 277.713 241.779L273.225 245.347C272.831 245.661 272.378 245.84 271.914 245.92C272.939 246.757 274.443 246.803 275.523 245.945L280.01 242.377C281.255 241.386 281.462 239.575 280.473 238.33Z" fill="#0952AA"/>
</g>
</g>
<g id="ggrhead">
<g id="girlhead">
<g id="Group_33">
<g id="Group_34">
<g id="Group_35">
<path id="Vector_40" d="M216.613 217.563C216.613 217.563 210.661 207.987 207.089 212.539C203.514 217.091 209.27 228.066 216.613 226.196V217.563Z" fill="#FFAE8A"/>
<path id="Vector_41" d="M286.757 217.563C286.757 217.563 292.704 207.987 296.272 212.539C299.846 217.091 294.09 228.066 286.757 226.196V217.563Z" fill="#FFAE8A"/>
</g>
<g id="Group_36">
<path id="Vector_42" d="M251.805 165.521C211.328 165.521 214.506 217.235 215.297 229.839C216.09 242.448 223.827 246.78 233.947 254.721C244.065 262.655 251.805 261.819 251.805 261.819C251.805 261.819 259.545 262.655 269.664 254.721C279.779 246.781 287.517 242.448 288.306 229.839C289.106 217.235 292.286 165.521 251.805 165.521Z" fill="#FFAE8A"/>
<path id="Vector_43" opacity="0.5" d="M288.485 211.338C288.735 218.129 288.378 223.884 288.174 227.097C287.385 239.706 279.649 244.038 269.531 251.977C259.412 259.912 251.672 259.077 251.672 259.077C251.672 259.077 243.931 259.912 233.814 251.977C223.694 244.038 215.959 239.706 215.165 227.097C215.125 226.454 215.077 225.705 215.031 224.87C215.112 226.866 215.217 228.558 215.298 229.84C216.091 242.449 223.828 246.781 233.948 254.722C244.066 262.656 251.806 261.82 251.806 261.82C251.806 261.82 259.546 262.656 269.665 254.722C279.78 246.782 287.518 242.449 288.307 229.84C288.537 226.203 288.964 219.306 288.485 211.338Z" fill="#FFBCA1"/>
</g>
</g>
</g>
<g id="Group_37">
<path id="Vector_44" d="M214.952 215.267C214.952 215.267 234.404 205.236 239.735 186.128C239.735 186.128 255.655 213.052 288.655 215.267C288.655 215.267 291.825 210.868 295.39 211.726C295.39 211.726 297.654 160 251.682 160C205.709 160 209.635 211.329 209.635 211.329C209.635 211.329 212.161 212.054 214.952 215.267Z" fill="#814C4A"/>
<g id="Group_38" opacity="0.2">
<path id="Vector_45" d="M245.72 177.801C245.72 177.801 246.175 178.379 247.014 179.345C247.853 180.311 249.059 181.675 250.577 183.238C251.321 184.032 252.178 184.845 253.058 185.722C253.945 186.594 254.935 187.456 255.921 188.381C256.958 189.252 257.986 190.2 259.112 191.067C259.665 191.512 260.222 191.959 260.783 192.408C261.348 192.849 261.947 193.252 262.528 193.676C263.113 194.096 263.675 194.549 264.273 194.945C264.874 195.337 265.471 195.727 266.065 196.116C267.237 196.916 268.451 197.602 269.617 198.287C270.768 199 271.947 199.562 273.047 200.139C273.601 200.423 274.138 200.701 274.658 200.969C275.192 201.206 275.709 201.435 276.205 201.654C277.205 202.078 278.102 202.533 278.925 202.86C279.756 203.173 280.481 203.447 281.076 203.673C282.27 204.149 282.953 204.421 282.953 204.421C282.953 204.421 282.232 204.298 280.97 204.047C280.338 203.915 279.57 203.757 278.691 203.572C277.817 203.363 276.858 203.035 275.799 202.704C275.27 202.536 274.719 202.359 274.149 202.177C273.59 201.966 273.027 201.713 272.439 201.469C271.27 200.969 270.005 200.495 268.797 199.805C267.575 199.147 266.266 198.538 265.057 197.716C264.44 197.326 263.817 196.932 263.192 196.539C262.571 196.14 261.982 195.687 261.376 195.26C260.784 194.813 260.175 194.39 259.601 193.926C259.033 193.455 258.465 192.987 257.905 192.521C257.335 192.068 256.792 191.589 256.281 191.088C255.761 190.597 255.249 190.112 254.745 189.636C253.765 188.654 252.84 187.684 252.005 186.728C251.167 185.774 250.394 184.856 249.729 183.968C249.035 183.108 248.467 182.263 247.953 181.53C247.449 180.787 247.032 180.125 246.701 179.571C246.036 178.466 245.72 177.801 245.72 177.801Z" fill="#B76A6A"/>
<path id="Vector_46" d="M250.456 170.942C250.456 170.942 252.378 172.67 255.313 175.13C256.051 175.74 256.85 176.401 257.695 177.1C258.548 177.785 259.448 178.507 260.381 179.254C262.277 180.7 264.273 182.275 266.364 183.715L267.906 184.83C268.431 185.18 268.955 185.53 269.473 185.876C270.508 186.577 271.532 187.257 272.544 187.884C273.544 188.532 274.526 189.13 275.469 189.684C276.408 190.246 277.291 190.786 278.135 191.234C278.969 191.704 279.736 192.136 280.414 192.519C281.107 192.876 281.712 193.189 282.21 193.446C283.203 193.973 283.769 194.294 283.769 194.294C283.769 194.294 283.148 194.129 282.064 193.807C281.522 193.64 280.867 193.437 280.112 193.203C279.373 192.935 278.545 192.611 277.644 192.247C277.195 192.061 276.717 191.885 276.241 191.672C275.768 191.446 275.28 191.212 274.778 190.972C273.772 190.494 272.711 189.987 271.665 189.368C270.606 188.772 269.498 188.175 268.44 187.46C267.904 187.116 267.363 186.768 266.819 186.419L265.226 185.31C264.165 184.564 263.15 183.761 262.142 182.98C261.123 182.212 260.207 181.352 259.275 180.575C257.471 178.951 255.844 177.378 254.541 175.941C253.215 174.529 252.196 173.27 251.502 172.378C250.81 171.483 250.456 170.942 250.456 170.942Z" fill="#B76A6A"/>
<path id="Vector_47" d="M253.396 165.716C253.396 165.716 255.959 165.777 259.693 166.678C260.621 166.92 261.637 167.148 262.678 167.509C263.202 167.678 263.741 167.851 264.291 168.03C264.83 168.238 265.383 168.451 265.943 168.667C267.073 169.084 268.192 169.639 269.339 170.175C270.459 170.77 271.594 171.386 272.699 172.051L274.303 173.136L275.1 173.677L275.851 174.274C276.849 175.066 277.828 175.849 278.664 176.737C279.091 177.169 279.522 177.581 279.924 178.004C280.344 178.408 280.658 178.899 281.017 179.323C281.695 180.204 282.391 180.989 282.843 181.855C283.346 182.684 283.784 183.452 284.169 184.129C284.493 184.842 284.732 185.484 284.942 186.002C285.352 187.042 285.567 187.635 285.567 187.635C285.567 187.635 285.2 187.105 284.596 186.179C284.299 185.717 283.938 185.158 283.527 184.516C283.043 183.921 282.5 183.252 281.933 182.517C281.401 181.752 280.629 181.08 279.92 180.292C279.224 179.49 278.352 178.777 277.492 178.005C276.667 177.193 275.658 176.537 274.709 175.781L273.985 175.224L273.212 174.722L271.662 173.713C270.614 173.056 269.535 172.445 268.469 171.854C267.366 171.331 266.336 170.696 265.26 170.246C264.729 170.002 264.208 169.76 263.698 169.523C263.178 169.304 262.674 169.087 262.18 168.877C261.194 168.449 260.239 168.102 259.366 167.749C257.602 167.097 256.115 166.571 255.059 166.239C254.008 165.89 253.396 165.716 253.396 165.716Z" fill="#B76A6A"/>
<path id="Vector_48" d="M237.392 177.801C237.392 177.801 237.285 178.38 237.006 179.371C236.724 180.359 236.286 181.767 235.614 183.399C234.972 185.046 234.077 186.905 233.025 188.85C232.454 189.796 231.941 190.824 231.277 191.779C230.642 192.753 229.994 193.741 229.284 194.687C228.927 195.158 228.579 195.636 228.214 196.096C227.837 196.548 227.462 196.999 227.09 197.447C226.372 198.366 225.548 199.166 224.786 199.97C224.043 200.792 223.227 201.491 222.47 202.167C222.091 202.503 221.723 202.831 221.366 203.148C220.986 203.436 220.619 203.716 220.266 203.986C219.561 204.521 218.918 205.009 218.324 205.41C217.712 205.786 217.179 206.114 216.741 206.386C215.858 206.912 215.348 207.197 215.348 207.197C215.348 207.197 215.765 206.777 216.508 206.073C216.88 205.728 217.334 205.309 217.853 204.828C218.35 204.327 218.911 203.76 219.523 203.142C219.828 202.836 220.147 202.518 220.476 202.188C220.79 201.843 221.115 201.488 221.45 201.122C222.12 200.394 222.832 199.635 223.518 198.804C224.223 197.99 224.937 197.139 225.632 196.247C225.985 195.806 226.34 195.361 226.696 194.915L227.71 193.526C228.417 192.621 229.067 191.675 229.703 190.739C230.356 189.816 230.946 188.87 231.548 187.974C232.104 187.05 232.687 186.181 233.191 185.326C233.689 184.47 234.185 183.67 234.609 182.913C236.336 179.902 237.392 177.801 237.392 177.801Z" fill="#B76A6A"/>
<path id="Vector_49" d="M241.624 167.513C241.624 167.513 241.479 167.549 241.216 167.639C240.949 167.716 240.571 167.877 240.088 168.049C239.613 168.255 239.031 168.471 238.391 168.79C237.741 169.079 237.04 169.472 236.275 169.885C235.886 170.077 235.517 170.349 235.117 170.59C234.724 170.844 234.299 171.071 233.904 171.376C233.502 171.664 233.087 171.96 232.665 172.263C232.261 172.589 231.848 172.923 231.43 173.261C230.561 173.901 229.821 174.746 228.977 175.494C228.19 176.303 227.423 177.161 226.682 178.034C225.998 178.957 225.226 179.817 224.615 180.775C224.032 181.746 223.328 182.628 222.81 183.583C222.299 184.539 221.771 185.452 221.273 186.322C220.844 187.228 220.438 188.087 220.063 188.878C219.871 189.273 219.687 189.654 219.512 190.015C219.347 190.382 219.216 190.74 219.079 191.071C218.805 191.736 218.564 192.317 218.367 192.793C217.96 193.75 217.707 194.295 217.707 194.295C217.707 194.295 217.799 193.71 217.994 192.685C218.097 192.172 218.223 191.551 218.367 190.836C218.448 190.481 218.517 190.096 218.619 189.699C218.744 189.311 218.876 188.901 219.013 188.474C219.292 187.62 219.584 186.686 219.944 185.716C220.366 184.774 220.808 183.772 221.299 182.752C221.52 182.229 221.843 181.747 222.131 181.24C222.425 180.734 222.729 180.227 223.045 179.721C223.669 178.703 224.462 177.772 225.174 176.788C225.977 175.875 226.807 174.98 227.66 174.139C228.561 173.347 229.425 172.541 230.375 171.902C230.843 171.576 231.282 171.225 231.751 170.94C232.226 170.666 232.69 170.396 233.143 170.135C234.045 169.615 234.958 169.224 235.791 168.875C236.638 168.543 237.42 168.27 238.135 168.091C238.835 167.871 239.475 167.783 239.987 167.676C241.026 167.512 241.624 167.513 241.624 167.513Z" fill="#B76A6A"/>
</g>
</g>
</g>
<g id="Group_39">
<g id="Group_40">
<path id="Vector_50" d="M211.9 204.566L206.022 204.54C206.024 204.057 206.759 156.218 251.711 156.218C296.535 156.218 297.054 204.071 297.054 204.554H291.175C291.171 202.824 290.626 162.098 251.711 162.098C235.301 162.098 223.636 169.168 217.039 183.114C212.006 193.748 211.901 204.46 211.9 204.566Z" fill="#5D93F4"/>
</g>
<path id="Vector_51" opacity="0.5" d="M211.9 204.566C211.901 204.46 212.006 193.748 217.039 183.113C223.636 169.167 235.302 162.097 251.711 162.097C290.626 162.097 291.171 202.824 291.175 204.553H294.261C293.98 198.432 290.647 159.973 251.701 159.973C212.617 159.973 209.123 198.474 208.818 204.553L211.9 204.566Z" fill="#1A65D3"/>
</g>
<g id="Group_41">
<g id="Group_42">
<g id="Group_43">
<path id="Vector_52" d="M211.174 201.456H208.961V202.595C206.701 204.985 205.097 210.907 205.097 217.855C205.097 224.801 206.701 230.725 208.961 233.115V234.252H211.174C214.53 234.252 217.251 226.91 217.251 217.855C217.25 208.798 214.53 201.456 211.174 201.456Z" fill="#1A65D3"/>
<path id="Vector_53" d="M208.961 201.456C208.416 201.456 207.89 201.668 207.387 202.032C205.098 203.24 201.121 206.911 201.121 217.855C201.121 227.7 204.339 231.533 206.652 233.02C207.364 233.81 208.143 234.251 208.961 234.251C212.318 234.251 215.038 226.909 215.038 217.854C215.038 208.798 212.317 201.456 208.961 201.456Z" fill="#5D93F4"/>
<path id="Vector_54" opacity="0.2" d="M210.707 202.152C212.248 205.127 213.254 209.983 213.254 215.483C213.254 224.539 210.533 231.881 207.177 231.881C206.359 231.881 205.581 231.438 204.869 230.649C204.447 230.378 203.995 230.027 203.537 229.577C204.53 231.33 205.671 232.39 206.652 233.02C207.364 233.81 208.143 234.251 208.961 234.251C212.318 234.251 215.038 226.909 215.038 217.854C215.038 210.436 213.212 204.176 210.707 202.152Z" fill="#814C4A"/>
</g>
<path id="Vector_55" opacity="0.2" d="M206.837 205.862C206.837 205.862 206.769 206.16 206.65 206.68C206.541 207.197 206.392 207.911 206.237 208.754C206.169 209.181 206.075 209.623 206.006 210.105C205.924 210.579 205.847 211.077 205.777 211.594C205.688 212.103 205.647 212.646 205.563 213.179C205.502 213.72 205.442 214.269 205.381 214.82C205.331 215.375 205.281 215.928 205.231 216.474C205.206 217.024 205.142 217.565 205.107 218.095C205.082 218.624 205.044 219.14 205 219.635C204.97 220.134 204.94 220.606 204.914 221.041C204.822 221.927 204.802 222.674 204.735 223.212C204.681 223.75 204.625 224.069 204.625 224.069C204.625 224.069 204.491 223.804 204.301 223.318C204.118 222.83 203.834 222.128 203.639 221.234C203.537 220.789 203.423 220.302 203.338 219.778C203.266 219.253 203.199 218.694 203.145 218.111C203.101 217.529 203.094 216.918 203.09 216.3C203.088 215.682 203.153 215.055 203.19 214.426C203.271 213.804 203.35 213.179 203.468 212.577C203.602 211.978 203.721 211.387 203.905 210.841C204.066 210.286 204.259 209.771 204.463 209.295C204.655 208.817 204.887 208.394 205.091 208.008C205.529 207.25 205.963 206.696 206.289 206.349C206.62 206.005 206.837 205.862 206.837 205.862Z" fill="white"/>
</g>
<g id="Group_44">
<g id="Group_45">
<path id="Vector_56" d="M291.02 201.456H293.234V202.595C295.495 204.985 297.098 210.907 297.098 217.855C297.098 224.801 295.494 230.725 293.234 233.115V234.252H291.02C287.664 234.252 284.944 226.91 284.944 217.855C284.943 208.798 287.663 201.456 291.02 201.456Z" fill="#1A65D3"/>
<path id="Vector_57" d="M293.233 201.456C293.778 201.456 294.303 201.668 294.806 202.032C297.094 203.24 301.072 206.911 301.072 217.855C301.072 227.7 297.854 231.533 295.542 233.02C294.83 233.81 294.051 234.251 293.233 234.251C289.877 234.251 287.156 226.909 287.156 217.854C287.156 208.798 289.877 201.456 293.233 201.456Z" fill="#5D93F4"/>
<path id="Vector_58" opacity="0.2" d="M291.486 202.152C289.945 205.127 288.939 209.983 288.939 215.483C288.939 224.539 291.66 231.881 295.015 231.881C295.832 231.881 296.612 231.438 297.324 230.649C297.746 230.378 298.198 230.027 298.655 229.577C297.664 231.33 296.521 232.39 295.542 233.02C294.83 233.81 294.051 234.251 293.233 234.251C289.877 234.251 287.156 226.909 287.156 217.854C287.156 210.436 288.981 204.176 291.486 202.152Z" fill="#814C4A"/>
</g>
<path id="Vector_59" opacity="0.2" d="M295.356 205.862C295.356 205.862 295.423 206.16 295.544 206.68C295.652 207.197 295.802 207.911 295.954 208.754C296.023 209.181 296.117 209.623 296.186 210.105C296.268 210.579 296.344 211.077 296.415 211.594C296.503 212.103 296.545 212.646 296.629 213.179C296.689 213.72 296.751 214.269 296.81 214.82C296.862 215.375 296.912 215.928 296.96 216.474C296.985 217.024 297.048 217.565 297.085 218.095C297.109 218.624 297.148 219.14 297.192 219.635C297.222 220.134 297.253 220.606 297.28 221.041C297.371 221.927 297.39 222.674 297.459 223.212C297.512 223.75 297.567 224.069 297.567 224.069C297.567 224.069 297.701 223.804 297.89 223.318C298.075 222.83 298.359 222.128 298.554 221.234C298.654 220.789 298.769 220.302 298.855 219.778C298.925 219.253 298.993 218.694 299.047 218.111C299.09 217.529 299.099 216.918 299.103 216.3C299.104 215.682 299.04 215.055 299.001 214.426C298.921 213.804 298.842 213.179 298.725 212.577C298.59 211.978 298.472 211.387 298.288 210.841C298.126 210.286 297.933 209.771 297.73 209.295C297.538 208.817 297.306 208.394 297.101 208.008C296.663 207.25 296.228 206.696 295.903 206.349C295.574 206.005 295.356 205.862 295.356 205.862Z" fill="white"/>
</g>
</g>
</g>
</g>
</g>
</g>
<g id="Group_46">
<path id="Vector_60" d="M426.535 409.471H76.755V426.644H426.535V409.471Z" fill="#5D93F4"/>
<path id="Vector_61" d="M442.461 414.142C442.461 416.711 440.258 418.813 437.563 418.813H65.728C63.034 418.813 60.829 416.711 60.829 414.142C60.829 411.573 63.034 409.471 65.728 409.471H437.563C440.258 409.471 442.461 411.572 442.461 414.142Z" fill="#2D80E2"/>
</g>
<path id="Vector_62" d="M338.197 405.337C338.197 407.62 336.343 409.471 334.06 409.471H169.228C166.945 409.471 165.094 407.62 165.094 405.337C165.094 403.054 166.945 401.2 169.228 401.2H334.06C336.344 401.2 338.197 403.054 338.197 405.337Z" fill="#184A7C"/>
<g id="Group_47">
<g id="Group_48">
<path id="Vector_63" d="M325.132 394.717C325.132 399.028 321.605 402.557 317.293 402.557H185.997C181.685 402.557 178.158 399.029 178.158 394.717V322.788C178.158 318.477 181.685 314.95 185.997 314.95H317.293C321.604 314.95 325.132 318.476 325.132 322.788V394.717Z" fill="#1D5393"/>
<path id="Vector_64" d="M257.443 358.144C257.443 361.346 254.846 363.943 251.646 363.943C248.442 363.943 245.847 361.346 245.847 358.144C245.847 354.944 248.443 352.347 251.646 352.347C254.847 352.347 257.443 354.943 257.443 358.144Z" fill="#5D93F4"/>
</g>
<path id="Vector_65" opacity="0.6" d="M317.293 314.95H289.015C287.361 368.175 214.922 393.241 182.637 401.783C183.658 402.272 184.795 402.556 185.997 402.556H317.293C321.604 402.556 325.132 399.028 325.132 394.716V322.787C325.132 318.477 321.604 314.95 317.293 314.95Z" fill="#114068"/>
</g>
<g id="Group_49">
<g id="bigmsg">
<g id="Group_50">
<path id="Vector_66" d="M143.335 151.429H99.455C94.137 151.429 89.827 155.74 89.827 161.058V192.131C89.827 197.448 94.137 201.759 99.455 201.759H120.875L133.141 210.742V201.759H143.335C148.652 201.759 152.964 197.448 152.964 192.131V161.058C152.963 155.74 148.652 151.429 143.335 151.429Z" fill="#5D93F4"/>
<g id="Group_51">
<path id="Vector_67" d="M122.977 163.699C122.977 164.512 122.319 165.17 121.506 165.17H99.04C98.227 165.17 97.57 164.512 97.57 163.699C97.57 162.886 98.228 162.228 99.04 162.228H121.507C122.319 162.228 122.977 162.886 122.977 163.699Z" fill="#A9D0FF"/>
<path id="Vector_68" d="M147.048 171.722C147.048 172.535 146.39 173.193 145.577 173.193H99.04C98.227 173.193 97.57 172.535 97.57 171.722C97.57 170.909 98.228 170.251 99.04 170.251H145.578C146.39 170.251 147.048 170.91 147.048 171.722Z" fill="#A9D0FF"/>
<path id="Vector_69" d="M147.048 179.746C147.048 180.559 146.39 181.216 145.577 181.216H99.04C98.227 181.216 97.57 180.558 97.57 179.746C97.57 178.933 98.228 178.275 99.04 178.275H145.578C146.39 178.275 147.048 178.933 147.048 179.746Z" fill="#A9D0FF"/>
<path id="Vector_70" d="M139.025 187.77C139.025 188.583 138.366 189.241 137.554 189.241H99.04C98.227 189.241 97.57 188.583 97.57 187.77C97.57 186.957 98.228 186.299 99.04 186.299H137.554C138.366 186.299 139.025 186.957 139.025 187.77Z" fill="#A9D0FF"/>
</g>
<path id="Vector_71" opacity="0.1" d="M143.335 151.429H142.547C142.95 177.402 122.654 193.368 107.125 201.759H120.874L133.14 209.762V201.759H143.334C148.651 201.759 152.963 197.448 152.963 192.131V161.058C152.963 155.74 148.652 151.429 143.335 151.429Z" fill="#114068"/>
</g>
</g>
<g id="yellowmsg">
<g id="Group_52">
<g id="Group_53">
<path id="Vector_72" d="M134.059 275.035H90.924V301.894H134.059V275.035Z" fill="#FAC849"/>
<path id="Vector_73" d="M90.924 275.035H134.06L112.493 293.815L90.924 275.035Z" fill="#F4B425"/>
<g id="Group_54">
<g id="Clip path group">
<mask id="mask0_6_2" style="mask-type:luminance" maskUnits="userSpaceOnUse" x="90" y="275" width="45" height="27">
<g id="SVGID_00000159437259212250619060000000212518215110425276_">
<path id="Vector_74" d="M134.059 275.035H90.924V301.894H134.059V275.035Z" fill="white"/>
</g>
</mask>
<g mask="url(#mask0_6_2)">
<g id="Group_55">
<g id="Group_56">
<path id="Vector_75" d="M91.64 302.764C96.509 296.285 101.38 289.806 106.249 283.328C107.126 282.162 105.701 280.418 104.819 281.592C99.949 288.071 95.079 294.548 90.21 301.026C89.332 302.193 90.758 303.935 91.64 302.764Z" fill="#F4B425"/>
</g>
<g id="Group_57">
<path id="Vector_76" d="M134.447 301.025C129.575 294.548 124.706 288.07 119.838 281.591C118.956 280.417 117.528 282.161 118.407 283.327C123.278 289.805 128.148 296.284 133.017 302.763C133.898 303.938 135.325 302.193 134.447 301.025Z" fill="#F4B425"/>
</g>
</g>
</g>
</g>
</g>
</g>
<path id="Vector_77" opacity="0.1" d="M105.964 301.895H134.059V275.036H121.319C123.796 288.402 115.079 296.842 105.964 301.895Z" fill="#114068"/>
</g>
</g>
<g id="yellowbigmsg">
<g id="Group_58">
<g id="Group_59">
<path id="Vector_78" d="M368.057 230.572H329.329C326.761 230.572 324.68 232.655 324.68 235.224V250.231C324.68 252.8 326.761 254.883 329.329 254.883H348.442L354.366 262.061V254.883H368.057C370.626 254.883 372.707 252.8 372.707 250.231V235.224C372.707 232.654 370.626 230.572 368.057 230.572Z" fill="#FAC849"/>
<g id="Group_60">
<path id="Vector_79" d="M339.077 242.291C339.077 243.759 337.888 244.95 336.419 244.95C334.95 244.95 333.76 243.759 333.76 242.291C333.76 240.822 334.95 239.631 336.419 239.631C337.888 239.631 339.077 240.822 339.077 242.291Z" fill="white"/>
<path id="Vector_80" d="M351.352 242.291C351.352 243.759 350.162 244.95 348.694 244.95C347.224 244.95 346.035 243.759 346.035 242.291C346.035 240.822 347.224 239.631 348.694 239.631C350.161 239.631 351.352 240.822 351.352 242.291Z" fill="white"/>
<path id="Vector_81" d="M363.625 242.291C363.625 243.759 362.435 244.95 360.967 244.95C359.498 244.95 358.308 243.759 358.308 242.291C358.308 240.822 359.498 239.631 360.967 239.631C362.435 239.631 363.625 240.822 363.625 242.291Z" fill="white"/>
</g>
</g>
<path id="Vector_82" opacity="0.1" d="M368.057 230.572H362.369C363.212 244.25 349.779 251.341 338.371 254.883H348.442L354.366 262.061V254.883H368.057C370.626 254.883 372.707 252.8 372.707 250.231V235.224C372.707 232.654 370.626 230.572 368.057 230.572Z" fill="#114068"/>
</g>
</g>
<g id="bigsettings">
<g id="Group_61">
<g id="Group_62">
<path id="Vector_83" d="M364.315 150.895C363.376 150.428 361.525 150.84 359.815 151.411C359.304 149.653 358.609 147.974 357.742 146.401C359.348 145.594 360.943 144.58 361.297 143.594C362.144 141.22 357.656 136.732 357.656 136.732C357.656 136.732 353.204 132.28 350.793 133.092C349.8 133.425 348.784 135.024 347.978 136.635C346.405 135.769 344.725 135.072 342.967 134.563C343.532 132.856 343.945 131.01 343.496 130.064C342.416 127.786 336.069 127.786 336.069 127.786C336.069 127.786 329.773 127.786 328.643 130.064C328.177 131.003 328.588 132.854 329.159 134.563C327.4 135.073 325.721 135.769 324.149 136.636C323.342 135.031 322.328 133.435 321.342 133.083C318.967 132.235 314.48 136.723 314.48 136.723C314.48 136.723 310.029 141.175 310.84 143.586C311.173 144.58 312.772 145.596 314.383 146.402C313.518 147.975 312.82 149.654 312.312 151.413C310.605 150.847 308.757 150.436 307.811 150.884C305.533 151.963 305.533 158.31 305.533 158.31C305.533 158.31 305.533 164.606 307.811 165.737C308.751 166.204 310.601 165.791 312.312 165.22C312.821 166.979 313.518 168.658 314.383 170.23C312.779 171.037 311.182 172.051 310.83 173.038C309.983 175.412 314.471 179.9 314.471 179.9C314.471 179.9 318.922 184.352 321.334 183.54C322.327 183.205 323.343 181.606 324.149 179.995C325.721 180.861 327.4 181.558 329.159 182.067C328.594 183.774 328.181 185.62 328.631 186.567C329.709 188.846 336.057 188.846 336.057 188.846C336.057 188.846 342.353 188.846 343.484 186.567C343.95 185.627 343.537 183.778 342.967 182.067C344.726 181.557 346.404 180.861 347.977 179.995C348.784 181.6 349.796 183.195 350.784 183.548C353.159 184.396 357.646 179.907 357.646 179.907C357.646 179.907 362.097 175.455 361.286 173.045C360.953 172.051 359.353 171.036 357.741 170.229C358.608 168.656 359.304 166.978 359.814 165.219C361.521 165.785 363.369 166.195 364.314 165.749C366.591 164.669 366.591 158.323 366.591 158.323C366.591 158.323 366.593 152.025 364.315 150.895ZM336.064 169.767C329.74 169.767 324.612 164.64 324.612 158.315C324.612 151.99 329.74 146.863 336.064 146.863C342.39 146.863 347.515 151.99 347.515 158.315C347.516 164.641 342.391 169.767 336.064 169.767Z" fill="#5D93F4"/>
<g id="Group_63" opacity="0.5">
<path id="Vector_84" d="M336.064 175.871C326.383 175.871 318.508 167.996 318.508 158.315C318.508 148.635 326.383 140.759 336.064 140.759C345.744 140.759 353.62 148.635 353.62 158.315C353.62 167.996 345.744 175.871 336.064 175.871ZM336.064 144.248C328.307 144.248 321.997 150.559 321.997 158.316C321.997 166.073 328.307 172.384 336.064 172.384C343.82 172.384 350.13 166.073 350.13 158.316C350.131 150.559 343.82 144.248 336.064 144.248Z" fill="#1A65D3"/>
</g>
</g>
<path id="Vector_85" opacity="0.1" d="M321.336 183.54C322.329 183.205 323.345 181.606 324.151 179.995C325.723 180.861 327.402 181.558 329.161 182.067C328.596 183.774 328.183 185.62 328.633 186.567C329.711 188.846 336.059 188.846 336.059 188.846C336.059 188.846 342.355 188.846 343.486 186.567C343.952 185.627 343.539 183.778 342.969 182.067C344.728 181.557 346.406 180.861 347.979 179.995C348.786 181.6 349.798 183.195 350.786 183.548C353.161 184.396 357.648 179.907 357.648 179.907C357.648 179.907 362.099 175.455 361.288 173.045C360.955 172.051 359.355 171.036 357.743 170.229C358.61 168.656 359.306 166.978 359.816 165.219C361.523 165.785 363.371 166.195 364.316 165.749C366.593 164.669 366.593 158.323 366.593 158.323C366.593 158.323 366.593 152.026 364.316 150.896C363.377 150.429 361.526 150.841 359.816 151.412C359.305 149.654 358.61 147.975 357.743 146.402C359.349 145.595 360.944 144.581 361.298 143.595C362.145 141.221 357.657 136.733 357.657 136.733C357.657 136.733 357.184 136.263 356.469 135.657C354.51 142.824 351.078 149.035 346.814 154.397C347.261 155.621 347.517 156.937 347.517 158.316C347.517 164.641 342.392 169.768 336.066 169.768C334.337 169.768 332.703 169.373 331.232 168.688C325.129 172.908 318.819 176.146 313.266 178.556C313.934 179.356 314.474 179.9 314.474 179.9C314.474 179.9 318.924 184.351 321.336 183.54Z" fill="#114068"/>
</g>
</g>
<g id="settings">
<g id="Group_64">
<g id="Group_65">
<path id="Vector_86" d="M163.886 115.072C163.409 114.837 162.474 115.045 161.608 115.334C161.35 114.444 160.997 113.594 160.559 112.798C161.373 112.39 162.18 111.876 162.357 111.377C162.787 110.175 160.515 107.902 160.515 107.902C160.515 107.902 158.261 105.648 157.04 106.059C156.537 106.229 156.023 107.038 155.615 107.854C154.819 107.416 153.969 107.063 153.078 106.805C153.364 105.941 153.572 105.006 153.345 104.527C152.799 103.373 149.586 103.373 149.586 103.373C149.586 103.373 146.398 103.373 145.825 104.527C145.59 105.003 145.798 105.94 146.087 106.805C145.196 107.064 144.346 107.416 143.55 107.855C143.142 107.042 142.629 106.234 142.13 106.055C140.927 105.626 138.655 107.898 138.655 107.898C138.655 107.898 136.402 110.152 136.813 111.372C136.981 111.875 137.792 112.39 138.607 112.798C138.168 113.594 137.816 114.444 137.558 115.334C136.693 115.047 135.758 114.84 135.279 115.066C134.126 115.612 134.126 118.826 134.126 118.826C134.126 118.826 134.126 122.014 135.279 122.587C135.755 122.822 136.691 122.614 137.558 122.325C137.816 123.215 138.168 124.065 138.607 124.862C137.794 125.27 136.986 125.784 136.808 126.283C136.379 127.485 138.651 129.757 138.651 129.757C138.651 129.757 140.905 132.011 142.126 131.6C142.629 131.43 143.145 130.621 143.552 129.805C144.348 130.243 145.198 130.596 146.088 130.854C145.802 131.719 145.594 132.653 145.82 133.132C146.366 134.285 149.58 134.285 149.58 134.285C149.58 134.285 152.768 134.285 153.339 133.132C153.576 132.656 153.367 131.719 153.078 130.854C153.969 130.596 154.819 130.243 155.615 129.805C156.024 130.618 156.536 131.426 157.036 131.604C158.239 132.033 160.51 129.761 160.51 129.761C160.51 129.761 162.765 127.507 162.354 126.286C162.185 125.783 161.375 125.268 160.56 124.861C160.999 124.065 161.352 123.214 161.609 122.324C162.473 122.61 163.408 122.819 163.887 122.592C165.04 122.046 165.04 118.832 165.04 118.832C165.04 118.832 165.039 115.646 163.886 115.072ZM149.582 124.627C146.38 124.627 143.783 122.032 143.783 118.829C143.783 115.627 146.38 113.031 149.582 113.031C152.785 113.031 155.379 115.627 155.379 118.829C155.379 122.032 152.785 124.627 149.582 124.627Z" fill="#FAC849"/>
<g id="Group_66" opacity="0.5">
<path id="Vector_87" d="M149.582 127.718C144.682 127.718 140.694 123.731 140.694 118.83C140.694 113.93 144.682 109.942 149.582 109.942C154.483 109.942 158.47 113.929 158.47 118.83C158.47 123.731 154.483 127.718 149.582 127.718ZM149.582 111.707C145.654 111.707 142.46 114.902 142.46 118.829C142.46 122.756 145.654 125.952 149.582 125.952C153.508 125.952 156.705 122.756 156.705 118.829C156.705 114.902 153.509 111.707 149.582 111.707Z" fill="#F4B425"/>
</g>
</g>
<path id="Vector_88" opacity="0.1" d="M142.125 131.601C142.628 131.431 143.144 130.622 143.551 129.806C144.347 130.244 145.197 130.597 146.087 130.855C145.801 131.72 145.593 132.654 145.819 133.133C146.365 134.286 149.579 134.286 149.579 134.286C149.579 134.286 152.767 134.286 153.338 133.133C153.575 132.657 153.366 131.72 153.077 130.855C153.968 130.597 154.818 130.244 155.614 129.806C156.023 130.619 156.535 131.427 157.035 131.605C158.238 132.034 160.509 129.762 160.509 129.762C160.509 129.762 162.764 127.508 162.353 126.287C162.184 125.784 161.374 125.269 160.559 124.862C160.998 124.066 161.351 123.215 161.608 122.325C162.472 122.611 163.407 122.82 163.886 122.593C165.039 122.047 165.039 118.833 165.039 118.833C165.039 118.833 165.039 115.645 163.886 115.072C163.409 114.837 162.474 115.045 161.608 115.334C161.35 114.444 160.997 113.594 160.559 112.798C161.373 112.39 162.18 111.876 162.357 111.377C162.787 110.175 160.515 107.902 160.515 107.902C160.515 107.902 160.411 107.8 160.244 107.647C158.798 110.835 156.915 113.686 154.758 116.228C155.154 117.011 155.381 117.894 155.381 118.831C155.381 122.034 152.787 124.629 149.584 124.629C148.475 124.629 147.442 124.312 146.562 123.772C143.725 125.85 140.793 127.586 137.994 129.022C138.354 129.46 138.652 129.759 138.652 129.759C138.652 129.759 140.904 132.012 142.125 131.601Z" fill="#114068"/>
</g>
</g>
<g id="lovemsg">
<g id="Group_67">
<g id="Group_68">
<path id="Vector_89" d="M141.484 224.626H175.728C177.999 224.626 179.84 226.469 179.84 228.739V242.009C179.84 244.281 177.999 246.121 175.728 246.121H158.829L153.59 252.466V246.121H141.485C139.214 246.121 137.373 244.281 137.373 242.009V228.739C137.372 226.469 139.213 224.626 141.484 224.626Z" fill="#FC8B3F"/>
<g id="Group_69">
<path id="Vector_90" d="M157.981 230.998C156.723 230.269 154.867 231.03 153.369 232.708C151.873 231.031 150.016 230.269 148.758 230.998C147.17 231.921 147.148 234.848 148.709 237.536C149.962 239.696 151.85 241.018 153.369 240.988C154.89 241.018 156.776 239.696 158.03 237.536C159.592 234.848 159.57 231.921 157.981 230.998Z" fill="white"/>
<path id="1" d="M166.843 231.732V240.683H165.759V232.869H165.706L163.521 234.32V233.218L165.759 231.732H166.843Z" fill="white"/>
</g>
<path id="Vector_91" opacity="0.1" d="M179.84 228.74C179.84 226.469 177.999 224.627 175.728 224.627H168.695C169.22 236.66 157.996 242.938 148.128 246.123H153.59V252.468L158.829 246.123H175.728C177.999 246.123 179.84 244.283 179.84 242.011V228.74Z" fill="#114068"/>
</g>
</g>
</g>
<g id="Group_70">
<g id="Group_71">
<path id="Vector_92" d="M178.449 124.614H212.692C214.963 124.614 216.805 126.455 216.805 128.726V141.997C216.805 144.268 214.963 146.109 212.692 146.109H195.794L190.555 152.455V146.109H178.45C176.178 146.109 174.337 144.267 174.337 141.997V128.726C174.335 126.455 176.177 124.614 178.449 124.614Z" fill="#FC8B3F"/>
<g id="Group_72">
<path id="1_2" d="M203.807 131.325V140.276H202.723V132.461H202.67L200.485 133.912V132.811L202.723 131.325H203.807Z" fill="white"/>
<path id="Vector_93" d="M194.064 131.837H187.089C186.243 131.837 185.558 132.523 185.558 133.368V138.308C185.558 139.154 186.244 139.839 187.089 139.839H190.494L192.444 142.201V139.839H194.064C194.91 139.839 195.595 139.154 195.595 138.308V133.368C195.596 132.523 194.911 131.837 194.064 131.837Z" fill="white"/>
</g>
<path id="Vector_94" opacity="0.1" d="M216.805 128.726C216.805 126.455 214.963 124.614 212.692 124.614H205.66C206.183 136.647 194.961 142.925 185.093 146.109H190.555V152.455L195.794 146.109H212.692C214.963 146.109 216.805 144.267 216.805 141.997V128.726Z" fill="#114068"/>
</g>
</g>
<g id="clock">
<g id="Group_73">
<path id="Vector_95" d="M431.179 196.654C431.527 182.734 420.524 171.167 406.603 170.819C392.682 170.47 381.114 181.473 380.766 195.394C380.418 209.314 391.421 220.881 405.342 221.23C419.263 221.578 430.831 210.575 431.179 196.654Z" fill="#FC8B3F"/>
<path id="Vector_96" d="M418.52 185.251C413.83 189.48 409.138 193.71 404.445 197.94C401.457 196.443 398.468 194.947 395.483 193.449C393.658 192.535 392.05 195.273 393.88 196.189C397.22 197.863 400.562 199.537 403.902 201.209C404.572 201.544 405.264 201.466 405.824 200.961C410.804 196.474 415.785 191.984 420.763 187.495C422.287 186.123 420.036 183.886 418.52 185.251Z" fill="white"/>
<g id="Group_74">
<g id="Group_75">
<g id="Group_76">
<path id="Vector_97" d="M405.974 176.366C406.697 176.366 407.283 175.78 407.283 175.057C407.283 174.334 406.697 173.748 405.974 173.748C405.251 173.748 404.665 174.334 404.665 175.057C404.665 175.78 405.251 176.366 405.974 176.366Z" fill="#F46C0F"/>
<path id="Vector_98" d="M407.282 217.286C407.282 218.009 406.695 218.595 405.973 218.595C405.249 218.595 404.664 218.009 404.664 217.286C404.664 216.563 405.249 215.978 405.973 215.978C406.695 215.979 407.282 216.564 407.282 217.286Z" fill="#F46C0F"/>
</g>
<g id="Group_77">
<path id="Vector_99" d="M427.088 197.481C426.365 197.481 425.78 196.894 425.78 196.171C425.78 195.449 426.365 194.863 427.088 194.863C427.813 194.863 428.397 195.449 428.397 196.171C428.396 196.894 427.813 197.481 427.088 197.481Z" fill="#F46C0F"/>
<path id="Vector_100" d="M384.858 197.481C384.134 197.481 383.55 196.894 383.55 196.171C383.55 195.449 384.134 194.863 384.858 194.863C385.581 194.863 386.165 195.449 386.165 196.171C386.165 196.894 385.581 197.481 384.858 197.481Z" fill="#F46C0F"/>
</g>
</g>
<g id="Group_78">
<g id="Group_79">
<path id="Vector_101" d="M417.764 178.606C417.4 179.23 416.597 179.439 415.973 179.073C415.348 178.71 415.139 177.908 415.504 177.284C415.87 176.66 416.67 176.452 417.295 176.815C417.918 177.18 418.128 177.983 417.764 178.606Z" fill="#F46C0F"/>
<path id="Vector_102" d="M396.443 215.06C396.077 215.684 395.276 215.893 394.652 215.528C394.029 215.162 393.819 214.361 394.183 213.738C394.547 213.113 395.35 212.904 395.974 213.27C396.6 213.633 396.809 214.435 396.443 215.06Z" fill="#F46C0F"/>
</g>
<g id="Group_80">
<path id="Vector_103" d="M423.536 207.961C422.914 207.596 422.704 206.795 423.069 206.171C423.434 205.547 424.235 205.338 424.858 205.702C425.485 206.067 425.693 206.869 425.328 207.492C424.964 208.116 424.163 208.327 423.536 207.961Z" fill="#F46C0F"/>
<path id="Vector_104" d="M387.087 186.642C386.462 186.276 386.252 185.475 386.616 184.852C386.981 184.228 387.783 184.018 388.406 184.382C389.03 184.747 389.241 185.549 388.876 186.172C388.512 186.796 387.709 187.007 387.087 186.642Z" fill="#F46C0F"/>
</g>
</g>
<g id="Group_81">
<g id="Group_82">
<path id="Vector_105" d="M394.184 178.606C394.549 179.23 395.351 179.439 395.975 179.073C396.6 178.71 396.809 177.908 396.445 177.284C396.078 176.66 395.277 176.452 394.653 176.815C394.029 177.18 393.819 177.983 394.184 178.606Z" fill="#F46C0F"/>
<path id="Vector_106" d="M415.505 215.06C415.87 215.684 416.67 215.893 417.295 215.528C417.918 215.162 418.128 214.361 417.764 213.738C417.4 213.113 416.597 212.904 415.973 213.27C415.348 213.633 415.139 214.435 415.505 215.06Z" fill="#F46C0F"/>
</g>
<g id="Group_83">
<path id="Vector_107" d="M388.409 207.961C389.032 207.596 389.241 206.795 388.876 206.171C388.512 205.547 387.711 205.338 387.088 205.702C386.462 206.067 386.252 206.869 386.617 207.492C386.982 208.116 387.783 208.327 388.409 207.961Z" fill="#F46C0F"/>
<path id="Vector_108" d="M424.861 186.642C425.485 186.276 425.693 185.475 425.33 184.852C424.965 184.228 424.163 184.018 423.54 184.382C422.915 184.747 422.706 185.549 423.069 186.172C423.435 186.796 424.236 187.007 424.861 186.642Z" fill="#F46C0F"/>
</g>
</g>
</g>
</g>
</g>
<g id="hours">
<g id="Group_84">
<path id="24/7" d="M240.782 112.985V112.208L243.7 109.014C244.043 108.64 244.325 108.315 244.546 108.038C244.768 107.759 244.932 107.497 245.038 107.253C245.148 107.005 245.202 106.746 245.202 106.476C245.202 106.165 245.127 105.896 244.978 105.668C244.831 105.441 244.63 105.265 244.373 105.142C244.117 105.018 243.83 104.956 243.51 104.956C243.171 104.956 242.874 105.027 242.621 105.168C242.37 105.306 242.176 105.5 242.038 105.75C241.903 106.001 241.835 106.294 241.835 106.631H240.816C240.816 106.113 240.936 105.658 241.175 105.267C241.414 104.875 241.739 104.57 242.15 104.352C242.565 104.133 243.029 104.024 243.545 104.024C244.063 104.024 244.522 104.133 244.922 104.352C245.322 104.57 245.635 104.865 245.863 105.237C246.09 105.608 246.204 106.021 246.204 106.476C246.204 106.801 246.145 107.119 246.027 107.43C245.912 107.738 245.71 108.081 245.422 108.461C245.138 108.838 244.742 109.299 244.235 109.843L242.25 111.967V112.036H246.359V112.985H240.782ZM247.745 111.172V110.292L251.63 104.145H252.269V105.509H251.837L248.902 110.154V110.223H254.134V111.172H247.745ZM251.906 112.985V110.905V110.495V104.145H252.925V112.985H251.906ZM258.894 103.73L256.045 114.315H255.113L257.962 103.73H258.894ZM260.361 112.985L264.315 105.163V105.094H259.757V104.145H265.42V105.146L261.483 112.985H260.361Z" fill="#B6CDEF"/>
<path id="Vector_109" d="M275.926 108.758C275.712 118.593 269.625 126.953 260.293 130.101C250.96 133.253 240.686 129.252 235.097 121.422C229.373 113.405 230.18 102.347 236.107 94.734C242.568 86.435 254.174 84.347 263.484 88.709C261.024 89.586 258.566 90.464 256.108 91.341C254.972 91.747 255.462 93.569 256.61 93.159C259.625 92.083 262.638 91.005 265.654 89.93C266.146 89.754 266.442 89.298 266.312 88.772C265.535 85.644 264.757 82.516 263.982 79.388C263.689 78.209 261.872 78.71 262.166 79.89C262.74 82.205 263.314 84.52 263.89 86.835C253.679 82.322 242.055 84.812 234.776 93.404C227.85 101.579 227.729 113.584 233.469 122.375C239.323 131.339 250.735 134.842 260.795 131.919C270.995 128.956 277.585 119.114 277.811 108.76C277.837 107.541 275.953 107.545 275.926 108.758Z" fill="#B6CDEF"/>
</g>
</g>
</g>
<g id="Group_85">
<g id="flowerpot">
<g id="Group_86">
<g id="Group_87">
<g id="leaf">
<path id="Vector_110" d="M388.031 343.097C383.093 338.912 375.778 350.266 374.309 356.101C373.523 351.459 372.467 346.778 371.107 342.184C373.868 342.325 383.695 330.845 378.475 328.002C374.265 325.708 370.646 334.686 370.25 339.424C369 335.591 367.53 331.84 365.817 328.246C369.537 327.223 378.185 308.828 370.351 306.973C364.404 305.565 362.671 316.94 363.436 323.632C361.652 320.452 359.653 317.441 357.426 314.658C360.419 312.335 364.478 296.442 357.757 296.068C352.527 295.776 352.737 305.562 354.37 311.161C353.073 309.791 351.713 308.491 350.279 307.275C351.512 303.394 334.828 285.697 329.527 293.457C324.481 300.848 344.691 309.452 349.368 308.046C351.142 309.538 352.802 311.165 354.363 312.897C349.315 310.744 338.685 309.53 338.655 314.914C338.619 321.473 354.428 318.417 356.693 315.644C359.089 318.673 361.203 321.982 363.071 325.477C357.761 321.991 345.871 318.433 344.741 324.568C343.39 331.894 361.295 331.78 364.956 329.227C366.376 332.259 367.614 335.41 368.702 338.619C365.183 335.333 358.738 331.801 356.953 335.515C354.663 340.274 366.451 343.584 370.024 342.808C371.12 346.555 372.009 350.357 372.716 354.14C369.091 348.987 361.747 342.713 358.465 347.004C354.153 352.642 369.278 360.271 373.644 359.799C374.333 364.679 374.731 369.466 374.869 373.987C374.893 374.775 376.119 374.779 376.095 373.987C375.951 369.296 375.532 364.345 374.808 359.304C378.277 360.253 393.969 348.133 388.031 343.097Z" fill="#B6CDEF"/>
<path id="Vector_111" d="M418.543 301.902C420.158 299.294 421.867 296.715 423.67 294.209C428.272 294.882 446.605 281.764 439.966 275.599C433.185 269.305 421.108 289.52 422.704 293.495C421.462 295.235 420.273 297.013 419.117 298.805C420.051 293.253 419.437 285.359 414.82 285.848C408.361 286.531 412.99 301.609 416 303.793C415.287 304.978 414.588 306.162 413.902 307.345C412.449 309.847 411.082 312.394 409.77 314.967C410.549 308.794 408.994 298.005 403.418 299.313C396.036 301.044 404.393 318.648 407.743 319.091C405.581 323.643 403.632 328.288 401.891 333.012C401.99 325.393 398.342 311.905 391.606 314.448C382.784 317.775 396.08 338.239 400.154 337.95C398.591 342.613 397.227 347.34 396.052 352.118C395.01 347 391.447 339.684 387.511 341.896C382.321 344.814 391.618 355.791 395.002 356.635C392.998 365.762 391.663 375.041 391 384.358C390.945 385.139 392.153 385.346 392.21 384.558C392.875 375.19 394.228 365.909 396.25 356.794C399.434 358.158 414.065 354.155 411.299 348.597C409.011 344.001 400.401 349.535 397.015 353.492C398.242 348.412 399.687 343.387 401.348 338.437C406.278 340.91 427.81 338.247 425.044 329.62C422.729 322.409 409.018 328.471 403.088 333.503C404.815 328.826 406.741 324.222 408.873 319.695C412.861 322.11 429.974 322.145 428.677 315.018C427.589 309.051 416.191 312.329 410.817 315.704C411.991 313.373 413.202 311.06 414.488 308.777C415.313 307.313 416.174 305.842 417.049 304.372C419.371 307.136 436.037 309.553 435.662 302.749C435.339 296.879 423.17 299.221 418.543 301.902Z" fill="#B6CDEF"/>
</g>
</g>
<g id="Group_88">
<g id="Group_89">
<path id="Vector_112" d="M407.443 405.276C407.133 407.582 404.977 409.47 402.649 409.47H366.453C364.125 409.47 362.01 407.577 361.752 405.265L357.402 366.323C357.143 364.01 358.836 362.118 361.164 362.118H408.997C411.324 362.118 412.974 364.005 412.667 366.313L407.443 405.276Z" fill="#FC8B3F"/>
<path id="Vector_113" opacity="0.1" d="M408.997 362.118H400.306C401.614 375.665 398.823 395.886 375.485 409.471H402.65C404.978 409.471 407.134 407.582 407.444 405.277L412.668 366.314C412.975 364.005 411.324 362.118 408.997 362.118Z" fill="#114068"/>
</g>
<path id="Vector_114" d="M418.234 365.824C418.234 368.868 415.767 371.335 412.724 371.335H357.355C354.312 371.335 351.844 368.868 351.844 365.824C351.844 362.78 354.312 360.313 357.355 360.313H412.724C415.768 360.314 418.234 362.78 418.234 365.824Z" fill="#F46C0F"/>
</g>
</g>
</g>
<g id="mug">
<g id="Group_90">
<g id="Group_91">
<g id="Group_92">
<path id="Vector_115" d="M132.644 407.672C131.939 407.672 131.232 407.607 130.539 407.476C122.93 406.038 118.224 397.012 120.047 387.351C121.701 378.596 128.011 372.242 135.052 372.242C135.757 372.242 136.464 372.307 137.156 372.438C144.766 373.876 149.472 382.904 147.649 392.563C145.995 401.317 139.684 407.672 132.644 407.672ZM135.052 377.14C130.44 377.14 126.058 381.922 124.861 388.262C123.539 395.266 126.494 401.725 131.449 402.661C131.842 402.736 132.243 402.773 132.644 402.773C137.256 402.773 141.638 397.994 142.835 391.654C144.157 384.647 141.202 378.188 136.248 377.253C135.854 377.178 135.452 377.14 135.052 377.14Z" fill="#FC8B3F"/>
</g>
<g id="Group_93">
<path id="Vector_116" d="M132.236 368.107H95.472C95.472 368.107 90.573 396.945 105.106 409.47H112.967H114.741H122.602C137.136 396.945 132.236 368.107 132.236 368.107Z" fill="#FC8B3F"/>
<path id="Vector_117" opacity="0.1" d="M114.741 409.471H122.602C137.136 396.946 132.236 368.108 132.236 368.108H122.457C119.593 378.783 113.204 395.252 99.961 403.15C101.323 405.504 103.005 407.66 105.106 409.471H112.967H114.741Z" fill="#114068"/>
</g>
</g>
<g id="Group_94">
<path id="Vector_118" d="M108.142 365.085C108.142 365.085 103.117 361.732 104.335 357.166C105.554 352.598 111.457 344.32 106.144 338.739C106.144 338.739 114.691 343.307 111.95 349.856C109.208 356.405 105.858 359.147 108.142 365.085Z" fill="#CEDDF4"/>
<path id="Vector_119" d="M121.183 358.753C121.183 358.753 116.158 355.4 117.376 350.834C118.595 346.266 124.498 337.987 119.185 332.407C119.185 332.407 127.732 336.976 124.99 343.525C122.249 350.071 118.898 352.815 121.183 358.753Z" fill="#CEDDF4"/>
</g>
</g>
</g>
</g>
<g id="Group_95">
<path id="Vector_120" d="M132.236 368.105C132.236 370.113 123.948 371.74 113.726 371.74C103.504 371.74 95.216 370.113 95.216 368.105C95.216 366.099 103.504 364.472 113.726 364.472C123.948 364.473 132.236 366.1 132.236 368.105Z" fill="#F46C0F"/>
<path id="Vector_121" d="M97.713 369.923C100.914 371.007 106.879 371.74 113.726 371.74C120.574 371.74 126.538 371.007 129.739 369.923C126.538 368.839 120.574 368.107 113.726 368.107C106.879 368.107 100.915 368.839 97.713 369.923Z" fill="#AF622E"/>
</g>
<g id="Group_96">
<path id="Vector_122" d="M308.014 97.644L304.98 87.375L301.945 97.644L292.561 100.871L301.945 104.099L304.98 114.366L308.014 104.099L317.399 100.871L308.014 97.644Z" fill="#E3EDFC"/>
<path id="Vector_123" d="M322.972 210.9L320.914 203.938L318.855 210.9L312.492 213.089L318.855 215.279L320.914 222.24L322.972 215.279L329.335 213.089L322.972 210.9Z" fill="white"/>
<path id="Vector_124" d="M354.692 201.009L353.62 197.376L352.546 201.009L349.226 202.15L352.546 203.292L353.62 206.926L354.692 203.292L358.013 202.15L354.692 201.009Z" fill="white"/>
<path id="Vector_125" d="M420.34 250.441L418.235 243.321L416.131 250.441L409.623 252.679L416.131 254.916L418.235 262.037L420.34 254.916L426.847 252.679L420.34 250.441Z" fill="#E3EDFC"/>
<path id="Vector_126" d="M376.177 279.816L373.797 271.76L371.415 279.816L364.054 282.346L371.415 284.88L373.797 292.933L376.177 284.88L383.537 282.346L376.177 279.816Z" fill="white"/>
<path id="Vector_127" d="M321.987 273.251L320.914 269.618L319.841 273.251L316.52 274.394L319.841 275.536L320.914 279.169L321.987 275.536L325.308 274.394L321.987 273.251Z" fill="white"/>
<path id="Vector_128" d="M396.519 150.148L395.313 146.072L394.108 150.148L390.384 151.43L394.108 152.71L395.313 156.786L396.519 152.71L400.243 151.43L396.519 150.148Z" fill="#E3EDFC"/>
<path id="Vector_129" d="M165.188 77.433L163.985 73.356L162.779 77.433L159.054 78.714L162.779 79.994L163.985 84.071L165.188 79.994L168.914 78.714L165.188 77.433Z" fill="#E3EDFC"/>
<path id="Vector_130" d="M359.602 83.792L357.499 76.672L355.395 83.792L348.886 86.03L355.395 88.269L357.499 95.388L359.602 88.269L366.11 86.03L359.602 83.792Z" fill="#E3EDFC"/>
<path id="Vector_131" d="M205.193 98.346L203.09 91.225L200.985 98.346L194.477 100.584L200.985 102.822L203.09 109.942L205.193 102.822L211.701 100.584L205.193 98.346Z" fill="#E3EDFC"/>
<path id="Vector_132" d="M108.33 108.661L107.126 104.585L105.921 108.661L102.196 109.942L105.921 111.222L107.126 115.298L108.33 111.222L112.055 109.942L108.33 108.661Z" fill="#E3EDFC"/>
<path id="Vector_133" d="M69.279 189.892L66.246 179.623L63.21 189.892L53.825 193.119L63.21 196.347L66.246 206.614L69.279 196.347L78.663 193.119L69.279 189.892Z" fill="#E3EDFC"/>
<path id="Vector_134" d="M185.95 174.753L182.639 163.547L179.325 174.753L169.084 178.274L179.325 181.799L182.639 193.002L185.95 181.799L196.19 178.274L185.95 174.753Z" fill="white"/>
<path id="Vector_135" d="M97.274 240.69L95.217 233.728L93.157 240.69L86.794 242.88L93.157 245.069L95.217 252.03L97.274 245.069L103.638 242.88L97.274 240.69Z" fill="white"/>
<path id="Vector_136" d="M175.409 273.251L174.335 269.618L173.262 273.251L169.941 274.394L173.262 275.536L174.335 279.169L175.409 275.536L178.729 274.394L175.409 273.251Z" fill="white"/>
<path id="Vector_137" d="M149.106 321.913L147.049 314.95L144.99 321.913L138.626 324.1L144.99 326.291L147.049 333.252L149.106 326.291L155.469 324.1L149.106 321.913Z" fill="white"/>
<path id="Vector_138" d="M53.075 308.828L50.971 301.706L48.867 308.828L42.357 311.067L48.867 313.305L50.971 320.424L53.075 313.305L59.581 311.067L53.075 308.828Z" fill="#E3EDFC"/>
<path id="Vector_139" d="M60.829 340.225L59.625 336.147L58.419 340.225L54.695 341.505L58.419 342.785L59.625 346.861L60.829 342.785L64.553 341.505L60.829 340.225Z" fill="#E3EDFC"/>
<path id="Vector_140" d="M451.136 331.012L449.032 323.893L446.928 331.012L440.419 333.252L446.928 335.488L449.032 342.61L451.136 335.488L457.643 333.252L451.136 331.012Z" fill="#E3EDFC"/>
</g>
</g>
</g>
<defs>
<clipPath id="clip0_6_2">
<rect width="500" height="500" fill="white"/>
</clipPath>
</defs>
</svg>
